<svg width="47" height="47" xmlns="http://www.w3.org/2000/svg" xmlns:xlink="http://www.w3.org/1999/xlink" xml:space="preserve" overflow="hidden"><defs><clipPath id="clip0"><rect x="616" y="336" width="47" height="47"/></clipPath></defs><g clip-path="url(#clip0)" transform="translate(-616 -336)"><path d="M624.49 371.717C620.207 371.111 617.937 371.838 617.113 372.371 616.802 372.573 616.388 372.506 616.158 372.216 615.926 371.925 615.953 371.506 616.221 371.249 617.837 369.729 621.772 367.249 625.699 364.445L625.766 364.42 625.699 364.429C625.699 364.424 625.699 364.418 625.699 364.413L625.699 364.413C625.699 364.413 626.313 356.775 630.046 351.436 633.645 346.284 640.61 344.815 644.293 344.395L644.367 343.719C644.66 341.069 649.214 341.384 649.214 343.969 649.214 344.131 649.14 344.417 649.134 344.777 651.386 345.416 653.53 346.388 655.494 347.662 660.593 350.983 663.001 356.091 663.001 362.19 663.001 370.121 661.459 369.042 656.973 368.653 655.775 368.548 654.843 368.506 653.967 368.468L653.983 368.483C653.709 368.879 648.893 375.753 640.251 376.561 639.512 376.628 638.847 376.659 638.246 376.659 631.617 376.664 632.639 372.872 624.49 371.717Z" fill="#F7E006"/><path d="M646.71 344.228C635.341 346.251 633.329 361.293 633.022 364.598 630.607 364.149 628.135 364.092 625.701 364.428 625.701 364.428 626.315 356.791 630.049 351.452 635.083 344.228 646.71 344.228 646.71 344.228Z" fill="#F7E006"/><path d="M653.851 368.356C647.25 367.548 637.013 365.188 633.014 364.598 633.329 361.293 635.341 346.251 646.71 344.228 655.598 348.825 654.659 365.722 653.851 368.356Z" fill="#FFF279"/></g></svg>