<svg width="74" height="23" xmlns="http://www.w3.org/2000/svg" xmlns:xlink="http://www.w3.org/1999/xlink" xml:space="preserve" overflow="hidden"><g transform="translate(-955 -117)"><path d="M974.134 139.985C961.934 139.484 956.788 128.686 955.115 123.941 967.75 115.92 975.738 117.056 975.738 117.056 978.011 118.393 989.443 122.705 991.816 122.903L992.184 122.903C994.558 122.705 1005.99 118.392 1008.26 117.056 1008.26 117.056 1016.25 115.92 1028.88 123.941 1027.21 128.688 1022.07 139.484 1009.87 139.985 1000.31 140.382 997.331 132.364 992.184 132.198L991.816 132.198C986.669 132.364 983.694 140.387 974.134 139.985ZM1019.16 126.682C1018.39 128.721 1013.64 131.193 1010.87 131.863 1007.02 132.766 1002.05 130.091 1001.34 128.32 1005.49 124.443 1013.04 124.343 1019.16 126.715ZM964.842 126.682C965.611 128.721 970.324 131.193 973.131 131.863 976.974 132.766 981.952 130.091 982.657 128.32 978.512 124.443 970.961 124.343 964.842 126.715Z" fill="#F2302F" fill-rule="evenodd"/></g></svg>