<svg width="148" height="148" viewBox="0 0 148 148" fill="none" xmlns="http://www.w3.org/2000/svg">
<g clip-path="url(#clip0_1144_89)">
<path d="M143.02 85.4722C145.356 82.175 148 78.4383 148 74C148 69.5617 145.356 65.8249 143.02 62.5278C141.49 60.3629 140.039 58.3183 139.539 56.4394C138.997 54.425 139.232 51.8445 139.473 49.1135C139.846 44.9703 140.231 40.6855 138.094 36.991C135.92 33.2392 131.806 31.3422 128.175 29.671C125.718 28.5359 123.4 27.4669 121.966 26.0367C120.533 24.6034 119.461 22.2819 118.329 19.8218C116.655 16.1935 114.758 12.0774 111.012 9.90941C107.314 7.77456 103.045 8.15697 98.8835 8.52432C96.1494 8.77122 93.5719 8.99705 91.5605 8.4641C89.6816 7.96125 87.6401 6.51292 85.4722 4.98029C82.1781 2.64671 78.4383 -1.52588e-05 74 -1.52588e-05C69.5617 -1.52588e-05 65.8219 2.64671 62.5278 4.98029C60.3599 6.51292 58.3184 7.96125 56.4395 8.4641C54.422 9.00308 51.8446 8.76821 49.1165 8.52432C44.9793 8.15998 40.6855 7.76854 36.994 9.9064C33.2422 12.0744 31.3452 16.1905 29.6711 19.8188C28.5389 22.2789 27.467 24.6034 26.0337 26.0337C24.6004 27.4639 22.2819 28.5359 19.8188 29.671C16.1935 31.3422 12.0804 33.2392 9.90641 36.991C7.76855 40.6825 8.15397 44.9703 8.52734 49.1135C8.76823 51.8445 9.00309 54.425 8.4611 56.4364C7.96126 58.3183 6.50993 60.3629 4.98031 62.5278C2.64372 65.8249 0 69.5617 0 74C0 78.4383 2.64372 82.175 4.98031 85.4722C6.50993 87.6371 7.96126 89.6816 8.4611 91.5605C9.00309 93.5749 8.76823 96.1554 8.52734 98.8865C8.15397 103.03 7.76855 107.314 9.90641 111.009C12.0804 114.761 16.1935 116.658 19.8249 118.329C22.2819 119.464 24.6004 120.533 26.0337 121.963C27.467 123.397 28.5389 125.718 29.6711 128.178C31.3452 131.806 33.2422 135.923 36.988 138.091C40.6795 140.225 44.9613 139.843 49.1165 139.476C51.8446 139.229 54.4281 139 56.4395 139.536C58.3184 140.039 60.3599 141.487 62.5278 143.02C65.8219 145.353 69.5617 148 74 148C78.4383 148 82.1781 145.353 85.4722 143.02C87.6401 141.487 89.6816 140.039 91.5605 139.536C93.578 138.997 96.1554 139.232 98.8835 139.476C103.027 139.849 107.32 140.234 111.006 138.094C114.758 135.926 116.655 131.809 118.329 128.181C119.461 125.721 120.533 123.397 121.966 121.966C123.4 120.536 125.718 119.464 128.181 118.329C131.806 116.658 135.92 114.761 138.094 111.009C140.231 107.317 139.846 103.03 139.473 98.8865C139.232 96.1554 138.997 93.5749 139.539 91.5635C140.039 89.6816 141.49 87.6371 143.02 85.4722Z" fill="#E93829"/>
<path d="M73.9993 123.333C101.245 123.333 123.333 101.246 123.333 74C123.333 46.7539 101.245 24.6666 73.9993 24.6666C46.7533 24.6666 24.666 46.7539 24.666 74C24.666 101.246 46.7533 123.333 73.9993 123.333Z" fill="url(#paint0_linear_1144_89)"/>
<path opacity="0.2" d="M19.8149 31.2127C22.2779 30.0775 24.5965 29.0056 26.0297 27.5753C27.463 26.1451 28.5349 23.8205 29.6671 21.3605C31.3413 17.7322 33.2382 13.616 36.99 11.4481C40.6816 9.31021 44.9754 9.70164 49.1126 10.066C51.8406 10.3099 54.4181 10.5447 56.4355 10.0058C58.3144 9.50291 60.3559 8.05459 62.5239 6.52196C65.818 4.18838 69.5577 1.54165 73.996 1.54165C78.4344 1.54165 82.1741 4.18838 85.4682 6.52196C87.6362 8.05459 89.6777 9.50291 91.5566 10.0058C93.568 10.5387 96.1455 10.3129 98.8795 10.066C103.041 9.69863 107.31 9.31623 111.008 11.4511C114.754 13.619 116.651 17.7352 118.325 21.3635C119.457 23.8236 120.529 26.1451 121.962 27.5784C123.396 29.0086 125.714 30.0775 128.171 31.2127C131.803 32.8839 135.916 34.7808 138.09 38.5326C139.153 40.3709 139.59 42.3555 139.716 44.3955C139.728 41.8184 139.419 39.2876 138.09 36.991C135.916 33.2392 131.803 31.3422 128.171 29.671C125.714 28.5359 123.396 27.4669 121.962 26.0367C120.529 24.6034 119.457 22.2819 118.325 19.8218C116.651 16.1935 114.754 12.0774 111.008 9.90941C107.31 7.77456 103.041 8.15697 98.8795 8.52432C96.1455 8.77122 93.568 8.99705 91.5566 8.4641C89.6777 7.96125 87.6362 6.51292 85.4682 4.98029C82.1741 2.64671 78.4344 -1.52588e-05 73.996 -1.52588e-05C69.5577 -1.52588e-05 65.818 2.64671 62.5239 4.98029C60.3559 6.51292 58.3144 7.96125 56.4355 8.4641C54.4181 9.00308 51.8406 8.76821 49.1126 8.52432C44.9754 8.15998 40.6816 7.76854 36.99 9.9064C33.2382 12.0744 31.3413 16.1905 29.6671 19.8188C28.5349 22.2789 27.463 24.6034 26.0297 26.0337C24.5965 27.4639 22.2779 28.5359 19.8149 29.671C16.1896 31.3422 12.0764 33.2392 9.90245 36.991C8.57344 39.2858 8.26368 41.8169 8.27572 44.3944C8.40219 42.354 8.83879 40.3694 9.90245 38.5326C12.0764 34.7808 16.1896 32.8839 19.8149 31.2127Z" fill="white"/>
<path opacity="0.1" d="M128.177 116.787C125.714 117.922 123.396 118.994 121.962 120.425C120.529 121.855 119.457 124.179 118.325 126.639C116.651 130.268 114.754 134.384 111.002 136.552C107.317 138.693 103.023 138.307 98.8795 137.934C96.1515 137.69 93.574 137.455 91.5566 137.994C89.6777 138.497 87.6362 139.945 85.4682 141.478C82.1741 143.812 78.4344 146.458 73.996 146.458C69.5577 146.458 65.818 143.812 62.5239 141.478C60.3559 139.945 58.3144 138.497 56.4355 137.994C54.4241 137.458 51.8406 137.687 49.1126 137.934C44.9573 138.301 40.6756 138.684 36.984 136.549C33.2382 134.381 31.3413 130.265 29.6671 126.636C28.5349 124.176 27.463 121.855 26.0297 120.422C24.5965 118.991 22.2779 117.922 19.8209 116.787C16.1896 115.116 12.0764 113.219 9.90245 109.467C8.83879 107.629 8.40219 105.644 8.27572 103.604C8.26368 106.182 8.57344 108.712 9.90245 111.009C12.0764 114.761 16.1896 116.658 19.8209 118.329C22.2779 119.464 24.5965 120.533 26.0297 121.963C27.463 123.397 28.5349 125.718 29.6671 128.178C31.3413 131.806 33.2382 135.923 36.984 138.091C40.6756 140.225 44.9573 139.843 49.1126 139.476C51.8406 139.229 54.4241 139 56.4355 139.536C58.3144 140.039 60.3559 141.487 62.5239 143.02C65.818 145.353 69.5577 148 73.996 148C78.4344 148 82.1741 145.353 85.4682 143.02C87.6362 141.487 89.6777 140.039 91.5566 139.536C93.574 138.997 96.1515 139.232 98.8795 139.476C103.023 139.849 107.317 140.234 111.002 138.094C114.754 135.926 116.651 131.809 118.325 128.181C119.457 125.721 120.529 123.397 121.962 121.966C123.396 120.536 125.714 119.464 128.177 118.329C131.803 116.658 135.916 114.761 138.09 111.009C139.419 108.714 139.728 106.183 139.716 103.606C139.59 105.646 139.153 107.631 138.09 109.467C135.916 113.219 131.803 115.116 128.177 116.787Z" fill="#010101"/>
<path d="M143.02 85.4722C145.356 82.175 148 78.4383 148 74C148 69.5617 145.356 65.8249 143.02 62.5278C141.49 60.3629 140.039 58.3183 139.539 56.4394C138.997 54.425 139.232 51.8445 139.473 49.1135C139.846 44.9703 140.231 40.6855 138.094 36.991C135.92 33.2392 131.806 31.3422 128.175 29.671C125.718 28.5359 123.4 27.4669 121.966 26.0367C120.533 24.6034 119.461 22.2819 118.329 19.8218C116.655 16.1935 114.758 12.0774 111.012 9.90941C107.314 7.77456 103.045 8.15697 98.8835 8.52432C96.1494 8.77122 93.5719 8.99705 91.5605 8.4641C89.6816 7.96125 87.6401 6.51292 85.4722 4.98029C82.1781 2.64671 78.4383 -1.52588e-05 74 -1.52588e-05C69.5617 -1.52588e-05 65.8219 2.64671 62.5278 4.98029C60.3599 6.51292 58.3184 7.96125 56.4395 8.4641C54.422 9.00308 51.8446 8.76821 49.1165 8.52432C44.9793 8.15998 40.6855 7.76854 36.994 9.9064C33.2422 12.0744 31.3452 16.1905 29.6711 19.8188C28.5389 22.2789 27.467 24.6034 26.0337 26.0337C24.6004 27.4639 22.2819 28.5359 19.8188 29.671C16.1935 31.3422 12.0804 33.2392 9.90641 36.991C7.76855 40.6825 8.15397 44.9703 8.52734 49.1135C8.76823 51.8445 9.00309 54.425 8.4611 56.4364C7.96126 58.3183 6.50993 60.3629 4.98031 62.5278C2.64372 65.8249 0 69.5617 0 74C0 78.4383 2.64372 82.175 4.98031 85.4722C6.50993 87.6371 7.96126 89.6816 8.4611 91.5605C9.00309 93.5749 8.76823 96.1554 8.52734 98.8865C8.15397 103.03 7.76855 107.314 9.90641 111.009C12.0804 114.761 16.1935 116.658 19.8249 118.329C22.2819 119.464 24.6004 120.533 26.0337 121.963C27.467 123.397 28.5389 125.718 29.6711 128.178C31.3452 131.806 33.2422 135.923 36.988 138.091C40.6795 140.225 44.9613 139.843 49.1165 139.476C51.8446 139.229 54.4281 139 56.4395 139.536C58.3184 140.039 60.3599 141.487 62.5278 143.02C65.8219 145.353 69.5617 148 74 148C78.4383 148 82.1781 145.353 85.4722 143.02C87.6401 141.487 89.6816 140.039 91.5605 139.536C93.578 138.997 96.1554 139.232 98.8835 139.476C103.027 139.849 107.32 140.234 111.006 138.094C114.758 135.926 116.655 131.809 118.329 128.181C119.461 125.721 120.533 123.397 121.966 121.966C123.4 120.536 125.718 119.464 128.181 118.329C131.806 116.658 135.92 114.761 138.094 111.009C140.231 107.317 139.846 103.03 139.473 98.8865C139.232 96.1554 138.997 93.5749 139.539 91.5635C140.039 89.6816 141.49 87.6371 143.02 85.4722Z" fill="url(#paint1_linear_1144_89)"/>
</g>
<g filter="url(#filter0_d_1144_89)">
<path d="M36.8552 76.7754C36.8552 75.3214 37.0213 73.8674 37.3537 72.4133C37.7068 70.9593 38.2053 69.5364 38.8493 68.1447C39.4932 66.753 40.2722 65.4132 41.1861 64.1253C42.1209 62.8375 43.1802 61.6223 44.3642 60.4798V60.3552H34.2067V56.1801H49.0067V60.3552C48.2382 61.1653 47.4592 62.1728 46.6699 63.3775C45.9013 64.5823 45.1951 65.9117 44.5512 67.3657C43.9072 68.8198 43.3879 70.3465 42.9933 71.9459C42.6194 73.5454 42.4324 75.1552 42.4324 76.7754H36.8552ZM52.5846 73.0676V59.9502H56.6351V73.0676H52.5846ZM48.2848 68.4563V64.5304H60.9349V68.4563H48.2848ZM75.5309 81.6361C74.9077 81.6361 74.2222 81.5841 73.4745 81.4803C72.7267 81.3764 71.9789 81.2102 71.2311 80.9817C70.4833 80.7532 69.7874 80.4624 69.1435 80.1093L70.2964 75.0306C71.0441 75.7368 71.875 76.2354 72.789 76.5262C73.7237 76.817 74.5546 76.9624 75.2816 76.9624C76.2994 76.9624 77.1511 76.765 77.8366 76.3704C78.5428 75.9549 79.0725 75.3629 79.4256 74.5944C79.7787 73.805 79.9553 72.8495 79.9553 71.7278V68.8613H79.6749C79.6333 70.3154 79.3945 71.5097 78.9582 72.4445C78.5428 73.3584 77.9716 74.0335 77.2446 74.4697C76.5175 74.9059 75.6763 75.1241 74.7208 75.1241C73.5368 75.1241 72.5501 74.8229 71.7608 74.2205C70.9922 73.6181 70.4106 72.7145 70.0159 71.5097C69.6213 70.305 69.4239 68.799 69.4239 66.9918V60.3241H74.4404V65.6832C74.4404 67.4488 74.6273 68.7367 75.0012 69.5468C75.3751 70.3569 75.9671 70.7619 76.7772 70.7619C77.1926 70.7619 77.5561 70.6581 77.8677 70.4504C78.2001 70.2219 78.4701 69.8895 78.6778 69.4533C78.8855 68.9963 79.0413 68.4355 79.1452 67.7708C79.2491 67.0853 79.301 66.296 79.301 65.4028V60.3241H84.3174V71.9148C84.3174 73.0365 84.2032 74.0958 83.9747 75.0929C83.7462 76.0692 83.4034 76.952 82.9465 77.7413C82.4895 78.5514 81.9079 79.2473 81.2016 79.8289C80.5161 80.4105 79.6957 80.8571 78.7401 81.1687C77.8054 81.4803 76.7357 81.6361 75.5309 81.6361ZM86.4381 76.7754V67.8331V60.3241H90.8002V66.8672H91.0495C91.1741 65.1224 91.413 63.7514 91.7661 62.7544C92.14 61.7365 92.597 61.0199 93.137 60.6045C93.6979 60.1683 94.321 59.9502 95.0065 59.9502C95.3804 59.9502 95.7647 60.0021 96.1594 60.1059C96.5748 60.2098 96.9798 60.376 97.3745 60.6045L97.1252 66.2129C96.6683 65.9429 96.2217 65.7455 95.7855 65.6209C95.3492 65.4755 94.9338 65.4028 94.5391 65.4028C93.8744 65.4028 93.3136 65.5897 92.8566 65.9636C92.3996 66.3375 92.0465 66.888 91.7972 67.615C91.5688 68.342 91.4545 69.2248 91.4545 70.2634V76.7754H86.4381ZM105.898 77.2116C104.797 77.2116 103.769 77.0974 102.813 76.8689C101.879 76.6612 101.058 76.3184 100.352 75.8407C99.6663 75.3629 99.1366 74.7294 98.7627 73.9401C98.4096 73.1299 98.2642 72.1537 98.3265 71.0112L102.72 70.6373C102.761 71.3228 102.917 71.894 103.187 72.351C103.457 72.7872 103.831 73.1092 104.309 73.3169C104.787 73.5246 105.368 73.6285 106.054 73.6285C106.698 73.6285 107.248 73.5246 107.705 73.3169C108.183 73.0884 108.422 72.7145 108.422 72.1952C108.422 71.9252 108.339 71.7071 108.172 71.5409C108.006 71.3539 107.695 71.1878 107.238 71.0424C106.801 70.8762 106.158 70.6892 105.306 70.4815C104.247 70.2115 103.291 69.9415 102.439 69.6714C101.588 69.4014 100.861 69.0794 100.258 68.7055C99.6559 68.3316 99.199 67.8746 98.8874 67.3346C98.5758 66.7737 98.42 66.0883 98.42 65.2782C98.42 64.1357 98.7212 63.1698 99.3236 62.3805C99.9467 61.5704 100.798 60.9576 101.879 60.5422C102.959 60.1059 104.205 59.8878 105.617 59.8878C106.885 59.8878 108.069 60.0852 109.169 60.4798C110.27 60.8745 111.132 61.5184 111.756 62.4116C112.4 63.3048 112.638 64.4888 112.472 65.9636L108.172 66.3687C108.235 65.7663 108.152 65.2574 107.923 64.8419C107.695 64.4057 107.362 64.0838 106.926 63.8761C106.49 63.6476 105.96 63.5333 105.337 63.5333C104.631 63.5333 104.08 63.6683 103.686 63.9384C103.312 64.1876 103.125 64.5096 103.125 64.9043C103.125 65.2158 103.239 65.4859 103.468 65.7144C103.717 65.9221 104.091 66.109 104.589 66.2752C105.109 66.4206 105.773 66.5868 106.583 66.7737C107.29 66.9191 108.027 67.1061 108.796 67.3346C109.564 67.5631 110.281 67.8746 110.945 68.2693C111.61 68.6432 112.15 69.1417 112.566 69.7649C112.981 70.3881 113.189 71.1774 113.189 72.1329C113.189 73.1507 112.908 74.0439 112.348 74.8125C111.787 75.581 110.966 76.173 109.886 76.5885C108.806 77.0039 107.477 77.2116 105.898 77.2116ZM49.2913 91.9429C48.7244 91.9429 48.2391 91.7926 47.8354 91.492C47.4317 91.1913 47.1224 90.7791 46.9077 90.2551C46.7016 89.7311 46.5985 89.1299 46.5985 88.4513C46.5985 87.7728 46.7016 87.1715 46.9077 86.6475C47.1139 86.1236 47.4145 85.7113 47.8096 85.4107C48.2047 85.11 48.69 84.9597 49.2655 84.9597C49.7379 84.9597 50.1244 85.0585 50.4251 85.2561C50.7257 85.4536 50.9662 85.7113 51.1466 86.0291C51.3355 86.3383 51.473 86.6776 51.5589 87.047H51.7908C51.7478 86.7979 51.7092 86.5402 51.6748 86.2739C51.6405 85.999 51.6104 85.7328 51.5846 85.4751C51.5589 85.2088 51.546 84.9726 51.546 84.7665V82.7565H52.7313V88.49V91.7754H51.6748L51.7392 89.9716H51.5331C51.43 90.3582 51.284 90.7017 51.095 91.0024C50.9061 91.2944 50.6656 91.5263 50.3735 91.6981C50.0815 91.8613 49.7207 91.9429 49.2913 91.9429ZM49.5618 90.9122C49.8711 90.9122 50.1502 90.8392 50.3993 90.6932C50.6484 90.5471 50.8588 90.3582 51.0306 90.1263C51.2024 89.8858 51.3313 89.6281 51.4171 89.3532C51.5116 89.0783 51.5589 88.8121 51.5589 88.5544V88.3998C51.5589 88.2194 51.5331 88.0261 51.4816 87.82C51.43 87.6053 51.3527 87.3905 51.2497 87.1758C51.1552 86.9611 51.0263 86.7635 50.8631 86.5831C50.7085 86.3942 50.5238 86.2481 50.3091 86.1451C50.0944 86.0334 49.8539 85.9776 49.5876 85.9776C49.2011 85.9776 48.8747 86.0892 48.6084 86.3126C48.3507 86.5273 48.1532 86.8236 48.0157 87.2016C47.8869 87.5795 47.8225 88.0047 47.8225 88.4771C47.8225 88.9667 47.8912 89.3962 48.0286 89.7655C48.1661 90.1263 48.3636 90.4097 48.6213 90.6159C48.8876 90.8134 49.2011 90.9122 49.5618 90.9122ZM57.6327 91.9429C57.1088 91.9429 56.6449 91.8656 56.2412 91.711C55.8461 91.5478 55.5111 91.3159 55.2363 91.0153C54.9614 90.7146 54.7553 90.3582 54.6178 89.9459C54.4804 89.5336 54.4117 89.0698 54.4117 88.5544C54.4117 88.0304 54.4804 87.5494 54.6178 87.1114C54.7553 86.6733 54.9571 86.2911 55.2234 85.9647C55.4897 85.6383 55.8161 85.3892 56.2026 85.2174C56.5891 85.037 57.0315 84.9468 57.5296 84.9468C57.9677 84.9468 58.3671 85.0199 58.7279 85.1659C59.0886 85.3119 59.3935 85.5395 59.6426 85.8487C59.9003 86.1494 60.0936 86.5316 60.2224 86.9954C60.3513 87.4507 60.4028 87.9875 60.377 88.6059L55.1461 88.6446V87.8458L59.6684 87.8071L59.269 88.3482C59.3119 87.8071 59.2604 87.3605 59.1144 87.0083C58.9684 86.6561 58.7579 86.3899 58.4831 86.2095C58.2168 86.0291 57.899 85.9389 57.5296 85.9389C57.1345 85.9389 56.7867 86.042 56.486 86.2481C56.1854 86.4543 55.9535 86.7506 55.7903 87.1371C55.6357 87.5237 55.5584 87.9918 55.5584 88.5415C55.5584 89.3317 55.7345 89.9373 56.0866 90.3582C56.4388 90.7705 56.9627 90.9766 57.6585 90.9766C57.9248 90.9766 58.1567 90.9465 58.3542 90.8864C58.5604 90.8177 58.7322 90.7275 58.8696 90.6159C59.0156 90.4956 59.1316 90.3582 59.2175 90.2036C59.3119 90.049 59.385 89.8815 59.4365 89.7011L60.4672 89.9459C60.3899 90.2551 60.2697 90.5343 60.1065 90.7833C59.9519 91.0238 59.7543 91.23 59.5138 91.4018C59.2819 91.5736 59.0113 91.7067 58.7021 91.8012C58.3929 91.8957 58.0364 91.9429 57.6327 91.9429ZM64.6193 91.9429C64.1555 91.9429 63.7432 91.8914 63.3825 91.7883C63.0217 91.6938 62.7211 91.5564 62.4806 91.376C62.2401 91.187 62.0554 90.9637 61.9265 90.706C61.7977 90.4484 61.729 90.1649 61.7204 89.8557L62.7125 89.598C62.6953 89.8815 62.764 90.1306 62.9186 90.3453C63.0818 90.5514 63.3094 90.7103 63.6015 90.822C63.9021 90.9337 64.2629 90.9895 64.6837 90.9895C65.1905 90.9895 65.5813 90.9036 65.8562 90.7318C66.1397 90.56 66.2814 90.3238 66.2814 90.0232C66.2814 89.7827 66.2041 89.598 66.0495 89.4692C65.8949 89.3317 65.6801 89.2244 65.4053 89.1471C65.139 89.0612 64.8212 88.9839 64.4518 88.9151C64.1426 88.8464 63.8334 88.7691 63.5242 88.6832C63.215 88.5973 62.9315 88.4857 62.6738 88.3482C62.4247 88.2022 62.2229 88.0133 62.0683 87.7813C61.9137 87.5494 61.8364 87.2617 61.8364 86.9181C61.8364 86.5144 61.9437 86.1665 62.1585 85.8745C62.3732 85.5825 62.6781 85.3548 63.0732 85.1916C63.4683 85.0284 63.9408 84.9468 64.4905 84.9468C65.0402 84.9468 65.5083 85.0327 65.8949 85.2045C66.2814 85.3677 66.5863 85.5996 66.8096 85.9003C67.0329 86.2009 67.1575 86.5531 67.1833 86.9568L66.1654 87.2144C66.1568 86.931 66.0795 86.6905 65.9335 86.4929C65.7961 86.2954 65.5985 86.1494 65.3408 86.0549C65.0832 85.9518 64.7825 85.9003 64.439 85.9003C63.9837 85.9003 63.623 85.9862 63.3567 86.158C63.0904 86.3297 62.9573 86.5659 62.9573 86.8666C62.9573 87.0899 63.0346 87.2703 63.1892 87.4077C63.3524 87.5451 63.5714 87.6525 63.8463 87.7298C64.1211 87.8071 64.4261 87.8844 64.7611 87.9617C65.1046 88.0304 65.431 88.1077 65.7402 88.1936C66.0581 88.2795 66.3415 88.3912 66.5906 88.5286C66.8397 88.6661 67.0372 88.8507 67.1833 89.0826C67.3293 89.306 67.4023 89.5937 67.4023 89.9459C67.4023 90.3839 67.2863 90.7533 67.0544 91.0539C66.8225 91.346 66.4961 91.5693 66.0752 91.7239C65.6629 91.8699 65.1776 91.9429 64.6193 91.9429ZM69.0031 91.7754V85.1143H70.1756V91.7754H69.0031ZM69.5958 83.9548C69.321 83.9548 69.1148 83.8989 68.9774 83.7873C68.8399 83.6756 68.7712 83.5081 68.7712 83.2848C68.7712 83.0615 68.8399 82.894 68.9774 82.7823C69.1148 82.6707 69.3167 82.6148 69.5829 82.6148C69.8578 82.6148 70.0639 82.6707 70.2014 82.7823C70.3388 82.894 70.4075 83.0615 70.4075 83.2848C70.4075 83.4995 70.3388 83.667 70.2014 83.7873C70.0639 83.8989 69.8621 83.9548 69.5958 83.9548ZM74.6979 94.0301C73.9936 94.0301 73.4138 93.9743 72.9586 93.8626C72.5119 93.7596 72.1812 93.5964 71.9665 93.3731C71.7518 93.1583 71.6444 92.8877 71.6444 92.5614C71.6444 92.1662 71.799 91.8398 72.1082 91.5822C72.4174 91.3245 72.8856 91.1527 73.5126 91.0668V90.8349C73.0573 90.8349 72.7138 90.7791 72.4819 90.6674C72.2499 90.5557 72.134 90.3882 72.134 90.1649C72.134 89.933 72.2499 89.7397 72.4819 89.5851C72.7138 89.4219 73.0917 89.2716 73.6157 89.1342V88.8894C73.0917 88.8808 72.6923 88.7262 72.4174 88.4256C72.1426 88.1163 72.0051 87.7169 72.0051 87.2273C72.0051 86.7893 72.1211 86.4113 72.353 86.0935C72.5935 85.7671 72.9371 85.518 73.3837 85.3463C73.839 85.1659 74.3801 85.0757 75.0071 85.0757H78.1509V86.0678L76.0894 85.7457V85.9905C76.5876 86.0935 76.9698 86.2696 77.2361 86.5187C77.5024 86.7592 77.6355 87.0856 77.6355 87.4979C77.6355 87.8672 77.5281 88.1893 77.3134 88.4642C77.0987 88.7391 76.7809 88.9538 76.36 89.1084C75.9477 89.2544 75.4366 89.3274 74.8268 89.3274C74.7065 89.3274 74.5777 89.3231 74.4402 89.3146C74.3114 89.2974 74.1396 89.2716 73.9249 89.2373C73.693 89.3833 73.504 89.5164 73.358 89.6367C73.2205 89.7569 73.1518 89.8643 73.1518 89.9588C73.1518 90.0532 73.2162 90.1306 73.3451 90.1907C73.4825 90.2422 73.6457 90.2766 73.8347 90.2937C74.0237 90.3109 74.1997 90.3195 74.3629 90.3195H75.8704C76.0422 90.3195 76.2569 90.3367 76.5146 90.3711C76.7809 90.4054 77.0428 90.4784 77.3005 90.5901C77.5668 90.7017 77.7901 90.8735 77.9705 91.1054C78.1509 91.3374 78.241 91.6595 78.241 92.0718C78.241 92.5356 78.1036 92.9135 77.8288 93.2056C77.5539 93.4976 77.1545 93.708 76.6305 93.8369C76.1066 93.9657 75.4624 94.0301 74.6979 94.0301ZM74.7237 93.0638C75.2992 93.0638 75.763 93.0252 76.1152 92.9479C76.4759 92.8792 76.7379 92.7675 76.9011 92.6129C77.0729 92.4583 77.1588 92.2607 77.1588 92.0202C77.1588 91.7969 77.0987 91.6251 76.9784 91.5049C76.8667 91.376 76.725 91.2858 76.5532 91.2343C76.3814 91.1828 76.2097 91.1527 76.0379 91.1441C75.8661 91.1269 75.7201 91.1183 75.5998 91.1183H74.0924C73.5942 91.23 73.2506 91.3846 73.0616 91.5822C72.8727 91.7797 72.7782 91.9902 72.7782 92.2135C72.7782 92.454 72.8641 92.6344 73.0359 92.7546C73.2077 92.8749 73.4396 92.9565 73.7316 92.9994C74.0322 93.0424 74.3629 93.0638 74.7237 93.0638ZM74.8783 88.5673C75.4194 88.5673 75.8274 88.4556 76.1023 88.2323C76.3771 88.009 76.5146 87.7083 76.5146 87.3304C76.5146 86.9267 76.3729 86.596 76.0894 86.3383C75.8145 86.0721 75.398 85.9389 74.8396 85.9389C74.2985 85.9389 73.8819 86.0635 73.5899 86.3126C73.3064 86.5617 73.1647 86.8838 73.1647 87.2789C73.1647 87.5366 73.2291 87.7642 73.358 87.9617C73.4954 88.1507 73.6887 88.301 73.9378 88.4127C74.1954 88.5157 74.509 88.5673 74.8783 88.5673ZM79.7102 91.7754V87.6396V85.1143H80.7667L80.6508 87.2273H80.8698C80.9901 86.7034 81.149 86.2739 81.3465 85.9389C81.5527 85.6039 81.8103 85.3548 82.1196 85.1916C82.4288 85.0284 82.7895 84.9468 83.2018 84.9468C83.9405 84.9468 84.4988 85.2131 84.8768 85.7457C85.2633 86.2696 85.4565 87.0555 85.4565 88.1035V91.7754H84.2712V88.2065C84.2712 87.4507 84.151 86.8923 83.9105 86.5316C83.6785 86.1708 83.335 85.9905 82.8797 85.9905C82.4674 85.9905 82.1153 86.1193 81.8232 86.377C81.5398 86.6347 81.3165 86.9739 81.1533 87.3948C80.9901 87.8157 80.8999 88.2709 80.8827 88.7605V91.7754H79.7102ZM92.1773 91.9429C91.8166 91.9429 91.4902 91.8742 91.1981 91.7368C90.9061 91.5907 90.6742 91.3803 90.5024 91.1054C90.3306 90.822 90.2447 90.4655 90.2447 90.0361C90.2447 89.7183 90.3005 89.4391 90.4122 89.1986C90.5324 88.9581 90.7128 88.752 90.9533 88.5802C91.2024 88.4084 91.5202 88.2666 91.9068 88.155C92.2933 88.0433 92.7657 87.9488 93.324 87.8715C93.6418 87.8286 93.8995 87.7856 94.0971 87.7427C94.3032 87.6997 94.4535 87.631 94.548 87.5366C94.6425 87.4335 94.6897 87.2832 94.6897 87.0856C94.6897 86.7592 94.5781 86.4843 94.3547 86.261C94.1314 86.0377 93.7792 85.926 93.2982 85.926C93.0491 85.926 92.7958 85.969 92.5381 86.0549C92.2804 86.1408 92.0528 86.2868 91.8552 86.4929C91.6662 86.6905 91.546 86.9696 91.4945 87.3304L90.4122 86.9696C90.4809 86.6604 90.5926 86.3813 90.7472 86.1322C90.9104 85.8831 91.1165 85.6727 91.3656 85.5009C91.6147 85.3205 91.9025 85.1831 92.2289 85.0886C92.5638 84.9941 92.9332 84.9468 93.3369 84.9468C93.8952 84.9468 94.359 85.0413 94.7284 85.2303C95.1063 85.4193 95.3855 85.7113 95.5658 86.1064C95.7548 86.4929 95.8493 86.9911 95.8493 87.601V89.0826C95.8493 89.3489 95.8536 89.641 95.8622 89.9588C95.8794 90.268 95.9008 90.5815 95.9266 90.8993C95.9524 91.2085 95.9781 91.5006 96.0039 91.7754H94.9216C94.8959 91.5006 94.8701 91.2257 94.8443 90.9508C94.8272 90.676 94.8143 90.4011 94.8057 90.1263H94.6382C94.5093 90.4441 94.3376 90.7404 94.1228 91.0153C93.9081 91.2901 93.6375 91.5134 93.3111 91.6852C92.9933 91.857 92.6154 91.9429 92.1773 91.9429ZM92.5252 90.9895C92.7142 90.9895 92.9031 90.9594 93.0921 90.8993C93.2896 90.8392 93.4829 90.7404 93.6719 90.603C93.8694 90.4655 94.0541 90.2895 94.2259 90.0747C94.4063 89.86 94.5652 89.6023 94.7026 89.3017V88.0133L95.0376 88.0777C94.9002 88.2151 94.7155 88.3182 94.4836 88.3869C94.2602 88.4556 94.0112 88.5114 93.7363 88.5544C93.4614 88.5973 93.1866 88.6446 92.9117 88.6961C92.6369 88.7391 92.3835 88.8078 92.1516 88.9023C91.9282 88.9882 91.7478 89.1127 91.6104 89.2759C91.473 89.4391 91.4043 89.6624 91.4043 89.9459C91.4043 90.2895 91.5073 90.5514 91.7135 90.7318C91.9196 90.9036 92.1902 90.9895 92.5252 90.9895ZM99.8903 91.9043C99.2718 91.9043 98.8123 91.7368 98.5117 91.4018C98.211 91.0668 98.0607 90.5557 98.0607 89.8686V86.0935H97.0558L97.0686 85.1143H97.7C97.9147 85.1143 98.0693 85.0757 98.1638 84.9984C98.2669 84.9211 98.327 84.7922 98.3442 84.6119L98.473 83.6069H99.1945V85.1143H101.114V86.1064H99.1945V89.8428C99.1945 90.1864 99.2718 90.4355 99.4264 90.5901C99.5896 90.7361 99.8216 90.8091 100.122 90.8091C100.285 90.8091 100.453 90.7876 100.625 90.7447C100.805 90.7017 100.981 90.6159 101.153 90.487V91.6595C100.904 91.7539 100.672 91.8184 100.457 91.8527C100.251 91.8871 100.062 91.9043 99.8903 91.9043ZM61.3857 106.943C60.9219 106.943 60.5096 106.891 60.1488 106.788C59.7881 106.694 59.4875 106.556 59.247 106.376C59.0065 106.187 58.8218 105.964 58.6929 105.706C58.5641 105.448 58.4954 105.165 58.4868 104.856L59.4789 104.598C59.4617 104.881 59.5304 105.131 59.685 105.345C59.8482 105.551 60.0758 105.71 60.3679 105.822C60.6685 105.934 61.0293 105.989 61.4501 105.989C61.9569 105.989 62.3477 105.904 62.6226 105.732C62.906 105.56 63.0478 105.324 63.0478 105.023C63.0478 104.783 62.9705 104.598 62.8159 104.469C62.6612 104.332 62.4465 104.224 62.1716 104.147C61.9054 104.061 61.5876 103.984 61.2182 103.915C60.909 103.846 60.5998 103.769 60.2906 103.683C59.9814 103.597 59.6979 103.486 59.4402 103.348C59.1911 103.202 58.9893 103.013 58.8347 102.781C58.6801 102.549 58.6028 102.262 58.6028 101.918C58.6028 101.514 58.7101 101.167 58.9249 100.875C59.1396 100.582 59.4445 100.355 59.8396 100.192C60.2347 100.028 60.7072 99.9468 61.2569 99.9468C61.8066 99.9468 62.2747 100.033 62.6612 100.205C63.0478 100.368 63.3527 100.6 63.576 100.9C63.7993 101.201 63.9239 101.553 63.9497 101.957L62.9318 102.214C62.9232 101.931 62.8459 101.69 62.6999 101.493C62.5625 101.295 62.3649 101.149 62.1072 101.055C61.8495 100.952 61.5489 100.9 61.2053 100.9C60.7501 100.9 60.3893 100.986 60.1231 101.158C59.8568 101.33 59.7237 101.566 59.7237 101.867C59.7237 102.09 59.801 102.27 59.9556 102.408C60.1188 102.545 60.3378 102.653 60.6127 102.73C60.8875 102.807 61.1925 102.884 61.5274 102.962C61.871 103.03 62.1974 103.108 62.5066 103.194C62.8244 103.28 63.1079 103.391 63.357 103.529C63.6061 103.666 63.8036 103.851 63.9497 104.083C64.0957 104.306 64.1687 104.594 64.1687 104.946C64.1687 105.384 64.0527 105.753 63.8208 106.054C63.5889 106.346 63.2625 106.569 62.8416 106.724C62.4293 106.87 61.944 106.943 61.3857 106.943ZM68.6295 106.943C68.0454 106.943 67.5472 106.848 67.1349 106.659C66.7312 106.47 66.4006 106.217 66.1429 105.899C65.8938 105.581 65.7091 105.216 65.5889 104.804C65.4772 104.392 65.4214 103.962 65.4214 103.516C65.4214 103.026 65.4858 102.567 65.6146 102.137C65.7435 101.708 65.9367 101.33 66.1944 101.003C66.4607 100.668 66.7871 100.411 67.1736 100.23C67.5687 100.041 68.0282 99.9468 68.5522 99.9468C69.059 99.9468 69.5056 100.037 69.8921 100.217C70.2787 100.389 70.5922 100.634 70.8327 100.952C71.0818 101.27 71.2407 101.648 71.3094 102.086L70.1885 102.395C70.1713 102.154 70.0983 101.922 69.9695 101.699C69.8492 101.476 69.6688 101.295 69.4283 101.158C69.1878 101.012 68.8915 100.939 68.5393 100.939C68.2043 100.939 67.9166 101.003 67.6761 101.132C67.4442 101.261 67.2466 101.441 67.0834 101.673C66.9288 101.905 66.8086 102.176 66.7227 102.485C66.6454 102.794 66.6067 103.129 66.6067 103.49C66.6067 103.988 66.6754 104.422 66.8128 104.791C66.9589 105.161 67.1822 105.448 67.4828 105.655C67.7834 105.861 68.17 105.964 68.6424 105.964C68.9946 105.964 69.2952 105.904 69.5443 105.783C69.7934 105.655 69.9909 105.478 70.1369 105.255C70.283 105.023 70.3774 104.753 70.4204 104.443L71.5027 104.688C71.4425 105.058 71.3309 105.384 71.1677 105.667C71.0045 105.951 70.7983 106.187 70.5492 106.376C70.3001 106.556 70.0124 106.694 69.686 106.788C69.3682 106.891 69.016 106.943 68.6295 106.943ZM74.5246 106.943C74.1638 106.943 73.8374 106.874 73.5454 106.737C73.2534 106.591 73.0214 106.38 72.8497 106.105C72.6779 105.822 72.592 105.466 72.592 105.036C72.592 104.718 72.6478 104.439 72.7595 104.199C72.8797 103.958 73.0601 103.752 73.3006 103.58C73.5497 103.408 73.8675 103.267 74.254 103.155C74.6405 103.043 75.113 102.949 75.6713 102.872C75.9891 102.829 76.2468 102.786 76.4443 102.743C76.6505 102.7 76.8008 102.631 76.8953 102.537C76.9897 102.433 77.037 102.283 77.037 102.086C77.037 101.759 76.9253 101.484 76.702 101.261C76.4787 101.038 76.1265 100.926 75.6455 100.926C75.3964 100.926 75.143 100.969 74.8853 101.055C74.6277 101.141 74.4 101.287 74.2025 101.493C74.0135 101.69 73.8933 101.97 73.8417 102.33L72.7595 101.97C72.8282 101.66 72.9398 101.381 73.0945 101.132C73.2576 100.883 73.4638 100.673 73.7129 100.501C73.962 100.32 74.2497 100.183 74.5761 100.089C74.9111 99.9941 75.2805 99.9468 75.6842 99.9468C76.2425 99.9468 76.7063 100.041 77.0756 100.23C77.4536 100.419 77.7327 100.711 77.9131 101.106C78.1021 101.493 78.1966 101.991 78.1966 102.601V104.083C78.1966 104.349 78.2009 104.641 78.2094 104.959C78.2266 105.268 78.2481 105.581 78.2739 105.899C78.2996 106.209 78.3254 106.501 78.3512 106.775H77.2689C77.2431 106.501 77.2174 106.226 77.1916 105.951C77.1744 105.676 77.1615 105.401 77.1529 105.126H76.9855C76.8566 105.444 76.6848 105.74 76.4701 106.015C76.2554 106.29 75.9848 106.513 75.6584 106.685C75.3406 106.857 74.9626 106.943 74.5246 106.943ZM74.8725 105.989C75.0614 105.989 75.2504 105.959 75.4394 105.899C75.6369 105.839 75.8302 105.74 76.0191 105.603C76.2167 105.466 76.4014 105.289 76.5732 105.075C76.7535 104.86 76.9124 104.602 77.0499 104.302V103.013L77.3849 103.078C77.2474 103.215 77.0628 103.318 76.8308 103.387C76.6075 103.456 76.3584 103.511 76.0836 103.554C75.8087 103.597 75.5338 103.645 75.259 103.696C74.9841 103.739 74.7307 103.808 74.4988 103.902C74.2755 103.988 74.0951 104.113 73.9577 104.276C73.8203 104.439 73.7515 104.662 73.7515 104.946C73.7515 105.289 73.8546 105.551 74.0608 105.732C74.2669 105.904 74.5375 105.989 74.8725 105.989ZM80.1632 106.775V97.7565H81.3356V106.775H80.1632ZM86.2193 106.943C85.6954 106.943 85.2315 106.866 84.8278 106.711C84.4327 106.548 84.0977 106.316 83.8229 106.015C83.548 105.715 83.3419 105.358 83.2044 104.946C83.067 104.534 82.9983 104.07 82.9983 103.554C82.9983 103.03 83.067 102.549 83.2044 102.111C83.3419 101.673 83.5437 101.291 83.81 100.965C84.0763 100.638 84.4027 100.389 84.7892 100.217C85.1757 100.037 85.6181 99.9468 86.1163 99.9468C86.5543 99.9468 86.9537 100.02 87.3145 100.166C87.6752 100.312 87.9802 100.54 88.2292 100.849C88.4869 101.149 88.6802 101.532 88.809 101.995C88.9379 102.451 88.9894 102.987 88.9636 103.606L83.7327 103.645V102.846L88.255 102.807L87.8556 103.348C87.8986 102.807 87.847 102.36 87.701 102.008C87.555 101.656 87.3445 101.39 87.0697 101.209C86.8034 101.029 86.4856 100.939 86.1163 100.939C85.7211 100.939 85.3733 101.042 85.0726 101.248C84.772 101.454 84.5401 101.751 84.3769 102.137C84.2223 102.524 84.145 102.992 84.145 103.542C84.145 104.332 84.3211 104.937 84.6732 105.358C85.0254 105.77 85.5494 105.977 86.2451 105.977C86.5114 105.977 86.7433 105.947 86.9408 105.886C87.147 105.818 87.3188 105.728 87.4562 105.616C87.6022 105.496 87.7182 105.358 87.8041 105.204C87.8986 105.049 87.9716 104.881 88.0231 104.701L89.0538 104.946C88.9765 105.255 88.8563 105.534 88.6931 105.783C88.5385 106.024 88.3409 106.23 88.1004 106.402C87.8685 106.574 87.5979 106.707 87.2887 106.801C86.9795 106.896 86.623 106.943 86.2193 106.943Z" fill="white"/>
</g>
<defs>
<filter id="filter0_d_1144_89" x="23.8211" y="47.8713" width="99.7544" height="71.5348" filterUnits="userSpaceOnUse" color-interpolation-filters="sRGB">
<feFlood flood-opacity="0" result="BackgroundImageFix"/>
<feColorMatrix in="SourceAlpha" type="matrix" values="0 0 0 0 0 0 0 0 0 0 0 0 0 0 0 0 0 0 127 0" result="hardAlpha"/>
<feOffset dy="2.07719"/>
<feGaussianBlur stdDeviation="5.19298"/>
<feComposite in2="hardAlpha" operator="out"/>
<feColorMatrix type="matrix" values="0 0 0 0 0 0 0 0 0 0 0 0 0 0 0 0 0 0 0.25 0"/>
<feBlend mode="normal" in2="BackgroundImageFix" result="effect1_dropShadow_1144_89"/>
<feBlend mode="normal" in="SourceGraphic" in2="effect1_dropShadow_1144_89" result="shape"/>
</filter>
<linearGradient id="paint0_linear_1144_89" x1="42.8145" y1="42.8151" x2="98.0247" y2="98.0253" gradientUnits="userSpaceOnUse">
<stop stop-color="#010101" stop-opacity="0.1"/>
<stop offset="1" stop-color="#010101" stop-opacity="0"/>
</linearGradient>
<linearGradient id="paint1_linear_1144_89" x1="7.141" y1="42.8213" x2="140.859" y2="105.179" gradientUnits="userSpaceOnUse">
<stop stop-color="white" stop-opacity="0.2"/>
<stop offset="1" stop-color="white" stop-opacity="0"/>
</linearGradient>
<clipPath id="clip0_1144_89">
<rect width="148" height="148" fill="white"/>
</clipPath>
</defs>
</svg>
