<svg width="250" height="12" viewBox="0 0 250 12" fill="none" xmlns="http://www.w3.org/2000/svg">
<path d="M1 4.64112C2.07416 4.64112 11.3546 4.64112 25.5845 4.84252C31.0904 4.92044 33.1012 5.4467 40.7176 5.6542C48.334 5.8617 61.4919 5.8617 69.0086 6.0631C76.5253 6.26449 78.0022 6.66728 101.252 6.87478C124.502 7.08227 169.48 7.08227 193.121 6.88088C219.372 6.65725 222.584 4.77945 228.005 4.50686C233.496 4.23075 237.767 2.61496 242.117 1.79514C243.868 1.46499 245.783 1.38625 247.813 1.31912C248.771 1.28744 249.575 1.11772 248.043 1.04856C242.622 0.803807 236.592 1.51644 222.396 2.46442C210.235 3.27656 187.927 3.14388 174.029 3.34934C155.296 3.62628 148.303 4.36445 144.312 5.17817C140.523 5.95064 137.713 5.5891 121.925 5.79253C106.943 5.98558 77.8068 5.8617 62.4621 6.0631C44.7785 6.29519 41.5639 8.02618 38.4433 9.1125C37.6292 9.3959 36.8199 9.65362 36.0021 9.79195C35.1843 9.93029 34.3787 9.93029 47.3901 9.93029C60.4014 9.93029 87.2541 9.93029 117.937 9.99742C148.621 10.0645 182.321 10.1988 200.084 10.3351C217.848 10.4714 218.653 10.6057 221.418 10.6748C224.182 10.744 228.882 10.744 233.723 10.744" stroke="#B6A4FF" stroke-width="2" stroke-linecap="round"/>
</svg>
