<svg xmlns="http://www.w3.org/2000/svg" xmlns:xlink="http://www.w3.org/1999/xlink" width="1661" height="1227" viewBox="0 0 1661 1227">
  <defs>
    <clipPath id="clip-path">
      <rect width="1661" height="1227" fill="none"/>
    </clipPath>
  </defs>
  <g id="box-grid" clip-path="url(#clip-path)">
    <g transform="translate(-100 -576)">
      <g id="Rectangle_33" data-name="Rectangle 33" transform="translate(100 576)" fill="none" stroke="#e5e5e5" stroke-width="1" stroke-dasharray="8 6">
        <rect width="120" height="120" stroke="none"/>
        <rect x="0.5" y="0.5" width="119" height="119" fill="none"/>
      </g>
    </g>
    <g transform="translate(36 -576)">
      <g id="Rectangle_33-2" data-name="Rectangle 33" transform="translate(100 576)" fill="none" stroke="#e5e5e5" stroke-width="1" stroke-dasharray="8 6">
        <rect width="120" height="120" stroke="none"/>
        <rect x="0.5" y="0.5" width="119" height="119" fill="none"/>
      </g>
    </g>
    <g transform="translate(172 -576)">
      <g id="Rectangle_33-3" data-name="Rectangle 33" transform="translate(100 576)" fill="none" stroke="#e5e5e5" stroke-width="1" stroke-dasharray="8 6">
        <rect width="120" height="120" stroke="none"/>
        <rect x="0.5" y="0.5" width="119" height="119" fill="none"/>
      </g>
    </g>
    <g transform="translate(308 -576)">
      <g id="Rectangle_33-4" data-name="Rectangle 33" transform="translate(100 576)" fill="none" stroke="#e5e5e5" stroke-width="1" stroke-dasharray="8 6">
        <rect width="120" height="120" stroke="none"/>
        <rect x="0.5" y="0.5" width="119" height="119" fill="none"/>
      </g>
    </g>
    <g transform="translate(444 -576)">
      <g id="Rectangle_33-5" data-name="Rectangle 33" transform="translate(100 576)" fill="none" stroke="#e5e5e5" stroke-width="1" stroke-dasharray="8 6">
        <rect width="120" height="120" stroke="none"/>
        <rect x="0.5" y="0.5" width="119" height="119" fill="none"/>
      </g>
    </g>
    <g transform="translate(580 -576)">
      <g id="Rectangle_33-6" data-name="Rectangle 33" transform="translate(100 576)" fill="none" stroke="#e5e5e5" stroke-width="1" stroke-dasharray="8 6">
        <rect width="120" height="120" stroke="none"/>
        <rect x="0.5" y="0.5" width="119" height="119" fill="none"/>
      </g>
    </g>
    <g transform="translate(716 -576)">
      <g id="Rectangle_33-7" data-name="Rectangle 33" transform="translate(100 576)" fill="none" stroke="#e5e5e5" stroke-width="1" stroke-dasharray="8 6">
        <rect width="120" height="120" stroke="none"/>
        <rect x="0.5" y="0.5" width="119" height="119" fill="none"/>
      </g>
    </g>
    <g transform="translate(852 -576)">
      <g id="Rectangle_33-8" data-name="Rectangle 33" transform="translate(100 576)" fill="none" stroke="#e5e5e5" stroke-width="1" stroke-dasharray="8 6">
        <rect width="120" height="120" stroke="none"/>
        <rect x="0.5" y="0.5" width="119" height="119" fill="none"/>
      </g>
    </g>
    <g transform="translate(988 -576)">
      <g id="Rectangle_33-9" data-name="Rectangle 33" transform="translate(100 576)" fill="none" stroke="#e5e5e5" stroke-width="1" stroke-dasharray="8 6">
        <rect width="120" height="120" stroke="none"/>
        <rect x="0.5" y="0.5" width="119" height="119" fill="none"/>
      </g>
    </g>
    <g transform="translate(1124 -576)">
      <g id="Rectangle_33-10" data-name="Rectangle 33" transform="translate(100 576)" fill="none" stroke="#e5e5e5" stroke-width="1" stroke-dasharray="8 6">
        <rect width="120" height="120" stroke="none"/>
        <rect x="0.5" y="0.5" width="119" height="119" fill="none"/>
      </g>
    </g>
    <g transform="translate(1260 -576)">
      <g id="Rectangle_33-11" data-name="Rectangle 33" transform="translate(100 576)" fill="none" stroke="#e5e5e5" stroke-width="1" stroke-dasharray="8 6">
        <rect width="120" height="120" stroke="none"/>
        <rect x="0.5" y="0.5" width="119" height="119" fill="none"/>
      </g>
    </g>
    <g transform="translate(1396 -576)">
      <g id="Rectangle_33-12" data-name="Rectangle 33" transform="translate(100 576)" fill="none" stroke="#e5e5e5" stroke-width="1" stroke-dasharray="8 6">
        <rect width="120" height="120" stroke="none"/>
        <rect x="0.5" y="0.5" width="119" height="119" fill="none"/>
      </g>
    </g>
    <g transform="translate(1532 -576)">
      <g id="Rectangle_33-13" data-name="Rectangle 33" transform="translate(100 576)" fill="none" stroke="#e5e5e5" stroke-width="1" stroke-dasharray="8 6">
        <rect width="120" height="120" stroke="none"/>
        <rect x="0.5" y="0.5" width="119" height="119" fill="none"/>
      </g>
    </g>
    <g transform="translate(-100 -440)">
      <g id="Rectangle_33-14" data-name="Rectangle 33" transform="translate(100 576)" fill="none" stroke="#e5e5e5" stroke-width="1" stroke-dasharray="8 6">
        <rect width="120" height="120" stroke="none"/>
        <rect x="0.5" y="0.5" width="119" height="119" fill="none"/>
      </g>
    </g>
    <g transform="translate(36 -440)">
      <g id="Rectangle_33-15" data-name="Rectangle 33" transform="translate(100 576)" fill="none" stroke="#e5e5e5" stroke-width="1" stroke-dasharray="8 6">
        <rect width="120" height="120" stroke="none"/>
        <rect x="0.5" y="0.5" width="119" height="119" fill="none"/>
      </g>
    </g>
    <g transform="translate(172 -440)">
      <g id="Rectangle_33-16" data-name="Rectangle 33" transform="translate(100 576)" fill="none" stroke="#e5e5e5" stroke-width="1" stroke-dasharray="8 6">
        <rect width="120" height="120" stroke="none"/>
        <rect x="0.5" y="0.5" width="119" height="119" fill="none"/>
      </g>
    </g>
    <g transform="translate(308 -440)">
      <g id="Rectangle_33-17" data-name="Rectangle 33" transform="translate(100 576)" fill="none" stroke="#e5e5e5" stroke-width="1" stroke-dasharray="8 6">
        <rect width="120" height="120" stroke="none"/>
        <rect x="0.5" y="0.5" width="119" height="119" fill="none"/>
      </g>
    </g>
    <g transform="translate(444 -440)">
      <g id="Rectangle_33-18" data-name="Rectangle 33" transform="translate(100 576)" fill="none" stroke="#e5e5e5" stroke-width="1" stroke-dasharray="8 6">
        <rect width="120" height="120" stroke="none"/>
        <rect x="0.5" y="0.5" width="119" height="119" fill="none"/>
      </g>
    </g>
    <g transform="translate(580 -440)">
      <g id="Rectangle_33-19" data-name="Rectangle 33" transform="translate(100 576)" fill="none" stroke="#e5e5e5" stroke-width="1" stroke-dasharray="8 6">
        <rect width="120" height="120" stroke="none"/>
        <rect x="0.5" y="0.5" width="119" height="119" fill="none"/>
      </g>
    </g>
    <g transform="translate(716 -440)">
      <g id="Rectangle_33-20" data-name="Rectangle 33" transform="translate(100 576)" fill="none" stroke="#e5e5e5" stroke-width="1" stroke-dasharray="8 6">
        <rect width="120" height="120" stroke="none"/>
        <rect x="0.5" y="0.5" width="119" height="119" fill="none"/>
      </g>
    </g>
    <g transform="translate(852 -440)">
      <g id="Rectangle_33-21" data-name="Rectangle 33" transform="translate(100 576)" fill="none" stroke="#e5e5e5" stroke-width="1" stroke-dasharray="8 6">
        <rect width="120" height="120" stroke="none"/>
        <rect x="0.5" y="0.5" width="119" height="119" fill="none"/>
      </g>
    </g>
    <g transform="translate(988 -440)">
      <g id="Rectangle_33-22" data-name="Rectangle 33" transform="translate(100 576)" fill="none" stroke="#e5e5e5" stroke-width="1" stroke-dasharray="8 6">
        <rect width="120" height="120" stroke="none"/>
        <rect x="0.5" y="0.5" width="119" height="119" fill="none"/>
      </g>
    </g>
    <g transform="translate(1124 -440)">
      <g id="Rectangle_33-23" data-name="Rectangle 33" transform="translate(100 576)" fill="none" stroke="#e5e5e5" stroke-width="1" stroke-dasharray="8 6">
        <rect width="120" height="120" stroke="none"/>
        <rect x="0.5" y="0.5" width="119" height="119" fill="none"/>
      </g>
    </g>
    <g transform="translate(1260 -440)">
      <g id="Rectangle_33-24" data-name="Rectangle 33" transform="translate(100 576)" fill="none" stroke="#e5e5e5" stroke-width="1" stroke-dasharray="8 6">
        <rect width="120" height="120" stroke="none"/>
        <rect x="0.5" y="0.5" width="119" height="119" fill="none"/>
      </g>
    </g>
    <g transform="translate(1396 -440)">
      <g id="Rectangle_33-25" data-name="Rectangle 33" transform="translate(100 576)" fill="none" stroke="#e5e5e5" stroke-width="1" stroke-dasharray="8 6">
        <rect width="120" height="120" stroke="none"/>
        <rect x="0.5" y="0.5" width="119" height="119" fill="none"/>
      </g>
    </g>
    <g transform="translate(1532 -440)">
      <g id="Rectangle_33-26" data-name="Rectangle 33" transform="translate(100 576)" fill="none" stroke="#e5e5e5" stroke-width="1" stroke-dasharray="8 6">
        <rect width="120" height="120" stroke="none"/>
        <rect x="0.5" y="0.5" width="119" height="119" fill="none"/>
      </g>
    </g>
    <g transform="translate(-100 -304)">
      <g id="Rectangle_33-27" data-name="Rectangle 33" transform="translate(100 576)" fill="none" stroke="#e5e5e5" stroke-width="1" stroke-dasharray="8 6">
        <rect width="120" height="120" stroke="none"/>
        <rect x="0.5" y="0.5" width="119" height="119" fill="none"/>
      </g>
    </g>
    <g transform="translate(36 -304)">
      <g id="Rectangle_33-28" data-name="Rectangle 33" transform="translate(100 576)" fill="none" stroke="#e5e5e5" stroke-width="1" stroke-dasharray="8 6">
        <rect width="120" height="120" stroke="none"/>
        <rect x="0.5" y="0.5" width="119" height="119" fill="none"/>
      </g>
    </g>
    <g transform="translate(172 -304)">
      <g id="Rectangle_33-29" data-name="Rectangle 33" transform="translate(100 576)" fill="none" stroke="#e5e5e5" stroke-width="1" stroke-dasharray="8 6">
        <rect width="120" height="120" stroke="none"/>
        <rect x="0.5" y="0.5" width="119" height="119" fill="none"/>
      </g>
    </g>
    <g transform="translate(308 -304)">
      <g id="Rectangle_33-30" data-name="Rectangle 33" transform="translate(100 576)" fill="none" stroke="#e5e5e5" stroke-width="1" stroke-dasharray="8 6">
        <rect width="120" height="120" stroke="none"/>
        <rect x="0.5" y="0.5" width="119" height="119" fill="none"/>
      </g>
    </g>
    <g transform="translate(444 -304)">
      <g id="Rectangle_33-31" data-name="Rectangle 33" transform="translate(100 576)" fill="none" stroke="#e5e5e5" stroke-width="1" stroke-dasharray="8 6">
        <rect width="120" height="120" stroke="none"/>
        <rect x="0.5" y="0.5" width="119" height="119" fill="none"/>
      </g>
    </g>
    <g transform="translate(580 -304)">
      <g id="Rectangle_33-32" data-name="Rectangle 33" transform="translate(100 576)" fill="none" stroke="#e5e5e5" stroke-width="1" stroke-dasharray="8 6">
        <rect width="120" height="120" stroke="none"/>
        <rect x="0.5" y="0.5" width="119" height="119" fill="none"/>
      </g>
    </g>
    <g transform="translate(716 -304)">
      <g id="Rectangle_33-33" data-name="Rectangle 33" transform="translate(100 576)" fill="none" stroke="#e5e5e5" stroke-width="1" stroke-dasharray="8 6">
        <rect width="120" height="120" stroke="none"/>
        <rect x="0.5" y="0.5" width="119" height="119" fill="none"/>
      </g>
    </g>
    <g transform="translate(852 -304)">
      <g id="Rectangle_33-34" data-name="Rectangle 33" transform="translate(100 576)" fill="none" stroke="#e5e5e5" stroke-width="1" stroke-dasharray="8 6">
        <rect width="120" height="120" stroke="none"/>
        <rect x="0.5" y="0.5" width="119" height="119" fill="none"/>
      </g>
    </g>
    <g transform="translate(988 -304)">
      <g id="Rectangle_33-35" data-name="Rectangle 33" transform="translate(100 576)" fill="none" stroke="#e5e5e5" stroke-width="1" stroke-dasharray="8 6">
        <rect width="120" height="120" stroke="none"/>
        <rect x="0.5" y="0.5" width="119" height="119" fill="none"/>
      </g>
    </g>
    <g transform="translate(1124 -304)">
      <g id="Rectangle_33-36" data-name="Rectangle 33" transform="translate(100 576)" fill="none" stroke="#e5e5e5" stroke-width="1" stroke-dasharray="8 6">
        <rect width="120" height="120" stroke="none"/>
        <rect x="0.5" y="0.5" width="119" height="119" fill="none"/>
      </g>
    </g>
    <g transform="translate(1260 -304)">
      <g id="Rectangle_33-37" data-name="Rectangle 33" transform="translate(100 576)" fill="none" stroke="#e5e5e5" stroke-width="1" stroke-dasharray="8 6">
        <rect width="120" height="120" stroke="none"/>
        <rect x="0.5" y="0.5" width="119" height="119" fill="none"/>
      </g>
    </g>
    <g transform="translate(1396 -304)">
      <g id="Rectangle_33-38" data-name="Rectangle 33" transform="translate(100 576)" fill="none" stroke="#e5e5e5" stroke-width="1" stroke-dasharray="8 6">
        <rect width="120" height="120" stroke="none"/>
        <rect x="0.5" y="0.5" width="119" height="119" fill="none"/>
      </g>
    </g>
    <g transform="translate(1532 -304)">
      <g id="Rectangle_33-39" data-name="Rectangle 33" transform="translate(100 576)" fill="none" stroke="#e5e5e5" stroke-width="1" stroke-dasharray="8 6">
        <rect width="120" height="120" stroke="none"/>
        <rect x="0.5" y="0.5" width="119" height="119" fill="none"/>
      </g>
    </g>
    <g transform="translate(-100 -168)">
      <g id="Rectangle_33-40" data-name="Rectangle 33" transform="translate(100 576)" fill="none" stroke="#e5e5e5" stroke-width="1" stroke-dasharray="8 6">
        <rect width="120" height="120" stroke="none"/>
        <rect x="0.5" y="0.5" width="119" height="119" fill="none"/>
      </g>
    </g>
    <g transform="translate(36 -168)">
      <g id="Rectangle_33-41" data-name="Rectangle 33" transform="translate(100 576)" fill="none" stroke="#e5e5e5" stroke-width="1" stroke-dasharray="8 6">
        <rect width="120" height="120" stroke="none"/>
        <rect x="0.5" y="0.5" width="119" height="119" fill="none"/>
      </g>
    </g>
    <g transform="translate(172 -168)">
      <g id="Rectangle_33-42" data-name="Rectangle 33" transform="translate(100 576)" fill="none" stroke="#e5e5e5" stroke-width="1" stroke-dasharray="8 6">
        <rect width="120" height="120" stroke="none"/>
        <rect x="0.5" y="0.5" width="119" height="119" fill="none"/>
      </g>
    </g>
    <g transform="translate(308 -168)">
      <g id="Rectangle_33-43" data-name="Rectangle 33" transform="translate(100 576)" fill="none" stroke="#e5e5e5" stroke-width="1" stroke-dasharray="8 6">
        <rect width="120" height="120" stroke="none"/>
        <rect x="0.5" y="0.5" width="119" height="119" fill="none"/>
      </g>
    </g>
    <g transform="translate(444 -168)">
      <g id="Rectangle_33-44" data-name="Rectangle 33" transform="translate(100 576)" fill="none" stroke="#e5e5e5" stroke-width="1" stroke-dasharray="8 6">
        <rect width="120" height="120" stroke="none"/>
        <rect x="0.5" y="0.5" width="119" height="119" fill="none"/>
      </g>
    </g>
    <g transform="translate(580 -168)">
      <g id="Rectangle_33-45" data-name="Rectangle 33" transform="translate(100 576)" fill="none" stroke="#e5e5e5" stroke-width="1" stroke-dasharray="8 6">
        <rect width="120" height="120" stroke="none"/>
        <rect x="0.5" y="0.5" width="119" height="119" fill="none"/>
      </g>
    </g>
    <g transform="translate(716 -168)">
      <g id="Rectangle_33-46" data-name="Rectangle 33" transform="translate(100 576)" fill="none" stroke="#e5e5e5" stroke-width="1" stroke-dasharray="8 6">
        <rect width="120" height="120" stroke="none"/>
        <rect x="0.5" y="0.5" width="119" height="119" fill="none"/>
      </g>
    </g>
    <g transform="translate(852 -168)">
      <g id="Rectangle_33-47" data-name="Rectangle 33" transform="translate(100 576)" fill="none" stroke="#e5e5e5" stroke-width="1" stroke-dasharray="8 6">
        <rect width="120" height="120" stroke="none"/>
        <rect x="0.5" y="0.5" width="119" height="119" fill="none"/>
      </g>
    </g>
    <g transform="translate(988 -168)">
      <g id="Rectangle_33-48" data-name="Rectangle 33" transform="translate(100 576)" fill="none" stroke="#e5e5e5" stroke-width="1" stroke-dasharray="8 6">
        <rect width="120" height="120" stroke="none"/>
        <rect x="0.5" y="0.5" width="119" height="119" fill="none"/>
      </g>
    </g>
    <g transform="translate(1124 -168)">
      <g id="Rectangle_33-49" data-name="Rectangle 33" transform="translate(100 576)" fill="none" stroke="#e5e5e5" stroke-width="1" stroke-dasharray="8 6">
        <rect width="120" height="120" stroke="none"/>
        <rect x="0.5" y="0.5" width="119" height="119" fill="none"/>
      </g>
    </g>
    <g transform="translate(1260 -168)">
      <g id="Rectangle_33-50" data-name="Rectangle 33" transform="translate(100 576)" fill="none" stroke="#e5e5e5" stroke-width="1" stroke-dasharray="8 6">
        <rect width="120" height="120" stroke="none"/>
        <rect x="0.5" y="0.5" width="119" height="119" fill="none"/>
      </g>
    </g>
    <g transform="translate(1396 -168)">
      <g id="Rectangle_33-51" data-name="Rectangle 33" transform="translate(100 576)" fill="none" stroke="#e5e5e5" stroke-width="1" stroke-dasharray="8 6">
        <rect width="120" height="120" stroke="none"/>
        <rect x="0.5" y="0.5" width="119" height="119" fill="none"/>
      </g>
    </g>
    <g transform="translate(1532 -168)">
      <g id="Rectangle_33-52" data-name="Rectangle 33" transform="translate(100 576)" fill="none" stroke="#e5e5e5" stroke-width="1" stroke-dasharray="8 6">
        <rect width="120" height="120" stroke="none"/>
        <rect x="0.5" y="0.5" width="119" height="119" fill="none"/>
      </g>
    </g>
    <g transform="translate(-100 -32)">
      <g id="Rectangle_33-53" data-name="Rectangle 33" transform="translate(100 576)" fill="none" stroke="#e5e5e5" stroke-width="1" stroke-dasharray="8 6">
        <rect width="120" height="120" stroke="none"/>
        <rect x="0.5" y="0.5" width="119" height="119" fill="none"/>
      </g>
    </g>
    <g transform="translate(36 -32)">
      <g id="Rectangle_33-54" data-name="Rectangle 33" transform="translate(100 576)" fill="none" stroke="#e5e5e5" stroke-width="1" stroke-dasharray="8 6">
        <rect width="120" height="120" stroke="none"/>
        <rect x="0.5" y="0.5" width="119" height="119" fill="none"/>
      </g>
    </g>
    <g transform="translate(172 -32)">
      <g id="Rectangle_33-55" data-name="Rectangle 33" transform="translate(100 576)" fill="none" stroke="#e5e5e5" stroke-width="1" stroke-dasharray="8 6">
        <rect width="120" height="120" stroke="none"/>
        <rect x="0.5" y="0.5" width="119" height="119" fill="none"/>
      </g>
    </g>
    <g transform="translate(308 -32)">
      <g id="Rectangle_33-56" data-name="Rectangle 33" transform="translate(100 576)" fill="none" stroke="#e5e5e5" stroke-width="1" stroke-dasharray="8 6">
        <rect width="120" height="120" stroke="none"/>
        <rect x="0.5" y="0.5" width="119" height="119" fill="none"/>
      </g>
    </g>
    <g transform="translate(444 -32)">
      <g id="Rectangle_33-57" data-name="Rectangle 33" transform="translate(100 576)" fill="none" stroke="#e5e5e5" stroke-width="1" stroke-dasharray="8 6">
        <rect width="120" height="120" stroke="none"/>
        <rect x="0.5" y="0.5" width="119" height="119" fill="none"/>
      </g>
    </g>
    <g transform="translate(580 -32)">
      <g id="Rectangle_33-58" data-name="Rectangle 33" transform="translate(100 576)" fill="none" stroke="#e5e5e5" stroke-width="1" stroke-dasharray="8 6">
        <rect width="120" height="120" stroke="none"/>
        <rect x="0.5" y="0.5" width="119" height="119" fill="none"/>
      </g>
    </g>
    <g transform="translate(716 -32)">
      <g id="Rectangle_33-59" data-name="Rectangle 33" transform="translate(100 576)" fill="none" stroke="#e5e5e5" stroke-width="1" stroke-dasharray="8 6">
        <rect width="120" height="120" stroke="none"/>
        <rect x="0.5" y="0.5" width="119" height="119" fill="none"/>
      </g>
    </g>
    <g transform="translate(852 -32)">
      <g id="Rectangle_33-60" data-name="Rectangle 33" transform="translate(100 576)" fill="none" stroke="#e5e5e5" stroke-width="1" stroke-dasharray="8 6">
        <rect width="120" height="120" stroke="none"/>
        <rect x="0.5" y="0.5" width="119" height="119" fill="none"/>
      </g>
    </g>
    <g transform="translate(988 -32)">
      <g id="Rectangle_33-61" data-name="Rectangle 33" transform="translate(100 576)" fill="none" stroke="#e5e5e5" stroke-width="1" stroke-dasharray="8 6">
        <rect width="120" height="120" stroke="none"/>
        <rect x="0.5" y="0.5" width="119" height="119" fill="none"/>
      </g>
    </g>
    <g transform="translate(1124 -32)">
      <g id="Rectangle_33-62" data-name="Rectangle 33" transform="translate(100 576)" fill="none" stroke="#e5e5e5" stroke-width="1" stroke-dasharray="8 6">
        <rect width="120" height="120" stroke="none"/>
        <rect x="0.5" y="0.5" width="119" height="119" fill="none"/>
      </g>
    </g>
    <g transform="translate(1260 -32)">
      <g id="Rectangle_33-63" data-name="Rectangle 33" transform="translate(100 576)" fill="none" stroke="#e5e5e5" stroke-width="1" stroke-dasharray="8 6">
        <rect width="120" height="120" stroke="none"/>
        <rect x="0.5" y="0.5" width="119" height="119" fill="none"/>
      </g>
    </g>
    <g transform="translate(1396 -32)">
      <g id="Rectangle_33-64" data-name="Rectangle 33" transform="translate(100 576)" fill="none" stroke="#e5e5e5" stroke-width="1" stroke-dasharray="8 6">
        <rect width="120" height="120" stroke="none"/>
        <rect x="0.5" y="0.5" width="119" height="119" fill="none"/>
      </g>
    </g>
    <g transform="translate(1532 -32)">
      <g id="Rectangle_33-65" data-name="Rectangle 33" transform="translate(100 576)" fill="none" stroke="#e5e5e5" stroke-width="1" stroke-dasharray="8 6">
        <rect width="120" height="120" stroke="none"/>
        <rect x="0.5" y="0.5" width="119" height="119" fill="none"/>
      </g>
    </g>
    <g transform="translate(-100 104)">
      <g id="Rectangle_33-66" data-name="Rectangle 33" transform="translate(100 576)" fill="none" stroke="#e5e5e5" stroke-width="1" stroke-dasharray="8 6">
        <rect width="120" height="120" stroke="none"/>
        <rect x="0.5" y="0.5" width="119" height="119" fill="none"/>
      </g>
    </g>
    <g transform="translate(36 104)">
      <g id="Rectangle_33-67" data-name="Rectangle 33" transform="translate(100 576)" fill="none" stroke="#e5e5e5" stroke-width="1" stroke-dasharray="8 6">
        <rect width="120" height="120" stroke="none"/>
        <rect x="0.5" y="0.5" width="119" height="119" fill="none"/>
      </g>
    </g>
    <g transform="translate(172 104)">
      <g id="Rectangle_33-68" data-name="Rectangle 33" transform="translate(100 576)" fill="none" stroke="#e5e5e5" stroke-width="1" stroke-dasharray="8 6">
        <rect width="120" height="120" stroke="none"/>
        <rect x="0.5" y="0.5" width="119" height="119" fill="none"/>
      </g>
    </g>
    <g transform="translate(308 104)">
      <g id="Rectangle_33-69" data-name="Rectangle 33" transform="translate(100 576)" fill="none" stroke="#e5e5e5" stroke-width="1" stroke-dasharray="8 6">
        <rect width="120" height="120" stroke="none"/>
        <rect x="0.5" y="0.5" width="119" height="119" fill="none"/>
      </g>
    </g>
    <g transform="translate(444 104)">
      <g id="Rectangle_33-70" data-name="Rectangle 33" transform="translate(100 576)" fill="none" stroke="#e5e5e5" stroke-width="1" stroke-dasharray="8 6">
        <rect width="120" height="120" stroke="none"/>
        <rect x="0.5" y="0.5" width="119" height="119" fill="none"/>
      </g>
    </g>
    <g transform="translate(580 104)">
      <g id="Rectangle_33-71" data-name="Rectangle 33" transform="translate(100 576)" fill="none" stroke="#e5e5e5" stroke-width="1" stroke-dasharray="8 6">
        <rect width="120" height="120" stroke="none"/>
        <rect x="0.5" y="0.5" width="119" height="119" fill="none"/>
      </g>
    </g>
    <g transform="translate(716 104)">
      <g id="Rectangle_33-72" data-name="Rectangle 33" transform="translate(100 576)" fill="none" stroke="#e5e5e5" stroke-width="1" stroke-dasharray="8 6">
        <rect width="120" height="120" stroke="none"/>
        <rect x="0.5" y="0.5" width="119" height="119" fill="none"/>
      </g>
    </g>
    <g transform="translate(852 104)">
      <g id="Rectangle_33-73" data-name="Rectangle 33" transform="translate(100 576)" fill="none" stroke="#e5e5e5" stroke-width="1" stroke-dasharray="8 6">
        <rect width="120" height="120" stroke="none"/>
        <rect x="0.5" y="0.5" width="119" height="119" fill="none"/>
      </g>
    </g>
    <g transform="translate(988 104)">
      <g id="Rectangle_33-74" data-name="Rectangle 33" transform="translate(100 576)" fill="none" stroke="#e5e5e5" stroke-width="1" stroke-dasharray="8 6">
        <rect width="120" height="120" stroke="none"/>
        <rect x="0.5" y="0.5" width="119" height="119" fill="none"/>
      </g>
    </g>
    <g transform="translate(1124 104)">
      <g id="Rectangle_33-75" data-name="Rectangle 33" transform="translate(100 576)" fill="none" stroke="#e5e5e5" stroke-width="1" stroke-dasharray="8 6">
        <rect width="120" height="120" stroke="none"/>
        <rect x="0.5" y="0.5" width="119" height="119" fill="none"/>
      </g>
    </g>
    <g transform="translate(1260 104)">
      <g id="Rectangle_33-76" data-name="Rectangle 33" transform="translate(100 576)" fill="none" stroke="#e5e5e5" stroke-width="1" stroke-dasharray="8 6">
        <rect width="120" height="120" stroke="none"/>
        <rect x="0.5" y="0.5" width="119" height="119" fill="none"/>
      </g>
    </g>
    <g transform="translate(1396 104)">
      <g id="Rectangle_33-77" data-name="Rectangle 33" transform="translate(100 576)" fill="none" stroke="#e5e5e5" stroke-width="1" stroke-dasharray="8 6">
        <rect width="120" height="120" stroke="none"/>
        <rect x="0.5" y="0.5" width="119" height="119" fill="none"/>
      </g>
    </g>
    <g transform="translate(1532 104)">
      <g id="Rectangle_33-78" data-name="Rectangle 33" transform="translate(100 576)" fill="none" stroke="#e5e5e5" stroke-width="1" stroke-dasharray="8 6">
        <rect width="120" height="120" stroke="none"/>
        <rect x="0.5" y="0.5" width="119" height="119" fill="none"/>
      </g>
    </g>
    <g transform="translate(-100 240)">
      <g id="Rectangle_33-79" data-name="Rectangle 33" transform="translate(100 576)" fill="none" stroke="#e5e5e5" stroke-width="1" stroke-dasharray="8 6">
        <rect width="120" height="120" stroke="none"/>
        <rect x="0.5" y="0.5" width="119" height="119" fill="none"/>
      </g>
    </g>
    <g transform="translate(36 240)">
      <g id="Rectangle_33-80" data-name="Rectangle 33" transform="translate(100 576)" fill="none" stroke="#e5e5e5" stroke-width="1" stroke-dasharray="8 6">
        <rect width="120" height="120" stroke="none"/>
        <rect x="0.5" y="0.5" width="119" height="119" fill="none"/>
      </g>
    </g>
    <g transform="translate(172 240)">
      <g id="Rectangle_33-81" data-name="Rectangle 33" transform="translate(100 576)" fill="none" stroke="#e5e5e5" stroke-width="1" stroke-dasharray="8 6">
        <rect width="120" height="120" stroke="none"/>
        <rect x="0.5" y="0.5" width="119" height="119" fill="none"/>
      </g>
    </g>
    <g transform="translate(308 240)">
      <g id="Rectangle_33-82" data-name="Rectangle 33" transform="translate(100 576)" fill="none" stroke="#e5e5e5" stroke-width="1" stroke-dasharray="8 6">
        <rect width="120" height="120" stroke="none"/>
        <rect x="0.5" y="0.5" width="119" height="119" fill="none"/>
      </g>
    </g>
    <g transform="translate(444 240)">
      <g id="Rectangle_33-83" data-name="Rectangle 33" transform="translate(100 576)" fill="none" stroke="#e5e5e5" stroke-width="1" stroke-dasharray="8 6">
        <rect width="120" height="120" stroke="none"/>
        <rect x="0.5" y="0.5" width="119" height="119" fill="none"/>
      </g>
    </g>
    <g transform="translate(580 240)">
      <g id="Rectangle_33-84" data-name="Rectangle 33" transform="translate(100 576)" fill="none" stroke="#e5e5e5" stroke-width="1" stroke-dasharray="8 6">
        <rect width="120" height="120" stroke="none"/>
        <rect x="0.5" y="0.5" width="119" height="119" fill="none"/>
      </g>
    </g>
    <g transform="translate(716 240)">
      <g id="Rectangle_33-85" data-name="Rectangle 33" transform="translate(100 576)" fill="none" stroke="#e5e5e5" stroke-width="1" stroke-dasharray="8 6">
        <rect width="120" height="120" stroke="none"/>
        <rect x="0.5" y="0.5" width="119" height="119" fill="none"/>
      </g>
    </g>
    <g transform="translate(852 240)">
      <g id="Rectangle_33-86" data-name="Rectangle 33" transform="translate(100 576)" fill="none" stroke="#e5e5e5" stroke-width="1" stroke-dasharray="8 6">
        <rect width="120" height="120" stroke="none"/>
        <rect x="0.5" y="0.5" width="119" height="119" fill="none"/>
      </g>
    </g>
    <g transform="translate(988 240)">
      <g id="Rectangle_33-87" data-name="Rectangle 33" transform="translate(100 576)" fill="none" stroke="#e5e5e5" stroke-width="1" stroke-dasharray="8 6">
        <rect width="120" height="120" stroke="none"/>
        <rect x="0.5" y="0.5" width="119" height="119" fill="none"/>
      </g>
    </g>
    <g transform="translate(1124 240)">
      <g id="Rectangle_33-88" data-name="Rectangle 33" transform="translate(100 576)" fill="none" stroke="#e5e5e5" stroke-width="1" stroke-dasharray="8 6">
        <rect width="120" height="120" stroke="none"/>
        <rect x="0.5" y="0.5" width="119" height="119" fill="none"/>
      </g>
    </g>
    <g transform="translate(1260 240)">
      <g id="Rectangle_33-89" data-name="Rectangle 33" transform="translate(100 576)" fill="none" stroke="#e5e5e5" stroke-width="1" stroke-dasharray="8 6">
        <rect width="120" height="120" stroke="none"/>
        <rect x="0.5" y="0.5" width="119" height="119" fill="none"/>
      </g>
    </g>
    <g transform="translate(1396 240)">
      <g id="Rectangle_33-90" data-name="Rectangle 33" transform="translate(100 576)" fill="none" stroke="#e5e5e5" stroke-width="1" stroke-dasharray="8 6">
        <rect width="120" height="120" stroke="none"/>
        <rect x="0.5" y="0.5" width="119" height="119" fill="none"/>
      </g>
    </g>
    <g transform="translate(1532 240)">
      <g id="Rectangle_33-91" data-name="Rectangle 33" transform="translate(100 576)" fill="none" stroke="#e5e5e5" stroke-width="1" stroke-dasharray="8 6">
        <rect width="120" height="120" stroke="none"/>
        <rect x="0.5" y="0.5" width="119" height="119" fill="none"/>
      </g>
    </g>
    <g transform="translate(-100 376)">
      <g id="Rectangle_33-92" data-name="Rectangle 33" transform="translate(100 576)" fill="none" stroke="#e5e5e5" stroke-width="1" stroke-dasharray="8 6">
        <rect width="120" height="120" stroke="none"/>
        <rect x="0.5" y="0.5" width="119" height="119" fill="none"/>
      </g>
    </g>
    <g transform="translate(36 376)">
      <g id="Rectangle_33-93" data-name="Rectangle 33" transform="translate(100 576)" fill="none" stroke="#e5e5e5" stroke-width="1" stroke-dasharray="8 6">
        <rect width="120" height="120" stroke="none"/>
        <rect x="0.5" y="0.5" width="119" height="119" fill="none"/>
      </g>
    </g>
    <g transform="translate(172 376)">
      <g id="Rectangle_33-94" data-name="Rectangle 33" transform="translate(100 576)" fill="none" stroke="#e5e5e5" stroke-width="1" stroke-dasharray="8 6">
        <rect width="120" height="120" stroke="none"/>
        <rect x="0.5" y="0.5" width="119" height="119" fill="none"/>
      </g>
    </g>
    <g transform="translate(308 376)">
      <g id="Rectangle_33-95" data-name="Rectangle 33" transform="translate(100 576)" fill="none" stroke="#e5e5e5" stroke-width="1" stroke-dasharray="8 6">
        <rect width="120" height="120" stroke="none"/>
        <rect x="0.5" y="0.5" width="119" height="119" fill="none"/>
      </g>
    </g>
    <g transform="translate(444 376)">
      <g id="Rectangle_33-96" data-name="Rectangle 33" transform="translate(100 576)" fill="none" stroke="#e5e5e5" stroke-width="1" stroke-dasharray="8 6">
        <rect width="120" height="120" stroke="none"/>
        <rect x="0.5" y="0.5" width="119" height="119" fill="none"/>
      </g>
    </g>
    <g transform="translate(580 376)">
      <g id="Rectangle_33-97" data-name="Rectangle 33" transform="translate(100 576)" fill="none" stroke="#e5e5e5" stroke-width="1" stroke-dasharray="8 6">
        <rect width="120" height="120" stroke="none"/>
        <rect x="0.5" y="0.5" width="119" height="119" fill="none"/>
      </g>
    </g>
    <g transform="translate(716 376)">
      <g id="Rectangle_33-98" data-name="Rectangle 33" transform="translate(100 576)" fill="none" stroke="#e5e5e5" stroke-width="1" stroke-dasharray="8 6">
        <rect width="120" height="120" stroke="none"/>
        <rect x="0.5" y="0.5" width="119" height="119" fill="none"/>
      </g>
    </g>
    <g transform="translate(852 376)">
      <g id="Rectangle_33-99" data-name="Rectangle 33" transform="translate(100 576)" fill="none" stroke="#e5e5e5" stroke-width="1" stroke-dasharray="8 6">
        <rect width="120" height="120" stroke="none"/>
        <rect x="0.5" y="0.5" width="119" height="119" fill="none"/>
      </g>
    </g>
    <g transform="translate(988 376)">
      <g id="Rectangle_33-100" data-name="Rectangle 33" transform="translate(100 576)" fill="none" stroke="#e5e5e5" stroke-width="1" stroke-dasharray="8 6">
        <rect width="120" height="120" stroke="none"/>
        <rect x="0.5" y="0.5" width="119" height="119" fill="none"/>
      </g>
    </g>
    <g transform="translate(1124 376)">
      <g id="Rectangle_33-101" data-name="Rectangle 33" transform="translate(100 576)" fill="none" stroke="#e5e5e5" stroke-width="1" stroke-dasharray="8 6">
        <rect width="120" height="120" stroke="none"/>
        <rect x="0.5" y="0.5" width="119" height="119" fill="none"/>
      </g>
    </g>
    <g transform="translate(1260 376)">
      <g id="Rectangle_33-102" data-name="Rectangle 33" transform="translate(100 576)" fill="none" stroke="#e5e5e5" stroke-width="1" stroke-dasharray="8 6">
        <rect width="120" height="120" stroke="none"/>
        <rect x="0.5" y="0.5" width="119" height="119" fill="none"/>
      </g>
    </g>
    <g transform="translate(1396 376)">
      <g id="Rectangle_33-103" data-name="Rectangle 33" transform="translate(100 576)" fill="none" stroke="#e5e5e5" stroke-width="1" stroke-dasharray="8 6">
        <rect width="120" height="120" stroke="none"/>
        <rect x="0.5" y="0.5" width="119" height="119" fill="none"/>
      </g>
    </g>
    <g transform="translate(1532 376)">
      <g id="Rectangle_33-104" data-name="Rectangle 33" transform="translate(100 576)" fill="none" stroke="#e5e5e5" stroke-width="1" stroke-dasharray="8 6">
        <rect width="120" height="120" stroke="none"/>
        <rect x="0.5" y="0.5" width="119" height="119" fill="none"/>
      </g>
    </g>
    <g transform="translate(-100 512)">
      <g id="Rectangle_33-105" data-name="Rectangle 33" transform="translate(100 576)" fill="none" stroke="#e5e5e5" stroke-width="1" stroke-dasharray="8 6">
        <rect width="120" height="120" stroke="none"/>
        <rect x="0.5" y="0.5" width="119" height="119" fill="none"/>
      </g>
    </g>
    <g transform="translate(36 512)">
      <g id="Rectangle_33-106" data-name="Rectangle 33" transform="translate(100 576)" fill="none" stroke="#e5e5e5" stroke-width="1" stroke-dasharray="8 6">
        <rect width="120" height="120" stroke="none"/>
        <rect x="0.5" y="0.5" width="119" height="119" fill="none"/>
      </g>
    </g>
    <g transform="translate(172 512)">
      <g id="Rectangle_33-107" data-name="Rectangle 33" transform="translate(100 576)" fill="none" stroke="#e5e5e5" stroke-width="1" stroke-dasharray="8 6">
        <rect width="120" height="120" stroke="none"/>
        <rect x="0.5" y="0.5" width="119" height="119" fill="none"/>
      </g>
    </g>
    <g transform="translate(308 512)">
      <g id="Rectangle_33-108" data-name="Rectangle 33" transform="translate(100 576)" fill="none" stroke="#e5e5e5" stroke-width="1" stroke-dasharray="8 6">
        <rect width="120" height="120" stroke="none"/>
        <rect x="0.5" y="0.5" width="119" height="119" fill="none"/>
      </g>
    </g>
    <g transform="translate(444 512)">
      <g id="Rectangle_33-109" data-name="Rectangle 33" transform="translate(100 576)" fill="none" stroke="#e5e5e5" stroke-width="1" stroke-dasharray="8 6">
        <rect width="120" height="120" stroke="none"/>
        <rect x="0.5" y="0.5" width="119" height="119" fill="none"/>
      </g>
    </g>
    <g transform="translate(580 512)">
      <g id="Rectangle_33-110" data-name="Rectangle 33" transform="translate(100 576)" fill="none" stroke="#e5e5e5" stroke-width="1" stroke-dasharray="8 6">
        <rect width="120" height="120" stroke="none"/>
        <rect x="0.5" y="0.5" width="119" height="119" fill="none"/>
      </g>
    </g>
    <g transform="translate(716 512)">
      <g id="Rectangle_33-111" data-name="Rectangle 33" transform="translate(100 576)" fill="none" stroke="#e5e5e5" stroke-width="1" stroke-dasharray="8 6">
        <rect width="120" height="120" stroke="none"/>
        <rect x="0.5" y="0.5" width="119" height="119" fill="none"/>
      </g>
    </g>
    <g transform="translate(852 512)">
      <g id="Rectangle_33-112" data-name="Rectangle 33" transform="translate(100 576)" fill="none" stroke="#e5e5e5" stroke-width="1" stroke-dasharray="8 6">
        <rect width="120" height="120" stroke="none"/>
        <rect x="0.5" y="0.5" width="119" height="119" fill="none"/>
      </g>
    </g>
    <g transform="translate(988 512)">
      <g id="Rectangle_33-113" data-name="Rectangle 33" transform="translate(100 576)" fill="none" stroke="#e5e5e5" stroke-width="1" stroke-dasharray="8 6">
        <rect width="120" height="120" stroke="none"/>
        <rect x="0.5" y="0.5" width="119" height="119" fill="none"/>
      </g>
    </g>
    <g transform="translate(1124 512)">
      <g id="Rectangle_33-114" data-name="Rectangle 33" transform="translate(100 576)" fill="none" stroke="#e5e5e5" stroke-width="1" stroke-dasharray="8 6">
        <rect width="120" height="120" stroke="none"/>
        <rect x="0.5" y="0.5" width="119" height="119" fill="none"/>
      </g>
    </g>
    <g transform="translate(1260 512)">
      <g id="Rectangle_33-115" data-name="Rectangle 33" transform="translate(100 576)" fill="none" stroke="#e5e5e5" stroke-width="1" stroke-dasharray="8 6">
        <rect width="120" height="120" stroke="none"/>
        <rect x="0.5" y="0.5" width="119" height="119" fill="none"/>
      </g>
    </g>
    <g transform="translate(1396 512)">
      <g id="Rectangle_33-116" data-name="Rectangle 33" transform="translate(100 576)" fill="none" stroke="#e5e5e5" stroke-width="1" stroke-dasharray="8 6">
        <rect width="120" height="120" stroke="none"/>
        <rect x="0.5" y="0.5" width="119" height="119" fill="none"/>
      </g>
    </g>
    <g transform="translate(1532 512)">
      <g id="Rectangle_33-117" data-name="Rectangle 33" transform="translate(100 576)" fill="none" stroke="#e5e5e5" stroke-width="1" stroke-dasharray="8 6">
        <rect width="120" height="120" stroke="none"/>
        <rect x="0.5" y="0.5" width="119" height="119" fill="none"/>
      </g>
    </g>
    <g transform="translate(-100 648)">
      <g id="Rectangle_33-118" data-name="Rectangle 33" transform="translate(100 576)" fill="none" stroke="#e5e5e5" stroke-width="1" stroke-dasharray="8 6">
        <rect width="120" height="120" stroke="none"/>
        <rect x="0.5" y="0.5" width="119" height="119" fill="none"/>
      </g>
    </g>
    <g transform="translate(36 648)">
      <g id="Rectangle_33-119" data-name="Rectangle 33" transform="translate(100 576)" fill="none" stroke="#e5e5e5" stroke-width="1" stroke-dasharray="8 6">
        <rect width="120" height="120" stroke="none"/>
        <rect x="0.5" y="0.5" width="119" height="119" fill="none"/>
      </g>
    </g>
    <g transform="translate(172 648)">
      <g id="Rectangle_33-120" data-name="Rectangle 33" transform="translate(100 576)" fill="none" stroke="#e5e5e5" stroke-width="1" stroke-dasharray="8 6">
        <rect width="120" height="120" stroke="none"/>
        <rect x="0.5" y="0.5" width="119" height="119" fill="none"/>
      </g>
    </g>
    <g transform="translate(308 648)">
      <g id="Rectangle_33-121" data-name="Rectangle 33" transform="translate(100 576)" fill="none" stroke="#e5e5e5" stroke-width="1" stroke-dasharray="8 6">
        <rect width="120" height="120" stroke="none"/>
        <rect x="0.5" y="0.5" width="119" height="119" fill="none"/>
      </g>
    </g>
    <g transform="translate(444 648)">
      <g id="Rectangle_33-122" data-name="Rectangle 33" transform="translate(100 576)" fill="none" stroke="#e5e5e5" stroke-width="1" stroke-dasharray="8 6">
        <rect width="120" height="120" stroke="none"/>
        <rect x="0.5" y="0.5" width="119" height="119" fill="none"/>
      </g>
    </g>
    <g transform="translate(580 648)">
      <g id="Rectangle_33-123" data-name="Rectangle 33" transform="translate(100 576)" fill="none" stroke="#e5e5e5" stroke-width="1" stroke-dasharray="8 6">
        <rect width="120" height="120" stroke="none"/>
        <rect x="0.5" y="0.5" width="119" height="119" fill="none"/>
      </g>
    </g>
    <g transform="translate(716 648)">
      <g id="Rectangle_33-124" data-name="Rectangle 33" transform="translate(100 576)" fill="none" stroke="#e5e5e5" stroke-width="1" stroke-dasharray="8 6">
        <rect width="120" height="120" stroke="none"/>
        <rect x="0.5" y="0.5" width="119" height="119" fill="none"/>
      </g>
    </g>
    <g transform="translate(852 648)">
      <g id="Rectangle_33-125" data-name="Rectangle 33" transform="translate(100 576)" fill="none" stroke="#e5e5e5" stroke-width="1" stroke-dasharray="8 6">
        <rect width="120" height="120" stroke="none"/>
        <rect x="0.5" y="0.5" width="119" height="119" fill="none"/>
      </g>
    </g>
    <g transform="translate(988 648)">
      <g id="Rectangle_33-126" data-name="Rectangle 33" transform="translate(100 576)" fill="none" stroke="#e5e5e5" stroke-width="1" stroke-dasharray="8 6">
        <rect width="120" height="120" stroke="none"/>
        <rect x="0.5" y="0.5" width="119" height="119" fill="none"/>
      </g>
    </g>
    <g transform="translate(1124 648)">
      <g id="Rectangle_33-127" data-name="Rectangle 33" transform="translate(100 576)" fill="none" stroke="#e5e5e5" stroke-width="1" stroke-dasharray="8 6">
        <rect width="120" height="120" stroke="none"/>
        <rect x="0.5" y="0.5" width="119" height="119" fill="none"/>
      </g>
    </g>
    <g transform="translate(1260 648)">
      <g id="Rectangle_33-128" data-name="Rectangle 33" transform="translate(100 576)" fill="none" stroke="#e5e5e5" stroke-width="1" stroke-dasharray="8 6">
        <rect width="120" height="120" stroke="none"/>
        <rect x="0.5" y="0.5" width="119" height="119" fill="none"/>
      </g>
    </g>
    <g transform="translate(1396 648)">
      <g id="Rectangle_33-129" data-name="Rectangle 33" transform="translate(100 576)" fill="none" stroke="#e5e5e5" stroke-width="1" stroke-dasharray="8 6">
        <rect width="120" height="120" stroke="none"/>
        <rect x="0.5" y="0.5" width="119" height="119" fill="none"/>
      </g>
    </g>
    <g transform="translate(1532 648)">
      <g id="Rectangle_33-130" data-name="Rectangle 33" transform="translate(100 576)" fill="none" stroke="#e5e5e5" stroke-width="1" stroke-dasharray="8 6">
        <rect width="120" height="120" stroke="none"/>
        <rect x="0.5" y="0.5" width="119" height="119" fill="none"/>
      </g>
    </g>
  </g>
</svg>
