<svg width="322" height="429" viewBox="0 0 322 429" fill="none" xmlns="http://www.w3.org/2000/svg">
<path d="M0 377V0L321.5 20L282.5 428.5L0 377Z" fill="#121212"/>
<path d="M64.1241 63.8198C64.0197 63.809 63.8296 63.7517 63.554 63.6479C63.2932 63.5456 63.0191 63.4268 62.7316 63.2916C62.4606 63.1431 62.2499 62.9932 62.0997 62.842C61.6373 62.3572 61.3212 61.8422 61.1514 61.2971C60.9831 60.7371 60.9051 60.1789 60.9174 59.6225C60.9445 59.0676 61.0208 58.5479 61.1462 58.0634C61.4088 57.1259 61.8496 56.2143 62.4686 55.3286C63.0892 54.428 63.7972 53.7023 64.5926 53.1513C65.0158 52.8484 65.4336 52.5976 65.846 52.399C66.2584 52.2004 66.6937 52.072 67.1519 52.0138C67.3206 51.986 67.554 51.9875 67.8523 52.0183C68.167 52.0357 68.3766 52.0498 68.481 52.0606C68.7793 52.0914 69.1005 52.1924 69.4445 52.3636C69.8051 52.5214 70.1103 52.7037 70.3603 52.9104C70.6118 53.1021 70.7298 53.2726 70.7144 53.4217C70.7037 53.5261 70.6854 53.6297 70.6597 53.7326C70.634 53.8355 70.5646 53.8509 70.4515 53.7789L70.2278 53.7558L70.3822 54.45C70.4295 54.5755 70.4648 54.745 70.4879 54.9584C70.5127 55.1569 70.5166 55.3382 70.4996 55.5022C70.4842 55.6513 70.4387 55.8727 70.3632 56.1664C70.3041 56.4467 70.2203 56.747 70.1119 57.0674C70.0184 57.3894 69.9197 57.6882 69.8158 57.9639C69.7269 58.2411 69.6457 58.4437 69.5722 58.5718C69.5182 58.6566 69.4792 58.743 69.455 58.831C69.4473 58.9055 69.4404 58.9726 69.4342 59.0323C69.3622 59.1455 69.2437 59.3442 69.0787 59.6287C68.9137 59.9131 68.7952 60.1119 68.7232 60.225C68.6574 60.2785 68.5998 60.3253 68.5504 60.3654C68.516 60.4071 68.5255 60.4608 68.579 60.5267C68.5744 60.5714 68.5263 60.6719 68.4348 60.8283C68.3449 60.9697 68.2482 61.1029 68.1449 61.2279C68.0564 61.3545 67.9898 61.4154 67.9451 61.4108C67.9451 61.4108 67.922 61.4159 67.8757 61.4262C67.8458 61.4231 67.8286 61.444 67.824 61.4887C67.8178 61.5484 67.6973 61.6942 67.4623 61.9262C67.2422 62.1597 66.9841 62.3968 66.688 62.6375C66.5234 62.7713 66.2648 62.9405 65.912 63.1453C65.5608 63.3351 65.2119 63.5025 64.8653 63.6476C64.5352 63.7793 64.2881 63.8367 64.1241 63.8198ZM64.3011 61.6676C64.4651 61.6845 64.624 61.6783 64.7778 61.649C64.9331 61.6047 65.0683 61.5358 65.1835 61.4422C65.4704 61.2909 65.7486 61.0785 66.018 60.8048C66.3024 60.5327 66.5466 60.2113 66.7507 59.8405C66.9378 59.6337 67.0885 59.4156 67.2026 59.1862C67.3332 58.9435 67.5337 58.5346 67.8041 57.9596C67.9403 57.8079 68.0431 57.615 68.1125 57.381C68.1819 57.147 68.225 56.948 68.242 56.7839C68.2589 56.6199 68.282 56.3962 68.3113 56.1128C68.3555 55.831 68.4174 55.5962 68.4971 55.4085C68.5371 55.0207 68.5527 54.7962 68.544 54.735C68.5368 54.6589 68.4871 54.5558 68.395 54.4257C68.34 54.3748 68.2626 54.3216 68.1628 54.2661C68.078 54.2121 67.9833 54.1797 67.8789 54.169C67.7745 54.1582 67.6298 54.1734 67.4447 54.2146C67.276 54.2424 67.1281 54.2874 67.0011 54.3496C66.8906 54.3985 66.7705 54.3936 66.6409 54.335C66.5262 54.278 66.4727 54.2122 66.4804 54.1376C66.502 53.9288 66.396 53.9329 66.1626 54.15C65.9456 54.3537 65.6523 54.6399 65.2826 55.0087C64.9864 55.2495 64.7268 55.5015 64.5036 55.7648C64.2969 56.0148 64.1905 56.1696 64.1844 56.2293C64.1782 56.2889 64.1481 56.3612 64.0941 56.4461C64.0402 56.5309 63.9846 56.6307 63.9276 56.7454C63.8422 56.8421 63.735 57.0044 63.606 57.2322C63.477 57.46 63.3479 57.6879 63.2189 57.9157C63.1063 58.1302 63.0289 58.2955 62.9868 58.4118C62.9806 58.4714 62.9637 58.6355 62.936 58.9039C62.9098 59.1575 62.8851 59.3961 62.862 59.6198C62.8359 59.8733 62.8241 60.0605 62.8267 60.1814C62.8293 60.3022 62.8416 60.4015 62.8638 60.4791C62.9008 60.5583 62.9489 60.6763 63.0081 60.8332C63.0569 60.9437 63.1333 61.0797 63.2373 61.2412C63.3576 61.3893 63.4371 61.4955 63.4757 61.5597C63.6243 61.7258 63.7226 61.7962 63.7704 61.771C63.8347 61.7325 64.0116 61.698 64.3011 61.6676ZM74.1953 64.8597C74.0909 64.849 73.9009 64.7917 73.6252 64.6878C73.3645 64.5855 73.0903 64.4668 72.8028 64.3316C72.5318 64.183 72.3212 64.0332 72.171 63.882C71.7086 63.3971 71.3925 62.8822 71.2227 62.3371C71.0544 61.7771 70.9764 61.2188 70.9886 60.6624C71.0158 60.1075 71.092 59.5878 71.2174 59.1034C71.48 58.1658 71.9208 57.2542 72.5398 56.3686C73.1604 55.468 73.8684 54.7422 74.6639 54.1913C75.087 53.8883 75.5048 53.6375 75.9172 53.4389C76.3296 53.2404 76.7649 53.112 77.2231 53.0538C77.3918 53.026 77.6253 53.0275 77.9236 53.0583C78.2383 53.0757 78.4478 53.0898 78.5522 53.1006C78.8505 53.1314 79.1717 53.2324 79.5158 53.4035C79.8763 53.5614 80.1815 53.7436 80.4315 53.9503C80.683 54.1421 80.8011 54.3125 80.7857 54.4617C80.7749 54.5661 80.7567 54.6697 80.731 54.7725C80.7053 54.8754 80.6359 54.8908 80.5227 54.8189L80.299 54.7958L80.4534 55.49C80.5007 55.6155 80.536 55.7849 80.5592 55.9983C80.5839 56.1968 80.5878 56.3781 80.5709 56.5421C80.5555 56.6913 80.51 56.9127 80.4344 57.2063C80.3754 57.4866 80.2916 57.787 80.1831 58.1074C80.0896 58.4293 79.9909 58.7281 79.8871 59.0038C79.7982 59.281 79.717 59.4836 79.6434 59.6117C79.5895 59.6966 79.5504 59.783 79.5262 59.8709C79.5185 59.9455 79.5116 60.0126 79.5055 60.0722C79.4335 60.1854 79.315 60.3842 79.15 60.6686C78.9849 60.953 78.8664 61.1518 78.7945 61.265C78.7286 61.3184 78.671 61.3653 78.6217 61.4054C78.5872 61.447 78.5968 61.5008 78.6503 61.5666C78.6456 61.6113 78.5976 61.7119 78.5061 61.8682C78.4161 62.0097 78.3194 62.1429 78.2161 62.2679C78.1277 62.3944 78.0611 62.4553 78.0163 62.4507C78.0163 62.4507 77.9932 62.4559 77.9469 62.4662C77.9171 62.4631 77.8999 62.4839 77.8952 62.5287C77.8891 62.5883 77.7685 62.7341 77.5335 62.9661C77.3135 63.1996 77.0554 63.4367 76.7592 63.6775C76.5947 63.8112 76.336 63.9805 75.9833 64.1852C75.6321 64.375 75.2832 64.5425 74.9366 64.6876C74.6065 64.8193 74.3594 64.8767 74.1953 64.8597ZM74.3723 62.7075C74.5364 62.7245 74.6953 62.7183 74.849 62.6889C75.0043 62.6447 75.1396 62.5757 75.2548 62.4821C75.5417 62.3309 75.8199 62.1184 76.0893 61.8448C76.3736 61.5727 76.6178 61.2512 76.8219 60.8804C77.0091 60.6736 77.1597 60.4556 77.2738 60.2262C77.4044 59.9834 77.6049 59.5745 77.8753 58.9995C78.0115 58.8478 78.1144 58.6549 78.1837 58.4209C78.2531 58.1869 78.2963 57.9879 78.3132 57.8239C78.3302 57.6598 78.3533 57.4361 78.3825 57.1527C78.4267 56.8709 78.4886 56.6361 78.5683 56.4484C78.6083 56.0607 78.624 55.8362 78.6152 55.775C78.608 55.6989 78.5584 55.5958 78.4663 55.4657C78.4113 55.4148 78.3339 55.3616 78.2341 55.306C78.1492 55.2521 78.0546 55.2197 77.9502 55.2089C77.8458 55.1981 77.701 55.2133 77.5159 55.2545C77.3472 55.2823 77.1994 55.3273 77.0724 55.3896C76.9618 55.4384 76.8417 55.4336 76.7121 55.375C76.5974 55.3179 76.5439 55.2521 76.5516 55.1775C76.5732 54.9687 76.4673 54.9729 76.2338 55.1899C76.0168 55.3936 75.7235 55.6799 75.3538 56.0487C75.0577 56.2894 74.798 56.5414 74.5749 56.8048C74.3682 57.0547 74.2618 57.2096 74.2556 57.2692C74.2494 57.3289 74.2194 57.4011 74.1654 57.486C74.1114 57.5709 74.0559 57.6706 73.9988 57.7853C73.9135 57.882 73.8063 58.0443 73.6772 58.2721C73.5482 58.5 73.4192 58.7278 73.2901 58.9557C73.1775 59.1701 73.1002 59.3355 73.058 59.4517C73.0519 59.5114 73.0349 59.6754 73.0072 59.9439C72.981 60.1974 72.9564 60.436 72.9333 60.6597C72.9071 60.9133 72.8953 61.1005 72.8979 61.2213C72.9005 61.3422 72.9129 61.4414 72.935 61.5191C72.972 61.5983 73.0201 61.7163 73.0793 61.8731C73.1282 61.9837 73.2046 62.1197 73.3085 62.2811C73.4289 62.4292 73.5083 62.5354 73.5469 62.5997C73.6956 62.7658 73.7938 62.8362 73.8416 62.811C73.9059 62.7724 74.0828 62.7379 74.3723 62.7075ZM81.4492 64.5009C81.1252 64.573 80.8588 64.5982 80.65 64.5766C80.4428 64.5402 80.2216 64.4194 79.9865 64.2142C79.7191 63.8851 79.6455 63.5761 79.7658 63.287C79.9025 62.9846 80.2025 62.7066 80.6658 62.453C80.9826 62.3048 81.2081 62.2377 81.3423 62.2515C81.493 62.252 81.7038 62.3266 81.9749 62.4751C82.4496 62.8407 82.6371 63.2142 82.5374 63.5958C82.4393 63.9625 82.0765 64.2642 81.4492 64.5009Z" fill="#FF6200"/>
<path d="M89.3724 66.4943L90.897 51.7296L92.9551 51.9421L91.4305 66.7068L89.3724 66.4943ZM90.0435 66.5636L90.2283 64.774L98.5055 65.6287L98.3207 67.4183L90.0435 66.5636ZM105.163 68.4187C104.059 68.3048 103.107 67.9653 102.306 67.4003C101.522 66.8219 100.938 66.0532 100.555 65.0941C100.186 64.1366 100.069 63.0091 100.203 61.7116C100.342 60.3694 100.702 59.2837 101.285 58.4546C101.885 57.6121 102.625 57.0103 103.507 56.6491C104.388 56.288 105.343 56.1605 106.372 56.2668C107.446 56.3776 108.376 56.7148 109.162 57.2783C109.964 57.8284 110.565 58.5837 110.963 59.5443C111.362 60.49 111.494 61.6265 111.357 62.9538C111.22 64.2811 110.859 65.3668 110.274 66.2108C109.705 67.0564 108.971 67.6664 108.073 68.041C107.192 68.4022 106.222 68.5281 105.163 68.4187ZM105.425 66.7502C106.141 66.8241 106.771 66.7157 107.313 66.4251C107.872 66.121 108.319 65.6622 108.653 65.0486C109.003 64.4366 109.223 63.6906 109.314 62.8107C109.408 61.901 109.34 61.1026 109.109 60.4156C108.895 59.7152 108.538 59.1583 108.038 58.7449C107.54 58.3166 106.91 58.0632 106.15 57.9847C105.464 57.9139 104.843 58.0155 104.287 58.2897C103.731 58.5639 103.278 59.0071 102.929 59.6191C102.581 60.2162 102.36 60.9697 102.266 61.8794C102.121 63.2813 102.328 64.4181 102.886 65.2896C103.46 66.1478 104.307 66.6347 105.425 66.7502ZM117.575 73.3632C116.352 73.2369 115.356 73.036 114.585 72.7605C113.828 72.5015 113.283 72.1588 112.951 71.7325C112.616 71.3212 112.478 70.8322 112.537 70.2654C112.608 69.5794 112.935 69.0404 113.518 68.6484C114.101 68.2564 114.944 68.0421 116.049 68.0054L116.09 67.6027C115.3 67.5211 114.713 67.3625 114.331 67.1271C113.948 66.8916 113.777 66.58 113.817 66.1922C113.858 65.7896 114.094 65.4748 114.525 65.2479C114.956 65.0061 115.64 64.8129 116.574 64.6682L116.618 64.2432C115.71 64.1343 115.044 63.7943 114.621 63.223C114.199 62.6368 114.032 61.9187 114.12 61.0686C114.198 60.308 114.467 59.6726 114.927 59.1623C115.403 58.6387 116.044 58.2678 116.85 58.0496C117.673 57.818 118.629 57.7585 119.718 57.8709L125.176 58.4345L124.998 60.1571L121.477 59.2282L121.433 59.6532C122.279 59.9215 122.911 60.2958 123.329 60.776C123.748 61.2414 123.921 61.832 123.847 62.5478C123.781 63.1891 123.537 63.7291 123.115 64.1679C122.692 64.6066 122.102 64.9225 121.344 65.1155C120.602 65.2951 119.701 65.3303 118.642 65.2209C118.433 65.1994 118.21 65.1688 117.973 65.1292C117.753 65.0763 117.459 65.0008 117.092 64.9026C116.664 65.1146 116.312 65.3119 116.037 65.4945C115.776 65.6786 115.638 65.8527 115.621 66.0168C115.604 66.1808 115.702 66.3266 115.915 66.4541C116.144 66.5682 116.421 66.6571 116.746 66.7209C117.071 66.7846 117.376 66.831 117.659 66.8603L120.276 67.1306C120.575 67.1614 120.944 67.2297 121.386 67.3356C121.842 67.443 122.284 67.6167 122.711 67.8568C123.153 68.0984 123.51 68.4367 123.782 68.8717C124.054 69.3067 124.152 69.8822 124.078 70.598C123.995 71.4034 123.689 72.035 123.159 72.4928C122.63 72.9506 121.899 73.2443 120.966 73.3741C120.033 73.5039 118.903 73.5002 117.575 73.3632ZM117.793 71.69C118.793 71.7932 119.605 71.8092 120.23 71.7381C120.869 71.6835 121.344 71.5366 121.655 71.2974C121.981 71.0597 122.165 70.7321 122.209 70.3145C122.249 69.9268 122.175 69.6177 121.988 69.3873C121.817 69.1436 121.587 68.9616 121.298 68.8413C121.009 68.721 120.716 68.6381 120.419 68.5923C120.124 68.5317 119.872 68.4906 119.663 68.4691L117.046 68.1988C116.161 68.3033 115.537 68.5102 115.173 68.8193C114.81 69.1285 114.608 69.4769 114.568 69.8647C114.525 70.2823 114.642 70.6109 114.918 70.8505C115.195 71.0901 115.583 71.2733 116.082 71.4003C116.597 71.5287 117.167 71.6253 117.793 71.69ZM118.868 63.9103C119.808 64.0073 120.536 63.8866 121.053 63.5481C121.571 63.2096 121.863 62.7123 121.931 62.056C122.003 61.3551 121.816 60.7555 121.37 60.2573C120.941 59.7456 120.242 59.4398 119.272 59.3397C118.333 59.2427 117.587 59.3842 117.035 59.7644C116.498 60.1461 116.195 60.6799 116.124 61.366C116.077 61.8134 116.149 62.2201 116.337 62.5863C116.542 62.939 116.85 63.2347 117.263 63.4732C117.692 63.6984 118.227 63.8441 118.868 63.9103ZM126.705 70.3492L127.899 58.7835L129.935 58.9937L128.741 70.5594L126.705 70.3492ZM129.136 56.8764C128.659 56.8271 128.311 56.6932 128.092 56.4747C127.874 56.2562 127.785 55.953 127.825 55.5653C127.865 55.1775 128.014 54.899 128.273 54.7298C128.531 54.5605 128.892 54.4998 129.354 54.5475C129.831 54.5968 130.179 54.7307 130.398 54.9492C130.616 55.1677 130.706 55.4709 130.666 55.8586C130.627 56.2315 130.478 56.51 130.218 56.6941C129.959 56.8634 129.598 56.9241 129.136 56.8764ZM137.212 71.7281C136.197 71.6233 135.349 71.37 134.667 70.9679C134 70.5675 133.472 70.0682 133.081 69.4702C132.706 68.8737 132.45 68.2068 132.316 67.4693C132.196 66.7335 132.176 65.9778 132.256 65.2022C132.343 64.3521 132.538 63.5658 132.838 62.8432C133.139 62.1206 133.542 61.499 134.048 60.9785C134.571 60.4446 135.184 60.0557 135.887 59.8118C136.607 59.5546 137.422 59.4729 138.332 59.5668C139.212 59.6577 139.971 59.8944 140.61 60.2769C141.25 60.6444 141.751 61.1257 142.111 61.7206C142.487 62.3171 142.695 63.0018 142.736 63.7747L140.734 64.1107C140.747 63.69 140.662 63.2742 140.478 62.8634C140.31 62.454 140.029 62.1085 139.636 61.8268C139.244 61.5301 138.743 61.3502 138.131 61.2871C137.55 61.227 137.039 61.2873 136.598 61.4679C136.172 61.65 135.797 61.9278 135.472 62.3012C135.162 62.6761 134.905 63.1244 134.7 63.6459C134.51 64.1689 134.383 64.7436 134.318 65.37C134.229 66.235 134.271 67.0005 134.443 67.6664C134.63 68.3339 134.967 68.8736 135.452 69.2854C135.937 69.6972 136.589 69.9455 137.41 70.0302C138.021 70.0933 138.554 70.0428 139.008 69.8787C139.463 69.6996 139.838 69.4293 140.132 69.0677C140.427 68.6912 140.639 68.2384 140.769 67.7092L142.605 68.3283C142.434 68.9588 142.182 69.5055 141.847 69.9684C141.513 70.4313 141.113 70.8045 140.646 71.0879C140.182 71.3565 139.657 71.5435 139.074 71.649C138.503 71.771 137.883 71.7974 137.212 71.7281ZM147.447 72.785C146.821 72.7203 146.266 72.5425 145.784 72.2515C145.303 71.9456 144.938 71.5386 144.689 71.0306C144.442 70.5076 144.357 69.8733 144.434 69.1276C144.491 68.5758 144.638 68.1011 144.875 67.7035C145.126 67.3075 145.477 66.9819 145.925 66.7267C146.388 66.4731 146.965 66.284 147.657 66.1594C148.348 66.0349 149.185 65.9555 150.168 65.9214C150.728 65.9038 151.183 65.8754 151.534 65.8363C151.899 65.7987 152.173 65.7063 152.354 65.5592C152.536 65.3972 152.645 65.1446 152.68 64.8016C152.739 64.2349 152.594 63.7376 152.247 63.3098C151.899 62.882 151.307 62.625 150.472 62.5388C150.04 62.4941 149.592 62.5232 149.129 62.6262C148.667 62.7291 148.245 62.9419 147.865 63.2644C147.502 63.5735 147.243 64.0366 147.089 64.6538L145.274 63.8334C145.449 63.3088 145.693 62.8441 146.006 62.4393C146.334 62.0361 146.73 61.7077 147.193 61.454C147.658 61.1855 148.182 60.9985 148.766 60.8929C149.364 60.7889 150.014 60.7731 150.715 60.8455C151.684 60.9456 152.473 61.1928 153.08 61.5872C153.703 61.983 154.135 62.5401 154.377 63.2585C154.636 63.9635 154.711 64.8455 154.601 65.9044L154.336 68.477C154.288 68.9393 154.243 69.4472 154.201 70.0005C154.175 70.5405 154.157 71.0887 154.144 71.6451C154.134 72.1867 154.126 72.6984 154.121 73.1802L152.242 72.9862C152.247 72.5043 152.251 72.0225 152.256 71.5406C152.275 71.0603 152.302 70.5807 152.337 70.1019L152.046 70.0719C151.765 70.6006 151.414 71.0843 150.992 71.5231C150.569 71.9618 150.06 72.3011 149.462 72.5408C148.88 72.7821 148.208 72.8635 147.447 72.785ZM148.222 71.1919C148.55 71.2258 148.884 71.2075 149.223 71.137C149.577 71.068 149.93 70.9311 150.283 70.7264C150.65 70.5232 151.002 70.2505 151.339 69.9085C151.691 69.568 152.013 69.1491 152.306 68.6517L152.537 66.4146L153.107 66.5865C152.843 66.8005 152.504 66.9464 152.089 67.0241C151.689 67.1034 151.247 67.1557 150.762 67.181C150.277 67.2062 149.791 67.239 149.305 67.2792C148.82 67.3045 148.367 67.3784 147.948 67.5008C147.545 67.6099 147.209 67.7939 146.941 68.0526C146.673 68.3113 146.514 68.6867 146.463 69.1789C146.401 69.7755 146.533 70.2488 146.859 70.599C147.186 70.9342 147.641 71.1318 148.222 71.1919ZM157.268 73.5051L158.885 57.8455L160.92 58.0557L159.303 73.7153L157.268 73.5051ZM170.194 70.2728L170.375 68.5279L173.999 68.9021C175.415 69.0484 176.509 68.89 177.281 68.4271C178.054 67.9492 178.502 67.1062 178.627 65.8982C178.743 64.7796 178.493 63.9098 177.879 63.2887C177.282 62.6542 176.297 62.2661 174.925 62.1245L171.077 61.7271L171.252 60.027L175.145 60.4289C176.114 60.529 176.96 60.7294 177.683 61.0301C178.42 61.3323 179.028 61.7267 179.505 62.2131C179.982 62.6995 180.322 63.2772 180.524 63.9462C180.743 64.6018 180.809 65.3473 180.723 66.1824C180.609 67.2861 180.259 68.192 179.674 68.9002C179.088 69.6085 178.282 70.1131 177.256 70.4142C176.232 70.7003 175.004 70.7694 173.572 70.6216L170.194 70.2728ZM168.632 74.6785L170.156 59.9138L172.214 60.1263L170.69 74.891L168.632 74.6785ZM182.326 76.0925L182.972 69.8287L183.52 64.5268L185.354 64.7162L184.76 68.7245L185.14 68.7638C185.365 67.8977 185.652 67.1587 186.002 66.5466C186.351 65.9346 186.776 65.4735 187.275 65.1633C187.789 64.8546 188.397 64.7365 189.098 64.8089C189.247 64.8243 189.417 64.8569 189.608 64.9068C189.8 64.9417 190.018 65.017 190.263 65.1326L189.931 67.2463C189.717 67.1337 189.499 67.051 189.279 66.9981C189.06 66.9302 188.846 66.8855 188.637 66.864C188.055 66.8039 187.529 66.938 187.058 67.2662C186.602 67.5959 186.199 68.0668 185.85 68.6788C185.501 69.2759 185.197 69.9605 184.937 70.7324L184.361 76.3028L182.326 76.0925ZM191.283 77.0175L192.478 65.4518L194.513 65.662L193.319 77.2277L191.283 77.0175ZM193.714 63.5447C193.237 63.4954 192.889 63.3615 192.671 63.143C192.452 62.9244 192.363 62.6213 192.403 62.2335C192.443 61.8458 192.592 61.5673 192.851 61.398C193.11 61.2288 193.47 61.168 193.932 61.2158C194.41 61.2651 194.758 61.399 194.976 61.6175C195.195 61.836 195.284 62.1391 195.244 62.5269C195.205 62.8998 195.056 63.1783 194.796 63.3624C194.537 63.5316 194.177 63.5924 193.714 63.5447ZM196.854 77.5927L197.593 70.434L198.048 66.027L199.86 66.2141L199.28 69.8621L199.66 69.9014C199.945 69.0415 200.281 68.3376 200.669 67.7899C201.059 67.2272 201.507 66.8288 202.014 66.5947C202.537 66.3473 203.111 66.2559 203.738 66.3206C204.483 66.3976 205.076 66.6471 205.514 67.0693C205.955 67.4765 206.257 67.9824 206.42 68.5872C206.599 69.1935 206.652 69.8471 206.58 70.548L206.937 70.585C207.188 69.7668 207.514 69.0845 207.918 68.5383C208.321 67.9921 208.791 67.596 209.329 67.3501C209.867 67.1042 210.464 67.0151 211.12 67.0829C211.717 67.1445 212.226 67.3177 212.649 67.6025C213.072 67.8873 213.415 68.2845 213.679 68.7941C213.945 69.2888 214.116 69.8868 214.195 70.5883C214.273 71.2897 214.266 72.0878 214.174 72.9827L213.52 79.3136L211.484 79.1034L212.11 73.0409C212.201 72.161 212.194 71.4217 212.09 70.8232C211.988 70.2097 211.787 69.7443 211.488 69.4271C211.206 69.0964 210.819 68.9057 210.327 68.8549C209.775 68.7979 209.255 68.9402 208.768 69.2818C208.297 69.61 207.884 70.1024 207.53 70.7592C207.192 71.4026 206.934 72.1522 206.755 73.008L206.182 78.5559L204.191 78.3504L204.796 72.4892C204.892 71.5645 204.889 70.788 204.788 70.1596C204.687 69.5312 204.489 69.0434 204.193 68.6964C203.912 68.3508 203.518 68.1519 203.011 68.0995C202.415 68.0379 201.879 68.1936 201.403 68.5665C200.929 68.9245 200.522 69.4327 200.183 70.091C199.859 70.7509 199.615 71.502 199.453 72.3444L198.889 77.8029L196.854 77.5927ZM216.887 79.6613L218.082 68.0956L220.117 68.3058L218.923 79.8715L216.887 79.6613ZM219.319 66.1885C218.841 66.1392 218.493 66.0053 218.275 65.7868C218.056 65.5683 217.967 65.2651 218.007 64.8774C218.047 64.4896 218.196 64.2111 218.455 64.0419C218.714 63.8726 219.074 63.8119 219.536 63.8596C220.014 63.9089 220.362 64.0428 220.58 64.2613C220.799 64.4798 220.888 64.783 220.848 65.1707C220.81 65.5436 220.66 65.8221 220.4 66.0063C220.141 66.1755 219.781 66.2362 219.319 66.1885ZM222.458 80.2365L223.199 73.0555L223.652 68.6708L225.486 68.8602L224.906 72.5082L225.286 72.5475C225.589 71.6593 225.942 70.9421 226.345 70.3959C226.763 69.8512 227.255 69.4649 227.821 69.237C228.388 69.0091 229.029 68.9321 229.744 69.006C231.027 69.1384 231.949 69.7009 232.509 70.6933C233.087 71.6723 233.281 73.0716 233.093 74.8911L232.435 81.2668L230.377 81.0543L231.017 74.8575C231.152 73.5451 231.044 72.5542 230.691 71.8846C230.353 71.2167 229.789 70.8419 228.998 70.7603C228.282 70.6864 227.648 70.8469 227.094 71.242C226.556 71.6386 226.107 72.1876 225.749 72.8892C225.39 73.5907 225.152 74.3649 225.034 75.212L224.493 80.4467L222.458 80.2365ZM239.697 85.9733C238.474 85.847 237.478 85.6461 236.707 85.3706C235.95 85.1116 235.405 84.7689 235.073 84.3427C234.738 83.9313 234.6 83.4423 234.659 82.8756C234.73 82.1895 235.057 81.6505 235.64 81.2585C236.223 80.8666 237.066 80.6522 238.171 80.6155L238.212 80.2128C237.422 80.1312 236.835 79.9727 236.453 79.7372C236.07 79.5017 235.899 79.1901 235.939 78.8024C235.98 78.3997 236.216 78.0849 236.647 77.8581C237.078 77.6163 237.762 77.423 238.696 77.2784L238.74 76.8533C237.832 76.7445 237.166 76.4044 236.743 75.8331C236.321 75.2469 236.154 74.5288 236.242 73.6787C236.32 72.9181 236.589 72.2827 237.049 71.7725C237.525 71.2488 238.166 70.8779 238.973 70.6597C239.795 70.4282 240.751 70.3686 241.84 70.481L247.298 71.0447L247.12 72.7672L243.599 71.8383L243.555 72.2634C244.401 72.5317 245.034 72.9059 245.451 73.3862C245.87 73.8515 246.043 74.4421 245.969 75.158C245.903 75.7993 245.659 76.3393 245.237 76.778C244.814 77.2168 244.224 77.5326 243.466 77.7256C242.724 77.9053 241.823 77.9404 240.764 77.8311C240.555 77.8095 240.333 77.7789 240.095 77.7394C239.875 77.6865 239.581 77.6109 239.214 77.5128C238.786 77.7247 238.434 77.922 238.159 78.1046C237.898 78.2888 237.76 78.4629 237.743 78.6269C237.726 78.791 237.824 78.9368 238.037 79.0643C238.266 79.1784 238.543 79.2673 238.868 79.331C239.193 79.3947 239.498 79.4412 239.781 79.4704L242.398 79.7407C242.697 79.7715 243.066 79.8398 243.508 79.9457C243.964 80.0531 244.406 80.2268 244.833 80.4669C245.275 80.7085 245.632 81.0468 245.904 81.4819C246.176 81.9169 246.274 82.4923 246.2 83.2082C246.117 84.0135 245.811 84.6451 245.281 85.1029C244.752 85.5607 244.021 85.8545 243.088 85.9842C242.155 86.114 241.025 86.1104 239.697 85.9733ZM239.915 84.3001C240.915 84.4033 241.727 84.4193 242.352 84.3483C242.991 84.2936 243.466 84.1467 243.777 83.9075C244.103 83.6699 244.287 83.3423 244.331 82.9247C244.371 82.5369 244.297 82.2278 244.11 81.9975C243.939 81.7538 243.709 81.5718 243.42 81.4515C243.131 81.3312 242.838 81.2482 242.541 81.2025C242.246 81.1419 241.994 81.1008 241.785 81.0792L239.168 80.8089C238.283 80.9135 237.659 81.1203 237.295 81.4295C236.932 81.7386 236.73 82.0871 236.69 82.4748C236.647 82.8924 236.764 83.221 237.04 83.4606C237.317 83.7002 237.705 83.8835 238.204 84.0104C238.719 84.1389 239.289 84.2354 239.915 84.3001ZM240.99 76.5204C241.93 76.6174 242.658 76.4967 243.175 76.1582C243.693 75.8197 243.985 75.3224 244.053 74.6662C244.125 73.9652 243.938 73.3656 243.493 72.8674C243.063 72.3558 242.364 72.0499 241.394 71.9498C240.455 71.8528 239.709 71.9944 239.157 72.3745C238.62 72.7562 238.317 73.2901 238.246 73.9761C238.2 74.4235 238.271 74.8303 238.459 75.1964C238.664 75.5492 238.972 75.8448 239.385 76.0833C239.814 76.3085 240.349 76.4542 240.99 76.5204Z" fill="#7F7F7F"/>
<path d="M148.934 128.864C148.425 129.663 147.056 129.522 146.722 128.636C143.816 121.737 141.236 114.765 140.08 107.408C139.978 106.333 141.245 105.399 142.128 106.129C144.082 107.821 145.687 109.796 147.049 112.066C148.151 97.278 145.495 103.411 150.471 89.2361C150.791 88.2047 152.559 88.6001 152.345 89.6426C148.894 104.507 151.056 98.0039 149.711 113.086C151.665 111.691 153.618 110.296 155.466 108.89C156.28 108.229 157.816 108.814 157.58 110.066C156.02 116.93 153.029 123.22 148.934 128.864ZM149.069 116.212C148.34 117.095 146.571 116.699 146.723 115.225C146.734 115.12 146.745 115.014 146.745 115.014C145.612 113.62 144.584 112.237 143.345 110.832C144.53 115.85 146.169 120.596 148.123 125.375C150.653 121.485 152.668 117.435 153.978 112.994C152.711 113.927 151.339 114.85 150.06 115.889C149.807 116.288 149.374 116.35 149.069 116.212Z" fill="#464646"/>
<path d="M50.2959 149.058C50.1915 149.047 50.0015 148.99 49.7258 148.886C49.4651 148.784 49.191 148.665 48.9035 148.53C48.6324 148.381 48.4218 148.231 48.2716 148.08C47.8092 147.595 47.4931 147.08 47.3233 146.535C47.155 145.975 47.077 145.417 47.0892 144.861C47.1164 144.306 47.1927 143.786 47.3181 143.302C47.5807 142.364 48.0215 141.453 48.6405 140.567C49.261 139.666 49.969 138.941 50.7645 138.39C51.1877 138.087 51.6055 137.836 52.0179 137.637C52.4303 137.439 52.8656 137.31 53.3238 137.252C53.4924 137.224 53.7259 137.226 54.0242 137.257C54.3389 137.274 54.5485 137.288 54.6529 137.299C54.9512 137.33 55.2723 137.431 55.6164 137.602C55.9769 137.76 56.2822 137.942 56.5321 138.149C56.7837 138.34 56.9017 138.511 56.8863 138.66C56.8755 138.764 56.8573 138.868 56.8316 138.971C56.8059 139.074 56.7365 139.089 56.6233 139.017L56.3996 138.994L56.554 139.688C56.6014 139.814 56.6366 139.983 56.6598 140.197C56.6845 140.395 56.6884 140.576 56.6715 140.74C56.6561 140.89 56.6106 141.111 56.5351 141.405C56.476 141.685 56.3922 141.985 56.2838 142.306C56.1902 142.628 56.0916 142.926 55.9877 143.202C55.8988 143.479 55.8176 143.682 55.7441 143.81C55.6901 143.895 55.651 143.981 55.6269 144.069C55.6192 144.144 55.6122 144.211 55.6061 144.271C55.5341 144.384 55.4156 144.583 55.2506 144.867C55.0856 145.151 54.9671 145.35 54.8951 145.463C54.8293 145.517 54.7717 145.564 54.7223 145.604C54.6879 145.645 54.6974 145.699 54.7509 145.765C54.7463 145.81 54.6982 145.91 54.6067 146.067C54.5167 146.208 54.4201 146.341 54.3167 146.466C54.2283 146.593 54.1617 146.654 54.117 146.649C54.117 146.649 54.0938 146.654 54.0475 146.665C54.0177 146.661 54.0005 146.682 53.9959 146.727C53.9897 146.787 53.8691 146.932 53.6342 147.164C53.4141 147.398 53.156 147.635 52.8598 147.876C52.6953 148.01 52.4366 148.179 52.0839 148.384C51.7327 148.573 51.3838 148.741 51.0372 148.886C50.7071 149.018 50.46 149.075 50.2959 149.058ZM50.473 146.906C50.637 146.923 50.7959 146.917 50.9497 146.887C51.105 146.843 51.2402 146.774 51.3554 146.68C51.6423 146.529 51.9205 146.317 52.1899 146.043C52.4743 145.771 52.7185 145.45 52.9226 145.079C53.1097 144.872 53.2603 144.654 53.3745 144.425C53.505 144.182 53.7055 143.773 53.9759 143.198C54.1122 143.046 54.215 142.853 54.2844 142.619C54.3538 142.385 54.3969 142.186 54.4139 142.022C54.4308 141.858 54.4539 141.634 54.4832 141.351C54.5273 141.069 54.5893 140.834 54.6689 140.647C54.709 140.259 54.7246 140.035 54.7159 139.973C54.7086 139.897 54.659 139.794 54.5669 139.664C54.5119 139.613 54.4345 139.56 54.3347 139.504C54.2498 139.45 54.1552 139.418 54.0508 139.407C53.9464 139.396 53.8017 139.412 53.6165 139.453C53.4479 139.481 53.3 139.526 53.173 139.588C53.0624 139.637 52.9424 139.632 52.8128 139.573C52.6981 139.516 52.6446 139.45 52.6523 139.376C52.6738 139.167 52.5679 139.171 52.3345 139.388C52.1175 139.592 51.8241 139.878 51.4545 140.247C51.1583 140.488 50.8986 140.74 50.6755 141.003C50.4688 141.253 50.3624 141.408 50.3562 141.468C50.3501 141.527 50.32 141.599 50.266 141.684C50.212 141.769 50.1565 141.869 50.0995 141.984C50.0141 142.08 49.9069 142.243 49.7779 142.47C49.6488 142.698 49.5198 142.926 49.3908 143.154C49.2782 143.368 49.2008 143.534 49.1587 143.65C49.1525 143.71 49.1356 143.874 49.1078 144.142C49.0817 144.396 49.057 144.634 49.0339 144.858C49.0077 145.112 48.996 145.299 48.9985 145.42C49.0011 145.541 49.0135 145.64 49.0356 145.717C49.0727 145.797 49.1208 145.915 49.1799 146.071C49.2288 146.182 49.3052 146.318 49.4091 146.479C49.5295 146.628 49.609 146.734 49.6475 146.798C49.7962 146.964 49.8944 147.035 49.9423 147.009C50.0065 146.971 50.1834 146.936 50.473 146.906ZM61.8846 150.73C61.8368 150.755 61.7242 150.751 61.5468 150.717C61.3842 150.685 61.2099 150.622 61.0237 150.528C60.8509 150.449 60.7169 150.36 60.6218 150.26C60.5683 150.194 60.5156 150.121 60.4636 150.04C60.4132 149.944 60.3988 149.792 60.4203 149.583C60.4568 149.376 60.5436 149.046 60.6809 148.593C60.7713 148.301 60.8782 147.995 61.0016 147.676C61.1249 147.358 61.2362 147.083 61.3354 146.852C61.4347 146.621 61.4843 146.505 61.4843 146.505C61.5619 146.483 61.6894 146.27 61.8668 145.867C62.059 145.464 62.2754 144.974 62.516 144.396C62.5972 144.194 62.7378 143.854 62.9377 143.377C63.1377 142.9 63.3361 142.439 63.533 141.992C63.7119 141.573 63.8733 141.251 64.0173 141.024C64.1612 140.798 64.2332 140.685 64.2332 140.685C64.2332 140.685 64.1383 140.728 63.9486 140.814C63.7588 140.9 63.513 141.017 63.2112 141.167C62.9093 141.317 62.5895 141.495 62.2517 141.701C61.9827 141.824 61.6703 142.003 61.3145 142.237C60.9752 142.459 60.6628 142.637 60.3774 142.774C59.9424 143.045 59.6457 143.218 59.4873 143.292C59.3438 143.368 59.2088 143.361 59.0823 143.273C58.9054 143.089 58.7436 142.831 58.597 142.499C58.4668 142.154 58.4541 141.912 58.559 141.772C58.5904 141.76 58.6943 141.703 58.8706 141.601C59.0619 141.5 59.2779 141.379 59.5185 141.238C59.7592 141.097 59.9759 140.969 60.1687 140.853C60.3765 140.739 60.5199 140.663 60.5991 140.626C60.6439 140.631 60.7313 140.587 60.8614 140.495C60.9915 140.403 61.1283 140.319 61.2717 140.243C61.3555 140.162 61.6373 139.987 62.1171 139.72C62.5968 139.453 63.1177 139.153 63.6797 138.819C64.267 138.533 64.7876 138.308 65.2417 138.144C65.6958 137.979 65.9518 137.908 66.01 137.929C66.0547 137.934 66.1537 137.997 66.307 138.118C66.4752 138.241 66.6344 138.378 66.7845 138.529C66.9347 138.68 67.0127 138.801 67.0183 138.892C67.0971 139.006 67.0277 139.24 66.8102 139.594C66.7367 139.722 66.6143 139.958 66.4432 140.302C66.2735 140.632 66.0828 141.019 65.871 141.464C65.6757 141.896 65.4803 142.328 65.285 142.76C65.1061 143.179 64.9557 143.54 64.8339 143.844C64.6669 144.294 64.5181 144.641 64.3875 144.883C64.2718 145.128 64.1569 145.365 64.0428 145.594C63.9451 145.81 63.8233 146.114 63.6773 146.506C63.5483 146.734 63.4049 147.028 63.2471 147.388C63.1057 147.735 62.9718 148.083 62.8454 148.432C62.7205 148.766 62.6241 149.042 62.5562 149.261C62.4031 149.577 62.273 149.888 62.1661 150.193C62.0592 150.499 61.9654 150.678 61.8846 150.73ZM67.621 149.739C67.2971 149.811 67.0307 149.836 66.8219 149.815C66.6146 149.778 66.3935 149.658 66.1584 149.452C65.8909 149.123 65.8173 148.814 65.9376 148.525C66.0744 148.223 66.3744 147.945 66.8377 147.691C67.1544 147.543 67.3799 147.476 67.5142 147.49C67.6648 147.49 67.8757 147.565 68.1467 147.713C68.6215 148.079 68.809 148.453 68.7093 148.834C68.6111 149.201 68.2484 149.503 67.621 149.739Z" fill="#FF6200"/>
<path d="M75.5443 151.733L77.0689 136.968L79.127 137.181L77.6024 151.946L75.5443 151.733ZM76.5957 151.842L76.7782 150.074L86.0845 151.035L85.902 152.803L76.5957 151.842ZM77.2887 145.13L77.4596 143.475L85.7145 144.327L85.5435 145.983L77.2887 145.13ZM77.9401 138.822L78.1203 137.077L87.4042 138.036L87.224 139.78L77.9401 138.822ZM87.4181 152.959L91.929 147.592L88.5676 141.389L90.9613 141.636L93.2101 146.571L93.5009 146.601L96.6659 142.225L99.0372 142.47L94.524 147.86L97.9324 154.045L95.5387 153.798L93.2699 148.838L92.9791 148.808L89.8118 153.206L87.4181 152.959ZM99.8093 157.901L100.779 148.506L101.378 142.712L103.212 142.901L102.793 145.865L103.129 145.899C103.375 145.262 103.68 144.72 104.042 144.275C104.421 143.817 104.878 143.48 105.413 143.264C105.949 143.033 106.575 142.954 107.291 143.028C108.35 143.138 109.202 143.497 109.848 144.106C110.51 144.702 110.972 145.481 111.235 146.443C111.499 147.389 111.57 148.444 111.45 149.607C111.33 150.771 111.044 151.789 110.592 152.662C110.14 153.534 109.536 154.203 108.78 154.668C108.04 155.119 107.17 155.293 106.171 155.19C105.366 155.106 104.712 154.873 104.209 154.489C103.722 154.093 103.351 153.602 103.094 153.018C102.838 152.434 102.651 151.834 102.534 151.219L102.154 151.18C102.202 151.592 102.233 152.017 102.248 152.456C102.263 152.894 102.263 153.331 102.248 153.767C102.25 154.189 102.231 154.594 102.191 154.982L101.867 158.114L99.8093 157.901ZM105.839 153.369C106.495 153.437 107.066 153.307 107.552 152.981C108.04 152.639 108.437 152.153 108.743 151.521C109.049 150.889 109.245 150.164 109.33 149.343C109.421 148.463 109.372 147.697 109.183 147.045C109.009 146.394 108.716 145.873 108.304 145.484C107.893 145.08 107.367 144.845 106.726 144.779C106.174 144.722 105.669 144.798 105.21 145.007C104.768 145.202 104.376 145.493 104.035 145.88C103.695 146.252 103.418 146.675 103.203 147.151C103.004 147.612 102.881 148.082 102.831 148.559L102.804 148.828C102.773 149.126 102.783 149.466 102.834 149.848C102.886 150.215 102.983 150.595 103.123 150.986C103.264 151.377 103.452 151.743 103.688 152.084C103.939 152.427 104.241 152.714 104.594 152.947C104.947 153.179 105.362 153.32 105.839 153.369ZM118.752 156.489C117.842 156.395 117.051 156.177 116.378 155.836C115.721 155.482 115.181 155.019 114.757 154.448C114.334 153.877 114.04 153.221 113.875 152.481C113.711 151.74 113.674 150.922 113.767 150.028C113.861 149.118 114.066 148.295 114.383 147.559C114.701 146.823 115.12 146.196 115.64 145.677C116.161 145.158 116.773 144.784 117.475 144.555C118.178 144.311 118.962 144.233 119.827 144.323C120.588 144.401 121.268 144.6 121.869 144.918C122.469 145.236 122.957 145.686 123.334 146.268C123.728 146.836 123.995 147.534 124.136 148.362C124.278 149.176 124.271 150.117 124.115 151.187L115.026 150.316L115.169 148.929L123.028 149.673L122.238 150.54C122.409 149.609 122.4 148.824 122.209 148.186C122.019 147.549 121.701 147.048 121.256 146.686C120.826 146.325 120.291 146.112 119.649 146.045C118.963 145.974 118.341 146.091 117.782 146.395C117.223 146.699 116.767 147.172 116.415 147.814C116.077 148.457 115.859 149.256 115.76 150.211C115.618 151.583 115.816 152.666 116.352 153.46C116.889 154.239 117.762 154.691 118.97 154.815C119.432 154.863 119.84 154.853 120.194 154.784C120.564 154.701 120.879 154.575 121.138 154.406C121.413 154.224 121.639 154.006 121.815 153.753C122.007 153.501 122.164 153.223 122.286 152.919L124.032 153.529C123.842 154.052 123.583 154.515 123.255 154.919C122.944 155.309 122.564 155.631 122.115 155.886C121.682 156.143 121.188 156.326 120.634 156.434C120.08 156.543 119.453 156.561 118.752 156.489ZM126.443 156.989L127.09 150.725L127.637 145.423L129.472 145.613L128.877 149.621L129.257 149.66C129.482 148.794 129.77 148.055 130.119 147.443C130.469 146.831 130.893 146.37 131.393 146.06C131.907 145.751 132.514 145.633 133.215 145.705C133.364 145.721 133.534 145.753 133.725 145.803C133.917 145.838 134.136 145.913 134.38 146.029L134.049 148.143C133.834 148.03 133.617 147.947 133.396 147.894C133.177 147.826 132.963 147.782 132.754 147.76C132.173 147.7 131.646 147.834 131.175 148.162C130.719 148.492 130.316 148.963 129.967 149.575C129.619 150.172 129.315 150.857 129.054 151.629L128.479 157.199L126.443 156.989ZM135.401 157.914L136.595 146.348L138.631 146.558L137.436 158.124L135.401 157.914ZM137.832 144.441C137.355 144.392 137.007 144.258 136.788 144.039C136.569 143.821 136.48 143.518 136.52 143.13C136.56 142.742 136.71 142.464 136.968 142.294C137.227 142.125 137.587 142.064 138.05 142.112C138.527 142.161 138.875 142.295 139.093 142.514C139.312 142.732 139.401 143.035 139.361 143.423C139.323 143.796 139.173 144.075 138.913 144.259C138.655 144.428 138.294 144.489 137.832 144.441ZM145.907 159.293C144.997 159.199 144.206 158.981 143.533 158.64C142.876 158.286 142.336 157.824 141.913 157.252C141.489 156.681 141.195 156.025 141.03 155.285C140.866 154.544 140.83 153.726 140.922 152.832C141.016 151.922 141.222 151.099 141.539 150.363C141.856 149.627 142.275 149 142.796 148.481C143.317 147.962 143.928 147.588 144.63 147.359C145.333 147.115 146.118 147.037 146.983 147.127C147.743 147.205 148.424 147.404 149.024 147.722C149.624 148.04 150.113 148.49 150.49 149.072C150.883 149.64 151.15 150.338 151.291 151.167C151.433 151.98 151.426 152.921 151.27 153.991L142.181 153.12L142.324 151.733L150.183 152.477L149.393 153.345C149.564 152.413 149.555 151.628 149.365 150.99C149.174 150.353 148.857 149.853 148.412 149.49C147.982 149.129 147.446 148.916 146.805 148.849C146.119 148.778 145.496 148.895 144.937 149.199C144.378 149.503 143.922 149.976 143.57 150.618C143.232 151.261 143.014 152.06 142.915 153.015C142.774 154.387 142.971 155.47 143.507 156.264C144.044 157.043 144.917 157.495 146.125 157.619C146.588 157.667 146.996 157.657 147.349 157.588C147.72 157.505 148.034 157.379 148.293 157.21C148.568 157.028 148.794 156.81 148.971 156.557C149.162 156.305 149.319 156.027 149.441 155.723L151.187 156.333C150.997 156.856 150.738 157.319 150.41 157.723C150.099 158.113 149.719 158.435 149.27 158.69C148.837 158.947 148.343 159.13 147.789 159.238C147.236 159.347 146.608 159.365 145.907 159.293ZM153.598 159.793L154.34 152.612L154.792 148.227L156.627 148.417L156.047 152.065L156.427 152.104C156.73 151.216 157.083 150.498 157.486 149.952C157.904 149.408 158.396 149.021 158.962 148.793C159.528 148.565 160.169 148.488 160.885 148.562C162.168 148.695 163.089 149.257 163.65 150.25C164.227 151.229 164.422 152.628 164.234 154.447L163.576 160.823L161.517 160.611L162.157 154.414C162.293 153.101 162.184 152.11 161.831 151.441C161.493 150.773 160.929 150.398 160.139 150.317C159.423 150.243 158.788 150.403 158.235 150.798C157.697 151.195 157.248 151.744 156.889 152.445C156.53 153.147 156.292 153.921 156.174 154.768L155.634 160.003L153.598 159.793ZM171.861 161.973C170.847 161.868 169.999 161.614 169.317 161.212C168.65 160.812 168.121 160.313 167.73 159.715C167.355 159.118 167.1 158.451 166.965 157.714C166.845 156.978 166.825 156.222 166.905 155.447C166.993 154.597 167.187 153.81 167.488 153.088C167.788 152.365 168.192 151.744 168.698 151.223C169.22 150.689 169.833 150.3 170.536 150.056C171.256 149.799 172.071 149.717 172.981 149.811C173.861 149.902 174.62 150.139 175.259 150.521C175.899 150.889 176.4 151.37 176.76 151.965C177.136 152.562 177.344 153.246 177.385 154.019L175.383 154.355C175.396 153.934 175.311 153.519 175.128 153.108C174.959 152.699 174.678 152.353 174.285 152.071C173.894 151.775 173.392 151.595 172.781 151.532C172.199 151.471 171.688 151.532 171.247 151.712C170.821 151.894 170.446 152.172 170.121 152.546C169.811 152.921 169.554 153.369 169.349 153.89C169.16 154.413 169.032 154.988 168.968 155.614C168.878 156.479 168.92 157.245 169.092 157.911C169.28 158.578 169.616 159.118 170.101 159.53C170.586 159.942 171.239 160.19 172.059 160.275C172.67 160.338 173.203 160.287 173.657 160.123C174.113 159.944 174.487 159.674 174.781 159.312C175.076 158.936 175.289 158.483 175.419 157.954L177.254 158.573C177.083 159.203 176.831 159.75 176.497 160.213C176.162 160.676 175.762 161.049 175.296 161.332C174.831 161.601 174.307 161.788 173.723 161.894C173.153 162.015 172.532 162.042 171.861 161.973ZM184.139 163.24C183.229 163.146 182.437 162.929 181.764 162.588C181.107 162.234 180.567 161.771 180.144 161.2C179.721 160.629 179.427 159.973 179.262 159.232C179.097 158.492 179.061 157.674 179.153 156.779C179.247 155.87 179.453 155.047 179.77 154.311C180.087 153.575 180.506 152.947 181.027 152.428C181.548 151.909 182.159 151.535 182.861 151.306C183.565 151.062 184.349 150.985 185.214 151.074C185.975 151.153 186.655 151.351 187.255 151.67C187.855 151.988 188.344 152.438 188.721 153.019C189.115 153.587 189.382 154.286 189.522 155.114C189.664 155.928 189.658 156.869 189.502 157.938L180.412 157.068L180.556 155.681L188.415 156.424L187.624 157.292C187.796 156.36 187.786 155.576 187.596 154.938C187.406 154.3 187.088 153.8 186.643 153.438C186.213 153.077 185.677 152.863 185.036 152.797C184.35 152.726 183.728 152.843 183.169 153.147C182.61 153.451 182.154 153.924 181.801 154.566C181.463 155.209 181.245 156.008 181.147 156.963C181.005 158.335 181.202 159.418 181.738 160.212C182.276 160.991 183.149 161.442 184.357 161.567C184.819 161.615 185.227 161.604 185.581 161.535C185.951 161.453 186.266 161.327 186.524 161.158C186.799 160.975 187.025 160.757 187.202 160.504C187.394 160.253 187.551 159.975 187.672 159.671L189.418 160.281C189.229 160.804 188.97 161.267 188.642 161.67C188.33 162.06 187.95 162.383 187.502 162.638C187.068 162.895 186.575 163.077 186.021 163.186C185.467 163.295 184.84 163.313 184.139 163.24ZM197.644 164.341L199.169 149.576L201.227 149.789L199.703 164.554L197.644 164.341ZM199.104 158.093L199.286 156.326L207.765 157.201L207.582 158.969L199.104 158.093ZM199.787 151.471L199.974 149.659L209.415 150.634L209.228 152.446L199.787 151.471ZM210.356 165.654L211.55 154.088L213.586 154.298L212.392 165.864L210.356 165.654ZM212.787 152.181C212.31 152.131 211.962 151.998 211.743 151.779C211.525 151.561 211.436 151.257 211.476 150.87C211.516 150.482 211.665 150.203 211.924 150.034C212.182 149.865 212.543 149.804 213.005 149.852C213.482 149.901 213.83 150.035 214.049 150.254C214.267 150.472 214.357 150.775 214.317 151.163C214.278 151.536 214.129 151.814 213.869 151.998C213.61 152.168 213.25 152.228 212.787 152.181ZM215.926 166.229L216.573 159.965L217.121 154.663L218.955 154.852L218.36 158.861L218.741 158.9C218.966 158.034 219.253 157.295 219.603 156.683C219.952 156.071 220.377 155.61 220.876 155.299C221.39 154.991 221.998 154.873 222.699 154.945C222.848 154.96 223.018 154.993 223.208 155.043C223.401 155.078 223.619 155.153 223.863 155.269L223.532 157.383C223.318 157.27 223.1 157.187 222.879 157.134C222.66 157.066 222.446 157.022 222.238 157C221.656 156.94 221.13 157.074 220.659 157.402C220.203 157.732 219.8 158.203 219.45 158.815C219.102 159.412 218.798 160.097 218.537 160.869L217.962 166.439L215.926 166.229ZM229.083 167.881C228.278 167.798 227.571 167.635 226.963 167.391C226.354 167.162 225.856 166.87 225.471 166.513C225.087 166.142 224.807 165.721 224.629 165.251C224.452 164.78 224.383 164.276 224.424 163.737L226.193 163.468C226.112 163.957 226.187 164.402 226.417 164.802C226.663 165.19 227.03 165.506 227.517 165.752C228.019 166 228.635 166.162 229.366 166.237C230.246 166.328 230.94 166.249 231.448 166C231.971 165.753 232.259 165.368 232.313 164.846C232.356 164.428 232.255 164.094 232.01 163.842C231.766 163.576 231.412 163.351 230.949 163.168C230.502 162.971 229.964 162.78 229.335 162.594C228.81 162.419 228.287 162.23 227.766 162.025C227.244 161.82 226.772 161.576 226.35 161.291C225.943 160.993 225.627 160.628 225.4 160.198C225.173 159.768 225.09 159.254 225.152 158.658C225.224 157.957 225.473 157.372 225.898 156.903C226.323 156.435 226.894 156.094 227.609 155.882C228.324 155.669 229.159 155.612 230.114 155.711C231.068 155.809 231.866 156.042 232.506 156.41C233.148 156.763 233.636 157.22 233.969 157.782C234.303 158.344 234.456 158.978 234.429 159.683L232.615 159.948C232.651 159.455 232.56 159.023 232.342 158.654C232.139 158.286 231.822 157.997 231.391 157.787C230.963 157.562 230.45 157.419 229.853 157.357C229.063 157.275 228.421 157.36 227.928 157.61C227.435 157.861 227.161 158.247 227.107 158.769C227.067 159.157 227.169 159.484 227.413 159.75C227.672 160.018 228.033 160.244 228.496 160.427C228.96 160.611 229.475 160.8 230.043 160.994C230.627 161.175 231.18 161.368 231.701 161.572C232.238 161.778 232.71 162.023 233.118 162.306C233.526 162.59 233.836 162.946 234.048 163.375C234.261 163.789 234.336 164.301 234.273 164.913C234.195 165.673 233.927 166.294 233.471 166.774C233.015 167.24 232.409 167.569 231.65 167.762C230.908 167.942 230.052 167.981 229.083 167.881ZM240.259 168.967C239.185 168.857 238.417 168.483 237.956 167.848C237.494 167.212 237.324 166.298 237.447 165.105L238.124 158.55L236.379 158.37L236.577 156.672L237.673 156.785C238.046 156.824 238.322 156.784 238.5 156.667C238.692 156.551 238.82 156.338 238.882 156.028L239.286 154.306L240.539 154.436L240.268 157.053L243.602 157.397L243.424 159.12L240.091 158.776L239.421 165.263C239.359 165.86 239.449 166.306 239.689 166.602C239.947 166.885 240.336 167.054 240.858 167.107C241.141 167.137 241.436 167.129 241.742 167.086C242.063 167.043 242.384 166.926 242.706 166.733L242.495 168.769C242.046 168.888 241.632 168.958 241.253 168.98C240.889 169.002 240.557 168.998 240.259 168.967Z" fill="#7F7F7F"/>
<path d="M140.078 214.616C139.57 215.415 138.201 215.274 137.867 214.388C134.96 207.489 132.38 200.517 131.224 193.16C131.122 192.085 132.39 191.151 133.272 191.881C135.226 193.573 136.832 195.548 138.194 197.818C139.295 183.03 136.64 189.163 141.616 174.988C141.935 173.957 143.704 174.352 143.489 175.395C140.039 190.259 142.2 183.756 140.856 198.838C142.809 197.443 144.763 196.048 146.611 194.642C147.424 193.981 148.961 194.566 148.725 195.818C147.164 202.682 144.173 208.972 140.078 214.616ZM140.214 201.964C139.484 202.847 137.715 202.451 137.868 200.977C137.879 200.872 137.889 200.766 137.889 200.766C136.756 199.372 135.728 197.989 134.49 196.584C135.674 201.602 137.313 206.348 139.268 211.127C141.798 207.237 143.813 203.187 145.123 198.746C143.856 199.679 142.483 200.602 141.205 201.641C140.951 202.04 140.519 202.102 140.214 201.964Z" fill="#464646"/>
<path d="M51.3897 235.837C51.2853 235.827 51.0953 235.769 50.8196 235.665C50.5588 235.563 50.2847 235.444 49.9972 235.309C49.7262 235.161 49.5156 235.011 49.3654 234.86C48.903 234.375 48.5868 233.86 48.417 233.315C48.2488 232.755 48.1708 232.196 48.183 231.64C48.2101 231.085 48.2864 230.565 48.4118 230.081C48.6744 229.143 49.1152 228.232 49.7342 227.346C50.3548 226.446 51.0628 225.72 51.8582 225.169C52.2814 224.866 52.6992 224.615 53.1116 224.417C53.524 224.218 53.9593 224.09 54.4175 224.031C54.5862 224.004 54.8197 224.005 55.1179 224.036C55.4327 224.053 55.6422 224.067 55.7466 224.078C56.0449 224.109 56.3661 224.21 56.7102 224.381C57.0707 224.539 57.3759 224.721 57.6259 224.928C57.8774 225.12 57.9955 225.29 57.9801 225.439C57.9693 225.544 57.951 225.647 57.9254 225.75C57.8997 225.853 57.8302 225.868 57.7171 225.797L57.4934 225.773L57.6478 226.468C57.6951 226.593 57.7304 226.763 57.7536 226.976C57.7783 227.174 57.7822 227.356 57.7652 227.52C57.7498 227.669 57.7044 227.89 57.6288 228.184C57.5697 228.464 57.486 228.765 57.3775 229.085C57.284 229.407 57.1853 229.706 57.0815 229.981C56.9926 230.259 56.9113 230.461 56.8378 230.589C56.7838 230.674 56.7448 230.761 56.7206 230.849C56.7129 230.923 56.706 230.99 56.6998 231.05C56.6279 231.163 56.5094 231.362 56.3443 231.646C56.1793 231.931 56.0608 232.129 55.9888 232.243C55.923 232.296 55.8654 232.343 55.8161 232.383C55.7816 232.425 55.7911 232.478 55.8446 232.544C55.84 232.589 55.792 232.69 55.7004 232.846C55.6105 232.987 55.5138 233.121 55.4105 233.246C55.322 233.372 55.2555 233.433 55.2107 233.428C55.2107 233.428 55.1876 233.434 55.1413 233.444C55.1115 233.441 55.0942 233.462 55.0896 233.506C55.0835 233.566 54.9629 233.712 54.7279 233.944C54.5079 234.177 54.2497 234.414 53.9536 234.655C53.789 234.789 53.5304 234.958 53.1777 235.163C52.8264 235.353 52.4776 235.52 52.131 235.665C51.8008 235.797 51.5537 235.854 51.3897 235.837ZM51.5667 233.685C51.7308 233.702 51.8897 233.696 52.0434 233.667C52.1987 233.622 52.334 233.553 52.4491 233.46C52.7361 233.308 53.0142 233.096 53.2837 232.822C53.568 232.55 53.8122 232.229 54.0163 231.858C54.2035 231.651 54.3541 231.433 54.4682 231.204C54.5988 230.961 54.7993 230.552 55.0697 229.977C55.2059 229.825 55.3087 229.633 55.3781 229.399C55.4475 229.165 55.4907 228.966 55.5076 228.801C55.5245 228.637 55.5476 228.414 55.5769 228.13C55.6211 227.849 55.683 227.614 55.7627 227.426C55.8027 227.038 55.8184 226.814 55.8096 226.753C55.8024 226.677 55.7528 226.573 55.6607 226.443C55.6056 226.392 55.5282 226.339 55.4285 226.284C55.3436 226.23 55.249 226.197 55.1446 226.187C55.0402 226.176 54.8954 226.191 54.7103 226.232C54.5416 226.26 54.3938 226.305 54.2668 226.367C54.1562 226.416 54.0361 226.411 53.9065 226.353C53.7918 226.296 53.7383 226.23 53.746 226.155C53.7676 225.946 53.6616 225.951 53.4282 226.168C53.2112 226.371 52.9179 226.658 52.5482 227.026C52.252 227.267 51.9924 227.519 51.7692 227.782C51.5626 228.032 51.4561 228.187 51.45 228.247C51.4438 228.307 51.4137 228.379 51.3598 228.464C51.3058 228.548 51.2503 228.648 51.1932 228.763C51.1079 228.86 51.0007 229.022 50.8716 229.25C50.7426 229.478 50.6135 229.705 50.4845 229.933C50.3719 230.148 50.2946 230.313 50.2524 230.429C50.2463 230.489 50.2293 230.653 50.2016 230.922C50.1754 231.175 50.1508 231.414 50.1277 231.637C50.1015 231.891 50.0897 232.078 50.0923 232.199C50.0949 232.32 50.1073 232.419 50.1294 232.497C50.1664 232.576 50.2145 232.694 50.2737 232.851C50.3226 232.961 50.399 233.097 50.5029 233.259C50.6232 233.407 50.7027 233.513 50.7413 233.577C50.8899 233.743 50.9882 233.814 51.036 233.789C51.1003 233.75 51.2772 233.716 51.5667 233.685ZM58.5419 236.463C58.4853 236.427 58.3894 236.334 58.2541 236.184C58.1338 236.036 58.0149 235.873 57.8976 235.695C57.7819 235.503 57.7063 235.359 57.6708 235.265C57.6337 235.186 57.6476 235.052 57.7124 234.862C57.792 234.675 57.8617 234.584 57.9214 234.59C57.963 234.624 58.0281 234.578 58.1165 234.452C58.2049 234.325 58.2941 234.191 58.3841 234.05C58.4756 233.894 58.5229 233.801 58.526 233.771C58.547 233.713 58.589 233.672 58.6517 233.648C58.7309 233.611 58.8026 233.573 58.8669 233.535C58.9538 233.423 59.063 233.314 59.1947 233.207C59.3427 233.086 59.4587 232.985 59.5425 232.903C59.6772 232.767 59.9166 232.565 60.2606 232.299C60.6046 232.033 60.9419 231.759 61.2725 231.477C61.6211 231.166 61.9278 230.896 62.1926 230.667C62.4589 230.424 62.605 230.25 62.6306 230.147C62.6306 230.147 62.6553 230.127 62.7047 230.087C62.7705 230.034 62.843 229.989 62.9222 229.951C63.0014 229.914 63.106 229.85 63.2361 229.758C63.3811 229.667 63.503 229.582 63.6017 229.502C63.6439 229.385 63.7248 229.258 63.8446 229.12C63.9809 228.968 64.1313 228.825 64.2958 228.692C64.4336 228.525 64.5655 228.343 64.6914 228.145C64.8189 227.932 64.903 227.774 64.9436 227.673C65.0053 227.514 65.0004 227.415 64.9289 227.378C64.8589 227.325 64.6653 227.23 64.348 227.092C64.0024 226.935 63.6691 226.878 63.3482 226.921C63.0273 226.963 62.5866 227.143 62.0261 227.462C61.8127 227.486 61.6127 227.525 61.426 227.581C61.2543 227.639 61.1095 227.654 60.9917 227.627C60.9352 227.591 60.875 227.517 60.8112 227.405C60.7474 227.293 60.6754 227.187 60.5951 227.088L60.4708 226.103L61.2035 225.795C61.855 225.47 62.4667 225.239 63.0385 225.102C63.6268 224.952 64.1228 224.966 64.5266 225.143C64.6906 225.16 64.8374 225.198 64.967 225.256C65.0982 225.3 65.1638 225.322 65.1638 225.322C65.2846 225.319 65.45 225.397 65.6598 225.554C65.8846 225.713 66.098 225.908 66.3002 226.14C66.5172 226.374 66.6597 226.599 66.7277 226.817C66.9293 227.2 66.9741 227.642 66.8621 228.143C66.7501 228.643 66.4792 229.151 66.0494 229.664C65.9656 229.746 65.7823 229.915 65.4995 230.172C65.2167 230.43 64.8927 230.72 64.5277 231.044C64.1791 231.355 63.8567 231.631 63.5605 231.871C63.2792 232.114 63.0975 232.268 63.0152 232.335C62.9062 232.369 62.7126 232.492 62.4344 232.705C62.1712 232.919 61.8824 233.16 61.5683 233.429C61.2706 233.685 61.0132 233.914 60.7962 234.118C60.5957 234.308 60.5104 234.405 60.5402 234.408C60.5191 234.466 60.5937 234.474 60.7639 234.431C60.9506 234.375 61.1133 234.332 61.2522 234.301C61.4836 234.249 61.7515 234.209 62.0559 234.18C62.3768 234.138 62.6962 234.111 63.014 234.098C63.3318 234.086 63.6033 234.084 63.8286 234.092C64.0688 234.102 64.2089 234.131 64.249 234.181C64.2711 234.258 64.2904 234.291 64.3069 234.277C64.3398 234.25 64.3562 234.237 64.3562 234.237C64.3969 234.136 64.5864 234.125 64.9248 234.205C65.2781 234.287 65.5918 234.387 65.8659 234.506C66.0253 234.568 66.146 234.64 66.2277 234.724C66.3244 234.81 66.3697 234.882 66.3635 234.942C66.3635 234.942 66.3746 234.981 66.3967 235.058C66.4353 235.122 66.494 235.211 66.5727 235.325C66.7913 235.544 66.7697 235.752 66.508 235.951C66.2612 236.152 65.8449 236.169 65.2591 236.003C64.8713 235.963 64.5484 235.953 64.2902 235.971C64.2275 235.995 64.0992 235.997 63.9053 235.977C63.7114 235.957 63.5242 235.945 63.3437 235.941C63.0784 235.884 62.8084 235.871 62.5338 235.903C62.2607 235.92 61.9316 235.969 61.5464 236.05C61.4076 236.08 61.1918 236.126 60.8992 236.186C60.6066 236.246 60.2917 236.304 59.9543 236.36C59.617 236.416 59.3118 236.452 59.0387 236.469C58.7805 236.487 58.6149 236.485 58.5419 236.463ZM68.7148 236.518C68.3908 236.591 68.1244 236.616 67.9156 236.594C67.7084 236.558 67.4872 236.437 67.2522 236.232C66.9847 235.903 66.9111 235.594 67.0314 235.305C67.1681 235.002 67.4681 234.724 67.9314 234.471C68.2482 234.322 68.4737 234.255 68.6079 234.269C68.7586 234.27 68.9695 234.344 69.2405 234.493C69.7152 234.858 69.9027 235.232 69.8031 235.613C69.7049 235.98 69.3421 236.282 68.7148 236.518Z" fill="#FF6200"/>
<path d="M76.9799 238.547L78.5045 223.782L80.585 223.997L79.0604 238.762L76.9799 238.547ZM82.7437 239.142L83.4852 231.961L83.938 227.577L85.7724 227.766L85.1922 231.414L85.5725 231.453C85.8753 230.565 86.2282 229.848 86.6313 229.302C87.0493 228.757 87.5413 228.371 88.1075 228.143C88.6736 227.915 89.3147 227.838 90.0305 227.912C91.3131 228.044 92.2348 228.607 92.7955 229.599C93.3727 230.578 93.5674 231.977 93.3795 233.797L92.7211 240.173L90.663 239.96L91.3029 233.763C91.4384 232.451 91.3297 231.46 90.9768 230.79C90.6388 230.123 90.0746 229.748 89.2841 229.666C88.5683 229.592 87.9337 229.753 87.3804 230.148C86.8421 230.544 86.3935 231.093 86.0347 231.795C85.6758 232.497 85.4376 233.271 85.32 234.118L84.7795 239.353L82.7437 239.142ZM99.6269 241.112C98.5531 241.001 97.7852 240.628 97.3233 239.992C96.8614 239.357 96.692 238.442 96.8152 237.249L97.492 230.695L95.7471 230.514L95.945 228.816L97.0412 228.93C97.414 228.968 97.6894 228.929 97.8673 228.811C98.0602 228.696 98.1877 228.483 98.2498 228.173L98.6537 226.451L99.9065 226.58L99.6362 229.198L102.969 229.542L102.792 231.264L99.4583 230.92L98.7884 237.408C98.7268 238.004 98.8164 238.451 99.0571 238.747C99.3143 239.03 99.7039 239.198 100.226 239.252C100.509 239.281 100.804 239.274 101.11 239.23C101.431 239.188 101.752 239.07 102.073 238.877L101.863 240.913C101.414 241.033 100.999 241.103 100.62 241.124C100.256 241.147 99.9252 241.143 99.6269 241.112ZM109.155 242.164C108.245 242.07 107.454 241.852 106.781 241.511C106.124 241.157 105.584 240.694 105.161 240.123C104.737 239.552 104.443 238.896 104.278 238.155C104.114 237.415 104.078 236.597 104.17 235.702C104.264 234.793 104.469 233.97 104.787 233.234C105.104 232.498 105.523 231.87 106.044 231.351C106.564 230.832 107.176 230.458 107.878 230.23C108.581 229.986 109.366 229.908 110.231 229.998C110.991 230.076 111.672 230.275 112.272 230.593C112.872 230.911 113.361 231.361 113.738 231.942C114.131 232.511 114.398 233.209 114.539 234.037C114.681 234.851 114.674 235.792 114.518 236.861L105.429 235.991L105.572 234.604L113.431 235.347L112.641 236.215C112.812 235.284 112.803 234.499 112.613 233.861C112.422 233.223 112.104 232.723 111.66 232.361C111.23 232 110.694 231.786 110.053 231.72C109.367 231.649 108.744 231.766 108.185 232.07C107.626 232.374 107.17 232.847 106.818 233.489C106.48 234.132 106.262 234.931 106.163 235.886C106.022 237.258 106.219 238.341 106.755 239.135C107.292 239.914 108.165 240.366 109.373 240.49C109.835 240.538 110.244 240.527 110.597 240.458C110.968 240.376 111.282 240.25 111.541 240.081C111.816 239.898 112.042 239.681 112.219 239.428C112.41 239.176 112.567 238.898 112.689 238.594L114.435 239.204C114.245 239.727 113.986 240.19 113.658 240.594C113.347 240.984 112.967 241.306 112.518 241.561C112.085 241.818 111.591 242.001 111.037 242.109C110.484 242.218 109.856 242.236 109.155 242.164ZM116.846 242.664L117.493 236.4L118.04 231.098L119.875 231.287L119.28 235.296L119.66 235.335C119.885 234.469 120.173 233.73 120.522 233.118C120.872 232.506 121.296 232.045 121.796 231.734C122.31 231.426 122.917 231.308 123.618 231.38C123.768 231.395 123.938 231.428 124.128 231.478C124.321 231.513 124.539 231.588 124.783 231.704L124.452 233.818C124.238 233.705 124.02 233.622 123.799 233.569C123.58 233.501 123.366 233.457 123.158 233.435C122.576 233.375 122.05 233.509 121.579 233.837C121.122 234.167 120.72 234.638 120.37 235.25C120.022 235.847 119.718 236.532 119.457 237.304L118.882 242.874L116.846 242.664ZM126.939 243.706L127.782 235.541L125.724 235.328L125.893 233.695L128.76 234.172L128.799 233.792C128.442 233.604 128.149 233.37 127.922 233.091C127.711 232.797 127.556 232.473 127.457 232.116C127.374 231.76 127.352 231.389 127.392 231.001C127.456 230.375 127.647 229.844 127.963 229.409C128.294 228.976 128.727 228.652 129.262 228.436C129.811 228.221 130.444 228.151 131.16 228.225C131.727 228.283 132.225 228.418 132.656 228.628C133.103 228.825 133.462 229.065 133.734 229.35L133.292 231.226C133.036 230.928 132.715 230.684 132.328 230.493C131.942 230.288 131.548 230.164 131.145 230.122C130.653 230.072 130.234 230.187 129.889 230.467C129.543 230.748 129.336 231.217 129.269 231.873C129.23 232.246 129.249 232.572 129.326 232.851C129.403 233.13 129.513 233.375 129.657 233.586C129.817 233.784 129.981 233.951 130.148 234.089L133.011 234.385L132.815 236.06L129.795 235.748L128.952 243.914L126.939 243.706ZM136.934 245.032C136.307 244.967 135.753 244.789 135.27 244.498C134.79 244.192 134.425 243.786 134.176 243.277C133.928 242.755 133.843 242.12 133.92 241.374C133.977 240.823 134.124 240.348 134.361 239.95C134.613 239.554 134.963 239.229 135.411 238.974C135.875 238.72 136.452 238.531 137.143 238.406C137.834 238.282 138.671 238.202 139.655 238.168C140.214 238.151 140.669 238.122 141.02 238.083C141.386 238.046 141.659 237.953 141.84 237.806C142.022 237.644 142.131 237.392 142.167 237.049C142.225 236.482 142.081 235.985 141.733 235.557C141.385 235.129 140.794 234.872 139.959 234.786C139.526 234.741 139.078 234.77 138.616 234.873C138.153 234.976 137.731 235.189 137.351 235.511C136.988 235.82 136.729 236.284 136.575 236.901L134.76 236.08C134.935 235.556 135.179 235.091 135.492 234.686C135.82 234.283 136.216 233.955 136.679 233.701C137.144 233.432 137.668 233.245 138.252 233.14C138.851 233.036 139.5 233.02 140.201 233.092C141.171 233.192 141.959 233.44 142.567 233.834C143.189 234.23 143.621 234.787 143.864 235.505C144.122 236.21 144.197 237.092 144.088 238.151L143.822 240.724C143.774 241.186 143.729 241.694 143.687 242.247C143.662 242.787 143.643 243.336 143.631 243.892C143.62 244.434 143.612 244.945 143.608 245.427L141.729 245.233C141.733 244.751 141.738 244.269 141.742 243.787C141.762 243.307 141.789 242.828 141.823 242.349L141.532 242.319C141.251 242.847 140.9 243.331 140.478 243.77C140.056 244.209 139.546 244.548 138.948 244.788C138.366 245.029 137.694 245.11 136.934 245.032ZM137.709 243.439C138.037 243.473 138.37 243.454 138.709 243.384C139.063 243.315 139.416 243.178 139.769 242.973C140.137 242.77 140.489 242.497 140.826 242.155C141.177 241.815 141.499 241.396 141.792 240.899L142.023 238.662L142.593 238.833C142.33 239.047 141.991 239.193 141.576 239.271C141.175 239.35 140.733 239.403 140.248 239.428C139.763 239.453 139.277 239.486 138.791 239.526C138.306 239.551 137.854 239.625 137.434 239.748C137.031 239.857 136.695 240.041 136.427 240.299C136.16 240.558 136 240.934 135.949 241.426C135.888 242.022 136.02 242.496 136.345 242.846C136.673 243.181 137.127 243.379 137.709 243.439ZM151.69 246.556C150.676 246.451 149.828 246.198 149.146 245.796C148.479 245.395 147.95 244.896 147.56 244.298C147.184 243.701 146.929 243.034 146.794 242.297C146.674 241.561 146.654 240.805 146.734 240.03C146.822 239.18 147.016 238.393 147.317 237.671C147.618 236.948 148.021 236.327 148.527 235.806C149.05 235.272 149.662 234.883 150.366 234.639C151.086 234.382 151.901 234.3 152.81 234.394C153.69 234.485 154.45 234.722 155.088 235.104C155.729 235.472 156.229 235.953 156.59 236.548C156.965 237.145 157.174 237.829 157.214 238.602L155.213 238.938C155.226 238.518 155.141 238.102 154.957 237.691C154.788 237.282 154.507 236.936 154.115 236.654C153.723 236.358 153.222 236.178 152.61 236.115C152.029 236.055 151.517 236.115 151.077 236.295C150.651 236.478 150.276 236.755 149.951 237.129C149.641 237.504 149.383 237.952 149.179 238.473C148.989 238.996 148.862 239.571 148.797 240.198C148.708 241.063 148.749 241.828 148.922 242.494C149.109 243.161 149.445 243.701 149.93 244.113C150.415 244.525 151.068 244.773 151.888 244.858C152.5 244.921 153.032 244.87 153.487 244.706C153.942 244.527 154.317 244.257 154.61 243.895C154.905 243.519 155.118 243.066 155.248 242.537L157.083 243.156C156.913 243.786 156.66 244.333 156.326 244.796C155.992 245.259 155.592 245.632 155.125 245.915C154.66 246.184 154.136 246.371 153.552 246.477C152.982 246.599 152.361 246.625 151.69 246.556ZM163.968 247.823C163.058 247.729 162.267 247.512 161.594 247.171C160.937 246.817 160.397 246.354 159.973 245.783C159.55 245.212 159.256 244.556 159.091 243.815C158.927 243.075 158.89 242.257 158.983 241.362C159.077 240.453 159.282 239.63 159.6 238.894C159.917 238.158 160.336 237.53 160.857 237.011C161.377 236.492 161.989 236.118 162.691 235.889C163.394 235.646 164.178 235.568 165.043 235.658C165.804 235.736 166.484 235.934 167.085 236.253C167.685 236.571 168.173 237.021 168.551 237.602C168.944 238.171 169.211 238.869 169.352 239.697C169.494 240.511 169.487 241.452 169.331 242.521L160.242 241.651L160.385 240.264L168.244 241.007L167.454 241.875C167.625 240.943 167.616 240.159 167.425 239.521C167.235 238.883 166.917 238.383 166.472 238.021C166.043 237.66 165.507 237.446 164.866 237.38C164.18 237.309 163.557 237.426 162.998 237.73C162.439 238.034 161.983 238.507 161.631 239.149C161.293 239.792 161.075 240.591 160.976 241.546C160.835 242.918 161.032 244.001 161.568 244.795C162.105 245.574 162.978 246.025 164.186 246.15C164.648 246.198 165.056 246.187 165.41 246.118C165.781 246.036 166.095 245.91 166.354 245.741C166.629 245.558 166.855 245.341 167.032 245.087C167.223 244.836 167.38 244.558 167.502 244.254L169.248 244.864C169.058 245.387 168.799 245.85 168.471 246.254C168.16 246.643 167.78 246.966 167.331 247.221C166.898 247.478 166.404 247.66 165.85 247.769C165.296 247.878 164.669 247.896 163.968 247.823ZM177.474 248.924L178.998 234.159L181.728 234.441L188.268 247.303L188.447 247.321L189.535 235.247L191.526 235.453L190.002 250.218L187.518 249.961L180.805 236.81L180.603 236.789L179.487 249.132L177.474 248.924ZM198.638 251.403C197.729 251.309 196.937 251.092 196.264 250.751C195.607 250.397 195.067 249.934 194.644 249.363C194.22 248.792 193.926 248.136 193.762 247.395C193.597 246.655 193.561 245.837 193.653 244.942C193.747 244.033 193.953 243.21 194.27 242.474C194.587 241.738 195.006 241.11 195.527 240.591C196.048 240.072 196.659 239.698 197.361 239.469C198.065 239.226 198.849 239.148 199.714 239.238C200.474 239.316 201.155 239.514 201.755 239.833C202.355 240.151 202.844 240.601 203.221 241.182C203.614 241.751 203.882 242.449 204.022 243.277C204.164 244.091 204.157 245.032 204.002 246.101L194.912 245.231L195.055 243.844L202.915 244.587L202.124 245.455C202.296 244.523 202.286 243.739 202.096 243.101C201.905 242.463 201.588 241.963 201.143 241.601C200.713 241.24 200.177 241.026 199.536 240.96C198.85 240.889 198.227 241.006 197.668 241.31C197.11 241.614 196.654 242.087 196.301 242.729C195.963 243.372 195.745 244.171 195.647 245.126C195.505 246.498 195.702 247.581 196.238 248.375C196.776 249.154 197.648 249.605 198.856 249.73C199.319 249.778 199.727 249.767 200.081 249.698C200.451 249.616 200.765 249.49 201.024 249.321C201.299 249.138 201.525 248.921 201.702 248.667C201.894 248.416 202.051 248.138 202.172 247.834L203.918 248.444C203.728 248.967 203.47 249.43 203.142 249.834C202.83 250.223 202.45 250.546 202.002 250.801C201.568 251.058 201.075 251.24 200.521 251.349C199.967 251.458 199.339 251.476 198.638 251.403ZM204.881 251.754L209.392 246.387L206.03 240.184L208.424 240.431L210.673 245.366L210.963 245.396L214.128 241.02L216.5 241.265L211.987 246.655L215.395 252.84L213.001 252.593L210.732 247.633L210.442 247.603L207.274 252.001L204.881 251.754ZM221.618 253.708C220.544 253.598 219.776 253.224 219.314 252.589C218.852 251.953 218.683 251.039 218.806 249.846L219.483 243.291L217.738 243.111L217.936 241.413L219.032 241.526C219.405 241.565 219.68 241.525 219.858 241.408C220.051 241.292 220.179 241.079 220.241 240.769L220.645 239.047L221.897 239.177L221.627 241.794L224.96 242.138L224.783 243.861L221.449 243.517L220.779 250.004C220.718 250.601 220.807 251.047 221.048 251.343C221.305 251.626 221.695 251.795 222.217 251.848C222.5 251.878 222.795 251.87 223.101 251.827C223.422 251.784 223.743 251.667 224.064 251.474L223.854 253.51C223.405 253.629 222.99 253.699 222.611 253.721C222.247 253.743 221.916 253.739 221.618 253.708Z" fill="#7F7F7F"/>
<path d="M131.223 300.368C130.715 301.167 129.345 301.026 129.011 300.14C126.105 293.241 123.525 286.269 122.369 278.912C122.267 277.837 123.534 276.903 124.417 277.633C126.371 279.325 127.976 281.3 129.339 283.569C130.44 268.782 127.784 274.915 132.76 260.74C133.08 259.709 134.848 260.104 134.634 261.146C131.183 276.011 133.345 269.508 132 284.59C133.954 283.195 135.907 281.8 137.755 280.394C138.569 279.733 140.105 280.317 139.869 281.57C138.309 288.434 135.318 294.724 131.223 300.368ZM131.358 287.716C130.629 288.599 128.86 288.203 129.012 286.729C129.023 286.624 129.034 286.518 129.034 286.518C127.901 285.124 126.873 283.741 125.634 282.335C126.819 287.354 128.458 292.1 130.412 296.879C132.943 292.989 134.957 288.939 136.267 284.498C135 285.431 133.628 286.354 132.349 287.393C132.096 287.792 131.663 287.854 131.358 287.716Z" fill="#464646"/>
<path d="M37.5616 321.076C37.4572 321.065 37.2671 321.008 36.9915 320.904C36.7307 320.801 36.4566 320.683 36.1691 320.548C35.8981 320.399 35.6874 320.249 35.5372 320.098C35.0748 319.613 34.7587 319.098 34.5889 318.553C34.4206 317.993 34.3426 317.435 34.3549 316.878C34.382 316.323 34.4583 315.804 34.5837 315.319C34.8463 314.382 35.2871 313.47 35.9061 312.584C36.5267 311.684 37.2347 310.958 38.0301 310.407C38.4533 310.104 38.8711 309.853 39.2835 309.655C39.6959 309.456 40.1312 309.328 40.5894 309.27C40.7581 309.242 40.9915 309.243 41.2898 309.274C41.6045 309.292 41.8141 309.306 41.9185 309.316C42.2168 309.347 42.538 309.448 42.882 309.619C43.2426 309.777 43.5478 309.96 43.7978 310.166C44.0493 310.358 44.1673 310.528 44.1519 310.678C44.1412 310.782 44.1229 310.886 44.0972 310.988C44.0715 311.091 44.0021 311.107 43.889 311.035L43.6653 311.012L43.8197 311.706C43.867 311.831 43.9023 312.001 43.9254 312.214C43.9502 312.413 43.9541 312.594 43.9371 312.758C43.9217 312.907 43.8762 313.129 43.8007 313.422C43.7416 313.703 43.6578 314.003 43.5494 314.323C43.4559 314.645 43.3572 314.944 43.2533 315.22C43.1644 315.497 43.0832 315.7 43.0097 315.828C42.9557 315.912 42.9167 315.999 42.8925 316.087C42.8848 316.161 42.8779 316.229 42.8717 316.288C42.7997 316.401 42.6812 316.6 42.5162 316.885C42.3512 317.169 42.2327 317.368 42.1607 317.481C42.0949 317.534 42.0373 317.581 41.9879 317.621C41.9535 317.663 41.963 317.717 42.0165 317.783C42.0119 317.827 41.9638 317.928 41.8723 318.084C41.7824 318.226 41.6857 318.359 41.5824 318.484C41.4939 318.61 41.4273 318.671 41.3826 318.667C41.3826 318.667 41.3595 318.672 41.3132 318.682C41.2833 318.679 41.2661 318.7 41.2615 318.745C41.2553 318.804 41.1348 318.95 40.8998 319.182C40.6797 319.416 40.4216 319.653 40.1255 319.893C39.9609 320.027 39.7023 320.196 39.3495 320.401C38.9983 320.591 38.6494 320.758 38.3028 320.903C37.9727 321.035 37.7256 321.093 37.5616 321.076ZM37.7386 318.923C37.9026 318.94 38.0615 318.934 38.2153 318.905C38.3706 318.861 38.5058 318.792 38.621 318.698C38.9079 318.547 39.1861 318.334 39.4555 318.061C39.7399 317.789 39.9841 317.467 40.1882 317.096C40.3753 316.89 40.526 316.671 40.6401 316.442C40.7707 316.199 40.9712 315.79 41.2416 315.215C41.3778 315.064 41.4806 314.871 41.55 314.637C41.6194 314.403 41.6625 314.204 41.6795 314.04C41.6964 313.876 41.7195 313.652 41.7488 313.369C41.793 313.087 41.8549 312.852 41.9346 312.664C41.9746 312.277 41.9902 312.052 41.9815 311.991C41.9743 311.915 41.9246 311.812 41.8325 311.682C41.7775 311.631 41.7001 311.577 41.6003 311.522C41.5155 311.468 41.4208 311.436 41.3164 311.425C41.212 311.414 41.0673 311.429 40.8822 311.47C40.7135 311.498 40.5656 311.543 40.4386 311.605C40.3281 311.654 40.208 311.65 40.0784 311.591C39.9637 311.534 39.9102 311.468 39.9179 311.393C39.9395 311.185 39.8335 311.189 39.6001 311.406C39.3831 311.61 39.0898 311.896 38.7201 312.265C38.4239 312.505 38.1643 312.757 37.9411 313.021C37.7344 313.271 37.628 313.425 37.6219 313.485C37.6157 313.545 37.5856 313.617 37.5316 313.702C37.4777 313.787 37.4221 313.887 37.3651 314.001C37.2797 314.098 37.1725 314.26 37.0435 314.488C36.9145 314.716 36.7854 314.944 36.6564 315.172C36.5438 315.386 36.4664 315.551 36.4243 315.668C36.4181 315.727 36.4012 315.891 36.3735 316.16C36.3473 316.413 36.3226 316.652 36.2995 316.876C36.2734 317.129 36.2616 317.316 36.2642 317.437C36.2668 317.558 36.2791 317.657 36.3013 317.735C36.3383 317.814 36.3864 317.932 36.4456 318.089C36.4944 318.2 36.5708 318.336 36.6748 318.497C36.7951 318.645 36.8746 318.751 36.9132 318.816C37.0618 318.982 37.1601 319.052 37.2079 319.027C37.2722 318.988 37.4491 318.954 37.7386 318.923ZM46.532 322.047C46.1592 322.009 45.8007 321.904 45.4566 321.733C45.129 321.548 44.8708 321.348 44.682 321.133C44.4933 320.917 44.4156 320.721 44.449 320.543C44.4885 320.306 44.5898 320.128 44.7528 320.009C44.9158 319.891 45.159 319.871 45.4825 319.949C45.9788 320.106 46.4895 320.196 47.0146 320.22C47.5412 320.23 48.0367 320.175 48.501 320.057C48.9803 319.941 49.3762 319.756 49.6889 319.502C50.1316 319.156 50.3742 318.849 50.4169 318.582C50.461 318.3 50.2815 317.995 49.8783 317.667C49.6983 317.513 49.4727 317.362 49.2017 317.213C48.9306 317.065 48.6565 316.946 48.3793 316.857C48.1186 316.755 47.883 316.7 47.6727 316.693C47.5369 316.695 47.3752 316.655 47.1874 316.576C47.0013 316.481 46.8166 316.371 46.6335 316.247C46.5548 316.133 46.4905 315.953 46.4406 315.707C46.3906 315.461 46.3538 315.306 46.3302 315.243C46.323 315.167 46.3844 315.083 46.5145 314.991C46.6446 314.899 46.8994 314.767 47.2789 314.595C47.6599 314.409 48.2127 314.164 48.9372 313.862C49.599 313.584 50.1032 313.372 50.4498 313.227C50.8129 313.069 51.0892 312.946 51.279 312.861C51.4852 312.761 51.6616 312.659 51.8081 312.553C52.0086 312.363 52.1068 312.215 52.1027 312.109C52.0986 312.003 51.9065 311.893 51.5264 311.778C51.1566 311.71 50.8584 311.679 50.6316 311.686C50.4063 311.678 50.2906 311.703 50.2845 311.763C50.2845 311.763 50.277 311.762 50.2621 311.761C50.2621 311.761 50.2397 311.758 50.195 311.754C50.1235 311.716 49.9587 311.707 49.7005 311.725C49.4424 311.744 49.1909 311.771 48.9461 311.806C48.7162 311.842 48.5915 311.882 48.572 311.925C48.554 311.954 48.4442 311.995 48.2426 312.05C48.0575 312.091 47.8657 312.124 47.6672 312.148C47.4836 312.175 47.3694 312.186 47.3247 312.181C47.2532 312.143 47.1745 312.03 47.0886 311.84C47.0176 311.652 46.9623 311.458 46.9226 311.258C46.8845 311.043 46.8843 310.899 46.9218 310.828C46.9578 310.771 47.0714 310.693 47.2627 310.592C47.4704 310.478 47.7005 310.366 47.953 310.256C48.207 310.132 48.4199 310.041 48.5917 309.983C48.8066 309.945 49.1178 309.924 49.5251 309.921C49.9488 309.905 50.3636 309.902 50.7693 309.914C51.1915 309.912 51.4913 309.928 51.6688 309.962C52.3471 310.107 52.8804 310.343 53.2688 310.669C53.6586 310.981 53.8824 311.441 53.9401 312.05C53.9633 312.263 53.941 312.48 53.8732 312.699C53.8053 312.918 53.6853 313.132 53.513 313.34C53.3408 313.548 53.0917 313.771 52.7657 314.009C52.3682 314.209 52.0566 314.38 51.8308 314.523C51.6216 314.652 51.3369 314.781 50.977 314.909C50.8649 314.973 50.6924 315.038 50.4594 315.105C50.2265 315.171 50.0092 315.231 49.8076 315.286C49.606 315.341 49.5037 315.383 49.5006 315.413C49.5006 315.413 49.5662 315.434 49.6974 315.478C49.845 315.508 49.9985 315.554 50.1579 315.616C50.3338 315.664 50.4552 315.73 50.522 315.812C50.9391 316.006 51.3074 316.308 51.6268 316.717C51.9627 317.114 52.1945 317.424 52.322 317.648C52.4831 318.132 52.4531 318.642 52.2321 319.176C52.0275 319.698 51.6985 320.184 51.245 320.635C50.8079 321.072 50.3122 321.42 49.7579 321.679C49.3157 321.875 48.7834 321.993 48.1612 322.034C47.5554 322.062 47.0123 322.067 46.532 322.047ZM54.8867 321.757C54.5627 321.829 54.2963 321.854 54.0875 321.833C53.8803 321.796 53.6591 321.675 53.424 321.47C53.1566 321.141 53.083 320.832 53.2033 320.543C53.34 320.24 53.64 319.962 54.1033 319.709C54.4201 319.561 54.6456 319.494 54.7798 319.507C54.9305 319.508 55.1413 319.582 55.4124 319.731C55.8871 320.097 56.0746 320.47 55.9749 320.852C55.8768 321.218 55.514 321.52 54.8867 321.757Z" fill="#FF6200"/>
<path d="M64.3727 319.344L64.5529 317.6L68.1769 317.974C69.5938 318.12 70.6878 317.962 71.4591 317.499C72.232 317.021 72.6808 316.178 72.8055 314.97C72.921 313.851 72.6717 312.981 72.0575 312.36C71.4598 311.726 70.475 311.338 69.1029 311.196L65.2551 310.799L65.4307 309.099L69.3232 309.501C70.2926 309.601 71.1386 309.801 71.8612 310.102C72.5987 310.404 73.2061 310.798 73.6834 311.285C74.1608 311.771 74.5005 312.349 74.7028 313.018C74.9215 313.674 74.9877 314.419 74.9014 315.254C74.7875 316.358 74.4377 317.264 73.8521 317.972C73.2665 318.68 72.4607 319.185 71.4348 319.486C70.4105 319.772 69.1824 319.841 67.7507 319.693L64.3727 319.344ZM62.8099 323.75L64.3345 308.985L66.3926 309.198L64.868 323.963L62.8099 323.75ZM76.504 325.164L77.1508 318.9L77.6983 313.599L79.5327 313.788L78.9379 317.796L79.3182 317.835C79.5433 316.969 79.8306 316.23 80.1802 315.618C80.5298 315.006 80.9542 314.545 81.4535 314.235C81.9677 313.926 82.5753 313.808 83.2763 313.881C83.4254 313.896 83.5954 313.929 83.7862 313.978C83.9785 314.013 84.1968 314.089 84.4411 314.204L84.1098 316.318C83.8953 316.205 83.6778 316.123 83.4572 316.07C83.2381 316.002 83.0241 315.957 82.8153 315.936C82.2337 315.876 81.7074 316.01 81.2364 316.338C80.7803 316.668 80.3775 317.138 80.0279 317.75C79.6798 318.348 79.3755 319.032 79.1149 319.804L78.5397 325.374L76.504 325.164ZM90.2007 326.872C89.0971 326.758 88.1449 326.419 87.3441 325.854C86.5597 325.276 85.9759 324.507 85.5926 323.548C85.2242 322.59 85.107 321.463 85.241 320.165C85.3796 318.823 85.7404 317.737 86.3234 316.908C86.9229 316.066 87.6633 315.464 88.5447 315.103C89.426 314.742 90.3813 314.614 91.4103 314.72C92.4841 314.831 93.414 315.169 94.1999 315.732C95.0022 316.282 95.6025 317.037 96.0007 317.998C96.4005 318.944 96.5318 320.08 96.3948 321.408C96.2577 322.735 95.8969 323.821 95.3124 324.665C94.7427 325.51 94.009 326.12 93.1111 326.495C92.2298 326.856 91.2596 326.982 90.2007 326.872ZM90.4635 325.204C91.1793 325.278 91.8085 325.169 92.351 324.879C92.91 324.575 93.3568 324.116 93.6914 323.502C94.041 322.89 94.2612 322.144 94.3521 321.264C94.446 320.355 94.3777 319.556 94.1472 318.869C93.9332 318.169 93.5762 317.612 93.0762 317.199C92.5778 316.77 91.9483 316.517 91.1877 316.438C90.5017 316.368 89.8807 316.469 89.3249 316.743C88.769 317.018 88.3163 317.461 87.9667 318.073C87.6186 318.67 87.3976 319.423 87.3037 320.333C87.1589 321.735 87.3656 322.872 87.9238 323.743C88.4984 324.602 89.3449 325.088 90.4635 325.204ZM102.742 328.167C101.757 328.066 100.942 327.718 100.294 327.123C99.6474 326.529 99.1844 325.758 98.9055 324.809C98.6415 323.863 98.5704 322.8 98.692 321.622C98.8137 320.444 99.1004 319.418 99.5523 318.546C100.004 317.673 100.6 317.011 101.34 316.56C102.08 316.109 102.95 315.935 103.949 316.038C104.769 316.122 105.422 316.363 105.909 316.76C106.396 317.157 106.767 317.648 107.023 318.232C107.296 318.803 107.474 319.416 107.557 320.073L107.959 320.115C107.929 319.674 107.908 319.22 107.897 318.752C107.886 318.268 107.882 317.8 107.883 317.348C107.886 316.881 107.906 316.469 107.943 316.111L108.303 312.621L110.362 312.834L109.334 322.789L108.745 328.493L106.91 328.304L107.345 325.184L106.987 325.147C106.739 325.799 106.424 326.37 106.042 326.858C105.662 327.331 105.202 327.69 104.665 327.936C104.128 328.167 103.487 328.244 102.742 328.167ZM103.396 326.426C103.933 326.482 104.431 326.405 104.889 326.196C105.348 325.987 105.747 325.697 106.087 325.325C106.429 324.938 106.699 324.514 106.897 324.052C107.11 323.592 107.24 323.138 107.286 322.69L107.314 322.422C107.346 322.109 107.336 321.769 107.284 321.401C107.233 321.019 107.137 320.633 106.997 320.241C106.871 319.852 106.683 319.485 106.432 319.143C106.197 318.787 105.903 318.5 105.548 318.283C105.195 318.051 104.788 317.911 104.326 317.863C103.654 317.794 103.068 317.929 102.565 318.269C102.079 318.596 101.683 319.075 101.377 319.706C101.085 320.339 100.897 321.066 100.813 321.886C100.725 322.736 100.767 323.494 100.94 324.16C101.114 324.811 101.406 325.339 101.816 325.743C102.243 326.134 102.77 326.362 103.396 326.426ZM115.972 329.534C114.69 329.401 113.766 328.854 113.203 327.891C112.639 326.928 112.448 325.56 112.632 323.785L113.304 317.275L115.362 317.488L114.708 323.819C114.579 325.071 114.677 326.023 115.001 326.675C115.326 327.326 115.906 327.695 116.741 327.782C117.203 327.829 117.625 327.76 118.006 327.573C118.402 327.388 118.763 327.101 119.09 326.713C119.416 326.324 119.698 325.856 119.936 325.308C120.175 324.745 120.359 324.131 120.487 323.466L121.044 318.074L123.08 318.285L122.385 325.018L121.886 329.85L120.074 329.663L120.636 325.968L120.3 325.933C120.011 326.838 119.657 327.57 119.237 328.13C118.834 328.676 118.357 329.064 117.806 329.293C117.254 329.523 116.643 329.603 115.972 329.534ZM130.355 331.019C129.34 330.914 128.492 330.661 127.81 330.259C127.143 329.858 126.615 329.359 126.224 328.761C125.849 328.164 125.593 327.497 125.459 326.76C125.339 326.024 125.319 325.268 125.399 324.493C125.487 323.643 125.681 322.856 125.981 322.134C126.282 321.411 126.686 320.79 127.191 320.269C127.714 319.735 128.327 319.346 129.03 319.102C129.75 318.845 130.565 318.764 131.475 318.857C132.355 318.948 133.114 319.185 133.753 319.567C134.393 319.935 134.894 320.416 135.254 321.011C135.63 321.608 135.838 322.292 135.879 323.065L133.877 323.401C133.89 322.981 133.805 322.565 133.621 322.154C133.453 321.745 133.172 321.399 132.779 321.117C132.387 320.821 131.886 320.641 131.274 320.578C130.693 320.518 130.182 320.578 129.741 320.758C129.315 320.941 128.94 321.218 128.615 321.592C128.305 321.967 128.048 322.415 127.843 322.936C127.653 323.46 127.526 324.034 127.461 324.661C127.372 325.526 127.414 326.291 127.586 326.957C127.773 327.625 128.11 328.164 128.595 328.576C129.08 328.988 129.732 329.236 130.553 329.321C131.164 329.384 131.697 329.333 132.151 329.169C132.606 328.99 132.981 328.72 133.275 328.358C133.57 327.982 133.782 327.529 133.912 327L135.748 327.619C135.577 328.249 135.325 328.796 134.99 329.259C134.656 329.722 134.256 330.095 133.79 330.379C133.325 330.647 132.8 330.834 132.217 330.94C131.646 331.062 131.026 331.088 130.355 331.019ZM141.275 332.078C140.201 331.968 139.433 331.594 138.971 330.959C138.509 330.323 138.34 329.409 138.463 328.216L139.14 321.661L137.395 321.481L137.593 319.783L138.689 319.896C139.062 319.935 139.337 319.895 139.515 319.778C139.708 319.662 139.835 319.449 139.898 319.139L140.302 317.418L141.554 317.547L141.284 320.164L144.617 320.508L144.439 322.231L141.106 321.887L140.436 328.374C140.375 328.971 140.464 329.417 140.705 329.713C140.962 329.996 141.352 330.165 141.874 330.219C142.157 330.248 142.452 330.241 142.758 330.197C143.079 330.155 143.4 330.037 143.721 329.844L143.511 331.88C143.061 331.999 142.647 332.069 142.268 332.091C141.904 332.113 141.573 332.109 141.275 332.078ZM146.02 332.342L147.214 320.777L149.25 320.987L148.056 332.553L146.02 332.342ZM148.451 318.87C147.974 318.82 147.626 318.686 147.408 318.468C147.189 318.249 147.1 317.946 147.14 317.558C147.18 317.171 147.329 316.892 147.588 316.723C147.846 316.554 148.207 316.493 148.669 316.541C149.146 316.59 149.494 316.724 149.713 316.942C149.932 317.161 150.021 317.464 149.981 317.852C149.942 318.225 149.793 318.503 149.533 318.687C149.274 318.857 148.914 318.917 148.451 318.87ZM156.527 333.721C155.423 333.607 154.471 333.268 153.67 332.703C152.886 332.124 152.302 331.356 151.919 330.397C151.55 329.439 151.433 328.312 151.567 327.014C151.706 325.672 152.066 324.586 152.649 323.757C153.249 322.915 153.989 322.313 154.871 321.952C155.752 321.59 156.707 321.463 157.736 321.569C158.81 321.68 159.74 322.017 160.526 322.581C161.328 323.131 161.929 323.886 162.327 324.847C162.727 325.792 162.858 326.929 162.721 328.256C162.584 329.584 162.223 330.669 161.638 331.513C161.069 332.359 160.335 332.969 159.437 333.343C158.556 333.705 157.586 333.831 156.527 333.721ZM156.789 332.053C157.505 332.127 158.135 332.018 158.677 331.727C159.236 331.423 159.683 330.965 160.017 330.351C160.367 329.739 160.587 328.993 160.678 328.113C160.772 327.203 160.704 326.405 160.473 325.718C160.259 325.018 159.902 324.461 159.402 324.047C158.904 323.619 158.274 323.366 157.514 323.287C156.828 323.216 156.207 323.318 155.651 323.592C155.095 323.866 154.642 324.31 154.293 324.922C153.945 325.519 153.724 326.272 153.63 327.182C153.485 328.584 153.692 329.72 154.25 330.592C154.824 331.45 155.671 331.937 156.789 332.053ZM165.026 334.305L165.768 327.124L166.22 322.739L168.055 322.929L167.475 326.577L167.855 326.616C168.158 325.728 168.511 325.01 168.914 324.464C169.332 323.92 169.824 323.533 170.39 323.305C170.956 323.077 171.597 323 172.313 323.074C173.595 323.207 174.517 323.769 175.078 324.762C175.655 325.741 175.85 327.14 175.662 328.959L175.003 335.335L172.945 335.123L173.585 328.926C173.721 327.613 173.612 326.623 173.259 325.953C172.921 325.285 172.357 324.91 171.566 324.829C170.851 324.755 170.216 324.915 169.663 325.31C169.124 325.707 168.676 326.256 168.317 326.958C167.958 327.659 167.72 328.433 167.602 329.28L167.062 334.515L165.026 334.305ZM184.011 336.265L185.628 320.606L187.663 320.816L186.046 336.475L184.011 336.265ZM192.192 337.404C191.565 337.339 191.011 337.161 190.529 336.87C190.048 336.565 189.683 336.158 189.434 335.649C189.186 335.127 189.101 334.492 189.178 333.747C189.235 333.195 189.382 332.72 189.619 332.322C189.871 331.926 190.221 331.601 190.669 331.346C191.133 331.092 191.71 330.903 192.401 330.778C193.092 330.654 193.93 330.574 194.913 330.54C195.472 330.523 195.927 330.494 196.278 330.455C196.644 330.418 196.917 330.325 197.098 330.178C197.281 330.016 197.39 329.764 197.425 329.421C197.484 328.854 197.339 328.357 196.991 327.929C196.643 327.501 196.052 327.244 195.217 327.158C194.784 327.113 194.337 327.142 193.874 327.245C193.411 327.348 192.99 327.561 192.61 327.883C192.246 328.192 191.987 328.656 191.833 329.273L190.019 328.452C190.193 327.928 190.437 327.463 190.75 327.058C191.078 326.655 191.474 326.327 191.937 326.073C192.402 325.804 192.927 325.617 193.51 325.512C194.109 325.408 194.759 325.392 195.46 325.464C196.429 325.565 197.217 325.812 197.825 326.206C198.447 326.602 198.879 327.159 199.122 327.877C199.381 328.582 199.455 329.464 199.346 330.523L199.08 333.096C199.033 333.558 198.988 334.066 198.946 334.619C198.92 335.159 198.901 335.708 198.889 336.264C198.878 336.806 198.871 337.317 198.866 337.799L196.987 337.605C196.991 337.123 196.996 336.641 197 336.16C197.02 335.679 197.047 335.2 197.081 334.721L196.79 334.691C196.51 335.22 196.158 335.703 195.736 336.142C195.314 336.581 194.804 336.92 194.207 337.16C193.624 337.401 192.952 337.482 192.192 337.404ZM192.967 335.811C193.295 335.845 193.628 335.826 193.967 335.756C194.321 335.687 194.674 335.55 195.027 335.345C195.395 335.142 195.747 334.869 196.084 334.527C196.435 334.187 196.758 333.768 197.05 333.271L197.281 331.034L197.851 331.205C197.588 331.419 197.249 331.565 196.834 331.643C196.434 331.722 195.991 331.775 195.506 331.8C195.021 331.825 194.536 331.858 194.049 331.898C193.564 331.923 193.112 331.997 192.692 332.12C192.289 332.229 191.954 332.413 191.686 332.671C191.418 332.93 191.258 333.306 191.208 333.798C191.146 334.394 191.278 334.868 191.604 335.218C191.931 335.553 192.385 335.751 192.967 335.811ZM206.256 338.856C205.45 338.773 204.744 338.61 204.136 338.366C203.526 338.137 203.029 337.845 202.644 337.488C202.26 337.117 201.979 336.696 201.802 336.226C201.624 335.755 201.556 335.251 201.596 334.712L203.365 334.443C203.284 334.932 203.359 335.377 203.589 335.777C203.835 336.164 204.202 336.481 204.689 336.727C205.191 336.975 205.808 337.137 206.538 337.212C207.418 337.303 208.112 337.224 208.62 336.975C209.143 336.728 209.432 336.343 209.486 335.821C209.529 335.403 209.428 335.069 209.182 334.817C208.938 334.551 208.585 334.326 208.121 334.143C207.675 333.946 207.137 333.754 206.508 333.569C205.983 333.394 205.46 333.205 204.938 333C204.417 332.795 203.945 332.551 203.522 332.266C203.116 331.968 202.799 331.603 202.572 331.173C202.345 330.743 202.263 330.229 202.324 329.633C202.397 328.932 202.646 328.347 203.071 327.878C203.496 327.41 204.066 327.069 204.781 326.857C205.497 326.644 206.332 326.587 207.286 326.686C208.241 326.784 209.038 327.017 209.678 327.385C210.32 327.738 210.808 328.195 211.142 328.757C211.476 329.319 211.629 329.953 211.601 330.658L209.788 330.923C209.824 330.43 209.733 329.998 209.515 329.629C209.311 329.261 208.994 328.972 208.564 328.762C208.135 328.537 207.622 328.393 207.026 328.332C206.235 328.25 205.594 328.335 205.1 328.585C204.607 328.836 204.334 329.222 204.28 329.744C204.24 330.132 204.342 330.459 204.586 330.725C204.844 330.993 205.205 331.219 205.669 331.402C206.132 331.586 206.648 331.775 207.215 331.969C207.8 332.15 208.353 332.343 208.874 332.547C209.41 332.753 209.883 332.998 210.29 333.281C210.698 333.565 211.008 333.921 211.22 334.349C211.434 334.763 211.509 335.276 211.446 335.888C211.367 336.648 211.1 337.269 210.643 337.749C210.188 338.215 209.581 338.544 208.823 338.737C208.081 338.916 207.225 338.956 206.256 338.856ZM217.432 339.942C216.358 339.831 215.59 339.458 215.128 338.823C214.666 338.187 214.497 337.273 214.62 336.08L215.297 329.525L213.552 329.345L213.75 327.647L214.846 327.76C215.219 327.799 215.494 327.759 215.672 327.642C215.865 327.526 215.992 327.313 216.055 327.003L216.458 325.281L217.711 325.411L217.441 328.028L220.774 328.372L220.596 330.095L217.263 329.751L216.593 336.238C216.532 336.835 216.621 337.281 216.862 337.577C217.119 337.86 217.509 338.028 218.031 338.082C218.314 338.112 218.609 338.104 218.915 338.061C219.236 338.018 219.557 337.901 219.878 337.708L219.668 339.744C219.218 339.863 218.804 339.933 218.425 339.954C218.061 339.977 217.73 339.973 217.432 339.942Z" fill="#7F7F7F"/>
</svg>
